SplineFontDB: 3.0
FontName: Montserrat-Regular
FullName: Montserrat Regular
FamilyName: Montserrat
Weight: Regular
Copyright: Copyright (c) 2011 Julieta Ulanovsky (julieta.ulanovsky@gmail.com), with Reserved Font Names "Montserrat"
Version: 2.001
ItalicAngle: 0
UnderlinePosition: -50
UnderlineWidth: 50
Ascent: 750
Descent: 250
sfntRevision: 0x00020042
LayerCount: 2
Layer: 0 1 "Back"  1
Layer: 1 1 "Fore"  0
NeedsXUIDChange: 1
XUID: [1021 288 713564382 11451236]
FSType: 0
OS2Version: 3
OS2_WeightWidthSlopeOnly: 0
OS2_UseTypoMetrics: 1
CreationTime: 1321826100
ModificationTime: 1323707226
PfmFamily: 17
TTFWeight: 400
TTFWidth: 5
LineGap: 0
VLineGap: 0
Panose: 2 0 5 5 0 0 0 2 0 4
OS2TypoAscent: 968
OS2TypoAOffset: 0
OS2TypoDescent: -251
OS2TypoDOffset: 0
OS2TypoLinegap: 0
OS2WinAscent: 968
OS2WinAOffset: 0
OS2WinDescent: 251
OS2WinDOffset: 0
HheadAscent: 968
HheadAOffset: 0
HheadDescent: -251
HheadDOffset: 0
OS2SubXSize: 650
OS2SubYSize: 600
OS2SubXOff: 0
OS2SubYOff: 75
OS2SupXSize: 650
OS2SupYSize: 600
OS2SupXOff: 0
OS2SupYOff: 350
OS2StrikeYSize: 50
OS2StrikeYPos: 324
OS2Vendor: 'pyrs'
OS2CodePages: 20000001.00000000
OS2UnicodeRanges: 00000003.00000000.00000000.00000000
Lookup: 4 0 1 "'liga' Standard Ligatures lookup 0"  {"'liga' Standard Ligatures lookup 0 subtable"  } ['liga' ('DFLT' <'dflt' > ) ]
Lookup: 258 0 0 "'kern' Horizontal Kerning lookup 0"  {"'kern' Horizontal Kerning lookup 0 subtable"  } ['kern' ('DFLT' <'dflt' > ) ]
MarkAttachClasses: 1
DEI: 91125
TtTable: prep
PUSHW_1
 511
SCANCTRL
PUSHB_1
 4
SCANTYPE
EndTTInstrs
LangName: 1033 "" "" "" "" "" "2.000" "" "Montserrat is a trademark of Julieta Ulanovsky." "Julieta Ulanovsky" "" "" "" "" "This Font Software is licensed under the SIL Open Font License, Version 1.1. This license is available with a FAQ at: http://scripts.sil.org/OFL" "http://scripts.sil.org/OFL" 
GaspTable: 1 65535 15
Encoding: UnicodeBmp
UnicodeInterp: none
NameList: Adobe Glyph List
DisplaySize: -36
AntiAlias: 1
FitToEm: 1

StartChar: M
Encoding: 77 77 1
Width: 1009
Flags: HMW
HStem: 0 21G<110 228 110 110 781 781 781 899> 546 153<228 228 781 781> 679 20G<110 294 294 294 716 899 899 899>
VStem: 110 118<0 546 0 699> 781 118<0 546 546 546>
LayerCount: 2
Fore
SplineSet
471 61 m 1,0,-1
 228 546 l 1,1,-1
 228 0 l 1,2,-1
 110 0 l 1,3,-1
 110 699 l 1,4,-1
 294 699 l 1,5,-1
 505 260 l 1,6,-1
 716 699 l 1,7,-1
 899 699 l 1,8,-1
 899 0 l 1,9,-1
 781 0 l 1,10,-1
 781 546 l 1,11,-1
 537 61 l 1,12,-1
 471 61 l 1,0,-1
EndSplineSet
EndChar

StartChar: E
Encoding: 69 69 2
Width: 683
Flags: HMW
HStem: 0 111<228 613 228 613> 298 105<228 563 228 563> 588 111<228 601 228 228>
VStem: 110 118<111 298 403 588>
LayerCount: 2
Fore
SplineSet
601 699 m 1,0,-1
 601 588 l 1,1,-1
 228 588 l 1,2,-1
 228 403 l 1,3,-1
 563 403 l 1,4,-1
 563 298 l 1,5,-1
 228 298 l 1,6,-1
 228 111 l 1,7,-1
 613 111 l 1,8,-1
 613 0 l 1,9,-1
 110 0 l 1,10,-1
 110 699 l 1,11,-1
 601 699 l 1,0,-1
EndSplineSet
EndChar

StartChar: I
Encoding: 73 73 3
Width: 338
Flags: HMW
HStem: 0 21G<110 228 110 110> 679 20G<110 228 228 228>
VStem: 110 118<0 699 0 699>
LayerCount: 2
Fore
SplineSet
110 699 m 1,0,-1
 228 699 l 1,1,-1
 228 0 l 1,2,-1
 110 0 l 1,3,-1
 110 699 l 1,0,-1
EndSplineSet
EndChar

StartChar: O
Encoding: 79 79 4
Width: 832
Flags: HMW
HStem: -7 108<346 486 346 519.5> 608 108<346 486>
VStem: 48 121<284.5 424 284.5 458> 663 121<284.5 424>
LayerCount: 2
Fore
SplineSet
416 608 m 128,-1,1
 312 608 312 608 240.5 534 c 128,-1,2
 169 460 169 460 169 354.5 c 0,3,4
 169 249 169 249 240.5 175 c 128,-1,5
 312 101 312 101 416 101 c 128,-1,6
 520 101 520 101 591.5 175 c 128,-1,7
 663 249 663 249 663 354.5 c 0,8,9
 663 460 663 460 591.5 534 c 128,-1,0
 520 608 520 608 416 608 c 128,-1,1
416 -7 m 128,-1,11
 260 -7 260 -7 154 96.5 c 128,-1,12
 48 200 48 200 48 354.5 c 0,13,14
 48 509 48 509 154 612.5 c 128,-1,15
 260 716 260 716 416 716 c 128,-1,16
 572 716 572 716 678 612.5 c 128,-1,17
 784 509 784 509 784 354.5 c 0,18,19
 784 200 784 200 678 96.5 c 128,-1,10
 572 -7 572 -7 416 -7 c 128,-1,11
EndSplineSet
EndChar

StartChar: U
Encoding: 85 85 5
Width: 770
Flags: HMW
HStem: -11 111<331 440.5 331 466.5> 680 20G<90 209 209 209 562 680 680 680>
VStem: 90 119<297 313 313 700> 562 118<308 700>
LayerCount: 2
Fore
SplineSet
680 700 m 1,0,-1
 680 303 l 2,1,2
 680 152 680 152 597 70.5 c 128,-1,3
 514 -11 514 -11 387.5 -11 c 0,4,5
 261 -11 261 -11 175.5 70.5 c 128,-1,6
 90 152 90 152 90 297 c 2,7,-1
 90 700 l 1,8,-1
 209 700 l 1,9,-1
 209 313 l 2,10,11
 209 215 209 215 256.5 157.5 c 128,-1,12
 304 100 304 100 386 100 c 128,-1,13
 468 100 468 100 515 155.5 c 128,-1,14
 562 211 562 211 562 308 c 2,15,-1
 562 700 l 1,16,-1
 680 700 l 1,0,-1
EndSplineSet
EndChar

StartChar: R
Encoding: 82 82 6
Width: 764
Flags: HMW
HStem: 0 21G<110 228 110 110 550 700 550 550> 235 107<228 352 228 375 352 375 375 383> 592 107<228 370 370 378 228 228>
VStem: 110 118<0 235 0 342 342 592> 547 121<430 519>
LayerCount: 2
Fore
SplineSet
668 472 m 0,0,1
 668 299 668 299 517 254 c 1,2,-1
 700 0 l 1,3,-1
 550 0 l 1,4,-1
 383 235 l 1,5,-1
 228 235 l 1,6,-1
 228 0 l 1,7,-1
 110 0 l 1,8,-1
 110 699 l 1,9,-1
 370 699 l 2,10,11
 530 699 530 699 599 645 c 128,-1,12
 668 591 668 591 668 472 c 0,0,1
511 373 m 128,-1,14
 547 404 547 404 547 472.5 c 128,-1,15
 547 541 547 541 510 566.5 c 128,-1,16
 473 592 473 592 378 592 c 2,17,-1
 228 592 l 1,18,-1
 228 342 l 1,19,-1
 375 342 l 2,20,13
 475 342 475 342 511 373 c 128,-1,14
EndSplineSet
EndChar

StartChar: a
Encoding: 97 97 7
Width: 601
Flags: HMW
HStem: -8 95<249.5 292> 0 21G<429 531 429 429> 243 78<275 293 293 419> 447 93<279.5 334.5>
VStem: 60 112<140 196.5 140 218.5> 429 102<0 71 71 71>
LayerCount: 2
Fore
SplineSet
531 0 m 1,0,-1
 429 0 l 1,1,-1
 429 71 l 1,2,3
 363 -8 363 -8 252 -8 c 0,4,5
 169 -8 169 -8 114.5 39 c 128,-1,6
 60 86 60 86 60 164.5 c 0,7,8
 60 243 60 243 118 282 c 128,-1,9
 176 321 176 321 275 321 c 2,10,-1
 420 321 l 1,11,-1
 420 341 l 2,12,13
 420 447 420 447 302 447 c 0,14,15
 228 447 228 447 148 393 c 1,16,-1
 98 463 l 1,17,18
 195 540 195 540 318 540 c 0,19,20
 412 540 412 540 471.5 492.5 c 128,-1,21
 531 445 531 445 531 343 c 2,22,-1
 531 0 l 1,0,-1
419 198 m 2,23,-1
 419 243 l 1,24,-1
 293 243 l 2,25,26
 172 243 172 243 172 167 c 0,27,28
 172 128 172 128 202 107.5 c 128,-1,29
 232 87 232 87 285.5 87 c 0,30,31
 339 87 339 87 379 117 c 128,-1,32
 419 147 419 147 419 198 c 2,23,-1
EndSplineSet
EndChar

StartChar: c
Encoding: 99 99 8
Width: 584
Flags: HMW
HStem: -8 102<296.5 368.5> 436 104<299 373.5>
VStem: 59 112<219.5 319.5 219.5 349.5>
LayerCount: 2
Fore
SplineSet
554 90 m 1,0,1
 457 -8 457 -8 330 -8 c 0,2,3
 219 -8 219 -8 139 67.5 c 128,-1,4
 59 143 59 143 59 265 c 128,-1,5
 59 387 59 387 142.5 463.5 c 128,-1,6
 226 540 226 540 346 540 c 0,7,8
 466 540 466 540 549 457 c 1,9,-1
 483 376 l 1,10,11
 414 436 414 436 344 436 c 0,12,13
 274 436 274 436 222.5 389.5 c 128,-1,14
 171 343 171 343 171 269.5 c 0,15,16
 171 196 171 196 221.5 145 c 128,-1,17
 272 94 272 94 347 94 c 0,18,19
 422 94 422 94 488 162 c 1,20,-1
 554 90 l 1,0,1
EndSplineSet
EndChar

StartChar: p
Encoding: 112 112 9
Width: 684
Flags: HMW
HStem: -194 21G<90 202 90 90> -8 100<349 399.5 315 447> 442 98<348 402.5>
VStem: 90 112<-194 80 439 532> 522 112<212 316>
LayerCount: 2
Fore
SplineSet
558 466 m 128,-1,1
 634 392 634 392 634 269 c 128,-1,2
 634 146 634 146 558.5 69 c 128,-1,3
 483 -8 483 -8 382.5 -8 c 128,-1,4
 282 -8 282 -8 202 80 c 1,5,-1
 202 -194 l 1,6,-1
 90 -194 l 1,7,-1
 90 532 l 1,8,-1
 202 532 l 1,9,-1
 202 439 l 1,10,11
 268 540 268 540 375 540 c 128,-1,0
 482 540 482 540 558 466 c 128,-1,1
246 140.5 m 128,-1,13
 292 92 292 92 358 92 c 128,-1,14
 424 92 424 92 473 140 c 128,-1,15
 522 188 522 188 522 264.5 c 128,-1,16
 522 341 522 341 474 391.5 c 128,-1,17
 426 442 426 442 359 442 c 128,-1,18
 292 442 292 442 246 391.5 c 128,-1,19
 200 341 200 341 200 265 c 128,-1,12
 200 189 200 189 246 140.5 c 128,-1,13
EndSplineSet
EndChar

StartChar: r
Encoding: 114 114 10
Width: 424
Flags: HMW
HStem: 0 21G<90 202 90 90> 427 105 427 113<374 375>
VStem: 90 112<0 228 425 532>
LayerCount: 2
Fore
SplineSet
374 540 m 1,0,-1
 375 427 l 1,1,2
 371.947368421 427.070175439 371.947368421 427.070175439 368.948907356 427.070175439 c 0,3,4
 286.49122807 427.070175439 286.49122807 427.070175439 244.245614035 373.035087719 c 0,5,6
 202 319 202 319 202 228 c 2,7,-1
 202 0 l 1,8,-1
 90 0 l 1,9,-1
 90 532 l 1,10,-1
 202 532 l 1,11,-1
 202 425 l 1,12,13
 229 475 229 475 275.5 507 c 128,-1,14
 322 539 322 539 374 540 c 1,0,-1
EndSplineSet
EndChar

StartChar: y
Encoding: 121 121 11
Width: 587
Flags: HMW
HStem: -212 111<144 180 144 195.5>
VStem: 22 558<532 532>
LayerCount: 2
Fore
SplineSet
580 532 m 1,0,-1
 322 -100 l 1,1,2
 299 -152 299 -152 256 -182 c 128,-1,3
 213 -212 213 -212 161 -212 c 0,4,5
 88 -212 88 -212 29 -159 c 1,6,-1
 80 -68 l 1,7,8
 115 -101 115 -101 152.5 -101 c 0,9,10
 190 -101 190 -101 213.5 -74 c 128,-1,11
 237 -47 237 -47 237 -15 c 0,12,13
 237 -1 237 -1 22 532 c 1,14,-1
 142 532 l 1,15,-1
 301 140 l 1,16,-1
 460 532 l 1,17,-1
 580 532 l 1,0,-1
EndSplineSet
EndChar

StartChar: m
Encoding: 109 109 12
Width: 1033
Flags: HMW
HStem: 0 21G<90 202 90 90 458 458 458 570 836 836 836 948> 439 101<342.5 384.5 709 752.5>
VStem: 90 112<0 288 435 532> 458 112<0 292 292 296 0 343> 836 112<0 292 292 326 0 343>
LayerCount: 2
Fore
SplineSet
202 288 m 2,0,-1
 202 0 l 1,1,-1
 90 0 l 1,2,-1
 90 532 l 1,3,-1
 202 532 l 1,4,-1
 202 435 l 1,5,6
 226 484 226 484 274.5 512 c 128,-1,7
 323 540 323 540 379 540 c 0,8,9
 505 540 505 540 550 436 c 1,10,11
 629 540 629 540 747 540 c 0,12,13
 837 540 837 540 892.5 485 c 128,-1,14
 948 430 948 430 948 326 c 2,15,-1
 948 0 l 1,16,-1
 836 0 l 1,17,-1
 836 292 l 2,18,19
 836 439 836 439 714 439 c 0,20,21
 657 439 657 439 614.5 402.5 c 128,-1,22
 572 366 572 366 570 296 c 1,23,-1
 570 0 l 1,24,-1
 458 0 l 1,25,-1
 458 292 l 2,26,27
 458 368 458 368 431 403.5 c 128,-1,28
 404 439 404 439 346 439 c 128,-1,29
 288 439 288 439 245 400.5 c 128,-1,30
 202 362 202 362 202 288 c 2,0,-1
EndSplineSet
EndChar

StartChar: g
Encoding: 103 103 13
Width: 655
Flags: HMW
HStem: -214 101<264 335.5 264 367.5> 24 102<251.5 322> 450 90<251.5 321 209.5 346>
VStem: 40 110<245.5 326.5 245.5 355> 453 112<241 331 453 532>
LayerCount: 2
Fore
SplineSet
565 532 m 1,0,-1
 565 68 l 2,1,2
 565 -73 565 -73 488.5 -143.5 c 128,-1,3
 412 -214 412 -214 292 -214 c 128,-1,4
 172 -214 172 -214 75 -139 c 1,5,-1
 128 -54 l 1,6,7
 206 -113 206 -113 285.5 -113 c 128,-1,8
 365 -113 365 -113 411.5 -72 c 128,-1,9
 458 -31 458 -31 458 59 c 2,10,-1
 458 127 l 1,11,12
 433 80 433 80 386.5 52 c 128,-1,13
 340 24 340 24 282 24 c 0,14,15
 176 24 176 24 108 98 c 128,-1,16
 40 172 40 172 40 282 c 128,-1,17
 40 392 40 392 108 466 c 128,-1,18
 176 540 176 540 281.5 540 c 128,-1,19
 387 540 387 540 453 453 c 1,20,-1
 453 532 l 1,21,-1
 565 532 l 1,0,-1
190.5 173.5 m 128,-1,23
 231 126 231 126 299.5 126 c 128,-1,24
 368 126 368 126 410.5 172 c 128,-1,25
 453 218 453 218 453 286.5 c 128,-1,26
 453 355 453 355 410 402.5 c 128,-1,27
 367 450 367 450 299 450 c 128,-1,28
 231 450 231 450 190.5 401 c 128,-1,29
 150 352 150 352 150 286.5 c 128,-1,22
 150 221 150 221 190.5 173.5 c 128,-1,23
EndSplineSet
EndChar

StartChar: zero
Encoding: 48 48 14
Width: 615
Flags: HMW
HStem: -8 101<246 370 246 407.5> 615 101<246 370>
VStem: 23 114<281.5 426.5 281.5 458> 477 116<281.5 426.5>
LayerCount: 2
Fore
SplineSet
137 354 m 128,-1,1
 137 237 137 237 178.5 165 c 128,-1,2
 220 93 220 93 308 93 c 128,-1,3
 396 93 396 93 436.5 164.5 c 128,-1,4
 477 236 477 236 477 354 c 128,-1,5
 477 472 477 472 436.5 543.5 c 128,-1,6
 396 615 396 615 308 615 c 128,-1,7
 220 615 220 615 178.5 543 c 128,-1,0
 137 471 137 471 137 354 c 128,-1,1
23 354 m 128,-1,9
 23 519 23 519 94 617.5 c 128,-1,10
 165 716 165 716 308 716 c 128,-1,11
 451 716 451 716 522 617.5 c 128,-1,12
 593 519 593 519 593 354 c 128,-1,13
 593 189 593 189 522 90.5 c 128,-1,14
 451 -8 451 -8 308 -8 c 128,-1,15
 165 -8 165 -8 94 90.5 c 128,-1,8
 23 189 23 189 23 354 c 128,-1,9
EndSplineSet
EndChar

StartChar: one
Encoding: 49 49 15
Width: 528
Flags: HMW
HStem: 0 21G<234 346 234 234> 594 105<92 234 92 346>
VStem: 234 112<0 594 594 594>
LayerCount: 2
Fore
SplineSet
92 699 m 1,0,-1
 346 699 l 1,1,-1
 346 0 l 1,2,-1
 234 0 l 1,3,-1
 234 594 l 1,4,-1
 92 594 l 1,5,-1
 92 699 l 1,0,-1
EndSplineSet
EndChar

StartChar: three
Encoding: 51 51 16
Width: 639
Flags: HMW
HStem: -9 108<256.5 323 256.5 354> 327 91<248.5 334> 594 105<94 347 94 503>
VStem: 426 112<173 245.5>
LayerCount: 2
Fore
SplineSet
347 594 m 1,0,-1
 94 594 l 1,1,-1
 94 699 l 1,2,-1
 503 699 l 1,3,-1
 503 607 l 1,4,-1
 334 418 l 1,5,6
 430 415 430 415 484 357.5 c 128,-1,7
 538 300 538 300 538 220 c 0,8,9
 538 113 538 113 465.5 52 c 128,-1,10
 393 -9 393 -9 279 -9 c 0,11,12
 165 -9 165 -9 56 64 c 1,13,-1
 106 159 l 1,14,15
 192 99 192 99 286 99 c 0,16,17
 347 99 347 99 386.5 127.5 c 128,-1,18
 426 156 426 156 426 209.5 c 0,19,20
 426 263 426 263 382 295 c 128,-1,21
 338 327 338 327 260 327 c 0,22,23
 221 327 221 327 185 316 c 1,24,-1
 185 406 l 1,25,-1
 347 594 l 1,0,-1
EndSplineSet
EndChar

StartChar: six
Encoding: 54 54 17
Width: 615
Flags: HMW
HStem: -8 103<276 355.5 276 384.5> 346 104<295 363> 606 106<278 377>
VStem: 49 112 454 104<182 251.5>
LayerCount: 2
Fore
SplineSet
532 641 m 1,0,-1
 473 554 l 1,1,2
 450.17535545 573.563981043 450.17535545 573.563981043 411.587677725 589.781990521 c 128,-1,3
 373 606 373 606 343 606 c 0,4,5
 250 606 250 606 206 543 c 128,-1,6
 162 480 162 480 161 373 c 1,7,8
 186 401 186 401 233 425.5 c 128,-1,9
 280 450 280 450 337 450 c 0,10,11
 431 450 431 450 494.5 387.5 c 128,-1,12
 558 325 558 325 558 221.5 c 128,-1,13
 558 118 558 118 489.5 55 c 128,-1,14
 421 -8 421 -8 317 -8 c 0,15,16
 149.086956522 -8 149.086956522 -8 85.5 142 c 0,17,18
 49 228.102564103 49 228.102564103 49 336.051282051 c 128,-1,19
 49 444 49 444 72 516 c 128,-1,20
 95 588 95 588 135 630 c 0,21,22
 213.095238095 712 213.095238095 712 326.547619048 712 c 128,-1,23
 440 712 440 712 532 641 c 1,0,-1
220.5 312.5 m 128,-1,25
 180 279 180 279 180 225.5 c 128,-1,26
 180 172 180 172 219 133.5 c 128,-1,27
 258 95 258 95 317 95 c 128,-1,28
 376 95 376 95 415 129.5 c 128,-1,29
 454 164 454 164 454 217.5 c 128,-1,30
 454 271 454 271 418 308.5 c 128,-1,31
 382 346 382 346 321.5 346 c 128,-1,24
 261 346 261 346 220.5 312.5 c 128,-1,25
EndSplineSet
EndChar

StartChar: seven
Encoding: 55 55 18
Width: 615
Flags: HMW
HStem: 0 21G<131 261 131 131> 592 107<172 420 172 172>
VStem: 65 107<498 592 498 699>
LayerCount: 2
Fore
SplineSet
65 498 m 1,0,-1
 65 699 l 1,1,-1
 557 699 l 1,2,-1
 557 594 l 1,3,-1
 261 0 l 1,4,-1
 131 0 l 1,5,-1
 420 592 l 1,6,-1
 172 592 l 1,7,-1
 172 498 l 1,8,-1
 65 498 l 1,0,-1
EndSplineSet
EndChar

StartChar: j
Encoding: 106 106 19
Width: 366
Flags: HMW
HStem: -212 104<68 97.5 68 129.5> 616 141<181 219>
VStem: 129 141<669 707.5 669 707.5> 144 112<-25 532>
LayerCount: 2
Fore
SplineSet
129 688 m 128,-1,1
 129 717 129 717 150 737 c 128,-1,2
 171 757 171 757 200.5 757 c 0,3,4
 230 757 230 757 250 737 c 128,-1,5
 270 717 270 717 270 688 c 128,-1,6
 270 659 270 659 249 637.5 c 128,-1,7
 228 616 228 616 199.5 616 c 0,8,9
 171 616 171 616 150 637.5 c 128,-1,0
 129 659 129 659 129 688 c 128,-1,1
144 -25 m 2,10,-1
 144 532 l 1,11,-1
 256 532 l 1,12,-1
 256 -29 l 2,13,14
 256 -113 256 -113 205.5 -162.5 c 128,-1,15
 155 -212 155 -212 83.5 -212 c 0,16,17
 12 -212 12 -212 -47 -159 c 1,18,-1
 5 -75 l 1,19,20
 39 -108 39 -108 73.5 -108 c 0,21,22
 108 -108 108 -108 126 -86 c 128,-1,23
 144 -64 144 -64 144 -25 c 2,10,-1
EndSplineSet
EndChar

StartChar: u
Encoding: 117 117 20
Width: 654
Flags: HMW
HStem: -8 101<268.5 310.5> 0 21G<451 563 451 451>
VStem: 73 112<206 240 240 532> 451 112<0 97 97 97 244 532 0 532>
LayerCount: 2
Fore
SplineSet
451 244 m 2,0,-1
 451 532 l 1,1,-1
 563 532 l 1,2,-1
 563 0 l 1,3,-1
 451 0 l 1,4,-1
 451 97 l 1,5,6
 424 48 424 48 376.5 20 c 128,-1,7
 329 -8 329 -8 274 -8 c 0,8,9
 184 -8 184 -8 128.5 47 c 128,-1,10
 73 102 73 102 73 206 c 2,11,-1
 73 532 l 1,12,-1
 185 532 l 1,13,-1
 185 240 l 2,14,15
 185 93 185 93 307 93 c 0,16,17
 365 93 365 93 408 131.5 c 128,-1,18
 451 170 451 170 451 244 c 2,0,-1
EndSplineSet
EndChar

StartChar: S
Encoding: 83 83 21
Width: 662
Flags: HMW
HStem: -8 110<311 392 311 424.5> 607 109<289 356.5>
VStem: 88 123<494.5 545.5 494.5 572.5> 478 123<165 217.5>
LayerCount: 2
Fore
SplineSet
242 582.5 m 128,-1,1
 211 558 211 558 211 519 c 128,-1,2
 211 480 211 480 244 457.5 c 128,-1,3
 277 435 277 435 384.5 409 c 128,-1,4
 492 383 492 383 546.5 336 c 128,-1,5
 601 289 601 289 601 197.5 c 128,-1,6
 601 106 601 106 532 49 c 128,-1,7
 463 -8 463 -8 351 -8 c 0,8,9
 187 -8 187 -8 60 105 c 1,10,-1
 134 194 l 1,11,12
 240 102 240 102 354 102 c 0,13,14
 411 102 411 102 444.5 126.5 c 128,-1,15
 478 151 478 151 478 191.5 c 128,-1,16
 478 232 478 232 446.5 254.5 c 128,-1,17
 415 277 415 277 338 295.5 c 128,-1,18
 261 314 261 314 221 329.5 c 128,-1,19
 181 345 181 345 149.5 369.5 c 0,20,21
 88 417.333333333 88 417.333333333 88 510.166666667 c 128,-1,22
 88 603 88 603 155 659.5 c 128,-1,23
 222 716 222 716 327 716 c 0,24,25
 469 716 469 716 583 637 c 1,26,-1
 517 543 l 1,27,28
 431 607 431 607 325 607 c 0,29,0
 273 607 273 607 242 582.5 c 128,-1,1
EndSplineSet
EndChar

StartChar: f
Encoding: 102 102 22
Width: 435
Flags: HMW
HStem: 0 21G<132 244 132 132> 442 90<65 132 65 132 244 384> 659 97<295 325.5 258.5 332> 683 20G<435 435>
VStem: 132 112<0 442 0 442 532 573 573 576>
LayerCount: 2
Fore
SplineSet
244 576 m 2,0,-1
 244 532 l 1,1,-1
 384 532 l 1,2,-1
 384 442 l 1,3,-1
 244 442 l 1,4,-1
 244 0 l 1,5,-1
 132 0 l 1,6,-1
 132 442 l 1,7,-1
 65 442 l 1,8,-1
 65 532 l 1,9,-1
 132 532 l 1,10,-1
 132 573 l 2,11,12
 132 657 132 657 182.5 706.5 c 128,-1,13
 233 756 233 756 304.5 756 c 0,14,15
 376 756 376 756 435 703 c 1,16,-1
 389 624 l 1,17,18
 356 659 356 659 320 659 c 0,19,20
 284 659 284 659 264 636.5 c 128,-1,21
 244 614 244 614 244 576 c 2,0,-1
EndSplineSet
EndChar

StartChar: Z
Encoding: 90 90 23
Width: 697
Flags: HMW
HStem: 0 109<225 637 225 637> 591 108<73 467 73 631>
VStem: 60 577<0 91 91 91>
LayerCount: 2
Fore
SplineSet
467 591 m 1,0,-1
 73 591 l 1,1,-1
 73 699 l 1,2,-1
 631 699 l 1,3,-1
 631 607 l 1,4,-1
 225 112 l 1,5,-1
 225 109 l 1,6,-1
 637 109 l 1,7,-1
 637 0 l 1,8,-1
 60 0 l 1,9,-1
 60 91 l 1,10,-1
 467 588 l 1,11,-1
 467 591 l 1,0,-1
EndSplineSet
EndChar

StartChar: two
Encoding: 50 50 24
Width: 615
Flags: HMW
HStem: 0 113<229 546 229 546> 610 106<262 330.5>
VStem: 411 113<477.5 535.5>
LayerCount: 2
Fore
SplineSet
381 426 m 128,-1,1
 411 467 411 467 411 509 c 128,-1,2
 411 551 411 551 379 580.5 c 128,-1,3
 347 610 347 610 298 610 c 0,4,5
 212 610 212 610 155 522 c 1,6,-1
 60 577 l 1,7,8
 106 646 106 646 161.5 681 c 128,-1,9
 217 716 217 716 304.5 716 c 128,-1,10
 392 716 392 716 458 660.5 c 128,-1,11
 524 605 524 605 524 509 c 0,12,13
 524 455 524 455 496 406 c 128,-1,14
 468 357 468 357 393 280 c 2,15,-1
 229 113 l 1,16,-1
 546 113 l 1,17,-1
 546 0 l 1,18,-1
 68 0 l 1,19,-1
 68 100 l 1,20,-1
 280 313 l 2,21,0
 351 385 351 385 381 426 c 128,-1,1
EndSplineSet
EndChar

StartChar: o
Encoding: 111 111 25
Width: 663
Flags: HMW
HStem: -8 100<281.5 378.5 281.5 411> 440 100<281.5 378.5>
VStem: 50 112<214.5 317.5 214.5 342> 498 112<214.5 317.5>
LayerCount: 2
Fore
SplineSet
330 92 m 128,-1,1
 403 92 403 92 450.5 140.5 c 128,-1,2
 498 189 498 189 498 266 c 128,-1,3
 498 343 498 343 450.5 391.5 c 128,-1,4
 403 440 403 440 330 440 c 128,-1,5
 257 440 257 440 209.5 391.5 c 128,-1,6
 162 343 162 343 162 266 c 128,-1,7
 162 189 162 189 209.5 140.5 c 128,-1,0
 257 92 257 92 330 92 c 128,-1,1
330 -8 m 128,-1,9
 210 -8 210 -8 130 71.5 c 128,-1,10
 50 151 50 151 50 266 c 128,-1,11
 50 381 50 381 130 460.5 c 128,-1,12
 210 540 210 540 330 540 c 128,-1,13
 450 540 450 540 530 460.5 c 128,-1,14
 610 381 610 381 610 266 c 128,-1,15
 610 151 610 151 530 71.5 c 128,-1,8
 450 -8 450 -8 330 -8 c 128,-1,9
EndSplineSet
EndChar

StartChar: H
Encoding: 72 72 26
Width: 803
Flags: HMW
HStem: 0 21G<110 110 110 228 575 575 575 693> 286 110<228 575 228 575> 679 20G<110 228 228 228 575 693 693 693>
VStem: 110 118<0 286 396 699> 575 118<0 286 286 286 396 699 0 699>
LayerCount: 2
Fore
SplineSet
110 0 m 1,0,-1
 110 699 l 1,1,-1
 228 699 l 1,2,-1
 228 396 l 1,3,-1
 575 396 l 1,4,-1
 575 699 l 1,5,-1
 693 699 l 1,6,-1
 693 0 l 1,7,-1
 575 0 l 1,8,-1
 575 286 l 1,9,-1
 228 286 l 1,10,-1
 228 0 l 1,11,-1
 110 0 l 1,0,-1
EndSplineSet
EndChar

StartChar: F
Encoding: 70 70 27
Width: 621
Flags: HMW
HStem: 0 21G<110 228 110 110> 288 109<228 558 228 558> 589 110<228 575 228 228>
VStem: 110 118<0 288 397 589>
LayerCount: 2
Fore
SplineSet
576 699 m 1,0,-1
 575 589 l 1,1,-1
 228 589 l 1,2,-1
 228 397 l 1,3,-1
 558 397 l 1,4,-1
 558 288 l 1,5,-1
 228 288 l 1,6,-1
 228 0 l 1,7,-1
 110 0 l 1,8,-1
 110 699 l 1,9,-1
 576 699 l 1,0,-1
EndSplineSet
EndChar

StartChar: K
Encoding: 75 75 28
Width: 732
Flags: HMW
HStem: 0 21G<110 228 110 110 562 702 562 562> 679 20G<110 228 228 228 548 698 698 698>
VStem: 110 118<0 196 358 699>
LayerCount: 2
Fore
SplineSet
110 699 m 1,0,-1
 228 699 l 1,1,-1
 228 358 l 1,2,-1
 548 699 l 1,3,-1
 698 699 l 1,4,-1
 417 393 l 1,5,-1
 702 0 l 1,6,-1
 562 0 l 1,7,-1
 330 306 l 1,8,-1
 228 196 l 1,9,-1
 228 0 l 1,10,-1
 110 0 l 1,11,-1
 110 699 l 1,0,-1
EndSplineSet
EndChar

StartChar: N
Encoding: 78 78 29
Width: 862
Flags: HMW
HStem: 0 21G<110 228 110 110 624 752 624 624> 679 20G<110 228 228 228 634 752 752 752>
VStem: 110 118<0 510 0 699> 634 118<177 699 0 699>
LayerCount: 2
Fore
SplineSet
634 177 m 1,0,-1
 634 699 l 1,1,-1
 752 699 l 1,2,-1
 752 0 l 1,3,-1
 624 0 l 1,4,-1
 228 510 l 1,5,-1
 228 0 l 1,6,-1
 110 0 l 1,7,-1
 110 699 l 1,8,-1
 228 699 l 1,9,-1
 634 177 l 1,0,-1
EndSplineSet
EndChar

StartChar: L
Encoding: 76 76 30
Width: 577
Flags: HMW
HStem: 0 112<228 547 228 547> 679 20G<110 228 228 228>
VStem: 110 118<112 699 112 699 112 699>
LayerCount: 2
Fore
SplineSet
110 0 m 1,0,-1
 110 699 l 1,1,-1
 228 699 l 1,2,-1
 228 112 l 1,3,-1
 547 112 l 1,4,-1
 547 0 l 1,5,-1
 110 0 l 1,0,-1
EndSplineSet
EndChar

StartChar: z
Encoding: 122 122 31
Width: 532
Flags: HMW
HStem: 0 97<177 492 177 492> 434 96<60 331 60 476>
VStem: 40 452<0 97 0 109 0 109>
LayerCount: 2
Fore
SplineSet
331 434 m 1,0,-1
 60 434 l 1,1,-1
 60 530 l 1,2,-1
 476 530 l 1,3,-1
 476 429 l 1,4,-1
 177 97 l 1,5,-1
 492 97 l 1,6,-1
 492 0 l 1,7,-1
 40 0 l 1,8,-1
 40 109 l 1,9,-1
 331 434 l 1,0,-1
EndSplineSet
EndChar

StartChar: Q
Encoding: 81 81 32
Width: 851
Flags: HMW
HStem: -141 113<622.5 664 622.5 671> -7 108<346 418.5> 608 108<346 486>
VStem: 48 121<284.5 424 284.5 458> 663 121<284.5 424>
LayerCount: 2
Fore
SplineSet
431 -6 m 1,0,-1
 416 -7 l 1,1,2
 260 -7 260 -7 154 96.5 c 128,-1,3
 48 200 48 200 48 354.5 c 128,-1,4
 48 509 48 509 154 612.5 c 128,-1,5
 260 716 260 716 416 716 c 128,-1,6
 572 716 572 716 678 612.5 c 128,-1,7
 784 509 784 509 784 355 c 0,8,9
 784 238 784 238 721 147.5 c 128,-1,10
 658 57 658 57 553 17 c 1,11,12
 587 -28 587 -28 639 -28 c 0,13,14
 677 -28 677 -28 713.5 -8 c 128,-1,15
 750 12 750 12 769 44 c 1,16,-1
 836 -49 l 1,17,18
 749 -141 749 -141 637 -141 c 0,19,20
 573 -141 573 -141 514 -105 c 128,-1,21
 455 -69 455 -69 431 -6 c 1,0,-1
416 608 m 128,-1,23
 312 608 312 608 240.5 534 c 128,-1,24
 169 460 169 460 169 354.5 c 128,-1,25
 169 249 169 249 240.5 175 c 128,-1,26
 312 101 312 101 416 101 c 128,-1,27
 520 101 520 101 591.5 175 c 128,-1,28
 663 249 663 249 663 354.5 c 128,-1,29
 663 460 663 460 591.5 534 c 128,-1,22
 520 608 520 608 416 608 c 128,-1,23
EndSplineSet
EndChar

StartChar: Y
Encoding: 89 89 33
Width: 690
Flags: HMW
HStem: 0 21G<285 403 285 285> 679 20G<25 154 154 154 536 665 665 665>
VStem: 285 118<0 276 0 276>
LayerCount: 2
Fore
SplineSet
345 381 m 1,0,-1
 536 699 l 1,1,-1
 665 699 l 1,2,-1
 403 276 l 1,3,-1
 403 0 l 1,4,-1
 285 0 l 1,5,-1
 285 276 l 1,6,-1
 25 699 l 1,7,-1
 154 699 l 1,8,-1
 345 381 l 1,0,-1
EndSplineSet
EndChar

StartChar: l
Encoding: 108 108 34
Width: 292
Flags: HMW
HStem: 0 21G<90 202 90 90> 722 20G<90 202 202 202>
VStem: 90 112<0 742>
LayerCount: 2
Fore
SplineSet
202 0 m 1,0,-1
 90 0 l 1,1,-1
 90 742 l 1,2,-1
 202 742 l 1,3,-1
 202 0 l 1,0,-1
EndSplineSet
EndChar

StartChar: T
Encoding: 84 84 35
Width: 652
Flags: HMW
HStem: 0 21G<267 385 267 267> 591 108<55 267 55 597 385 597 385 385>
VStem: 267 118<0 591 0 591>
LayerCount: 2
Fore
SplineSet
385 591 m 1,0,-1
 385 0 l 1,1,-1
 267 0 l 1,2,-1
 267 591 l 1,3,-1
 55 591 l 1,4,-1
 55 699 l 1,5,-1
 597 699 l 1,6,-1
 597 591 l 1,7,-1
 385 591 l 1,0,-1
EndSplineSet
EndChar

StartChar: bracketleft
Encoding: 91 91 36
Width: 343
Flags: HMW
HStem: -140 84<165 303 165 303> 673 84<165 303 165 165>
VStem: 77 88<-56 673 -56 757 -56 757>
LayerCount: 2
Fore
SplineSet
303 757 m 1,0,-1
 303 673 l 1,1,-1
 165 673 l 1,2,-1
 165 -56 l 1,3,-1
 303 -56 l 1,4,-1
 303 -140 l 1,5,-1
 77 -140 l 1,6,-1
 77 757 l 1,7,-1
 303 757 l 1,0,-1
EndSplineSet
EndChar

StartChar: e
Encoding: 101 101 37
Width: 635
Flags: HMW
HStem: -8 96<297 364.5 297 366.5> 217 88<172 477 172 589 172 477> 444 96<294 370>
VStem: 60 112<217 217 305 350> 477 112<217 352.5>
LayerCount: 2
Fore
SplineSet
589 217 m 1,0,-1
 172 217 l 1,1,2
 176 159 176 159 225 123.5 c 128,-1,3
 274 88 274 88 337 88 c 0,4,5
 437 88 437 88 489 151 c 1,6,-1
 553 81 l 1,7,8
 467 -8 467 -8 329 -8 c 0,9,10
 217 -8 217 -8 138.5 66.5 c 128,-1,11
 60 141 60 141 60 266.5 c 0,12,13
 60 392 60 392 140 466 c 128,-1,14
 220 540 220 540 328.5 540 c 0,15,16
 437 540 437 540 513 474.5 c 128,-1,17
 589 409 589 409 589 294 c 2,18,-1
 589 217 l 1,0,-1
172 305 m 1,19,-1
 477 305 l 1,20,21
 477 372 477 372 435 408 c 128,-1,22
 393 444 393 444 331.5 444 c 0,23,24
 270 444 270 444 221 406.5 c 128,-1,25
 172 369 172 369 172 305 c 1,19,-1
EndSplineSet
EndChar

StartChar: Agrave
Encoding: 192 192 38
Width: 793
Flags: HMW
HStem: 0 21G<20 146 20 20 620 750 620 620> 159 109<263 502 263 549 214 502> 679 20G<328 442 442 442>
VStem: 20 730<0 0>
LayerCount: 2
Fore
SplineSet
442 699 m 1,0,-1
 750 0 l 1,1,-1
 620 0 l 1,2,-1
 549 159 l 1,3,-1
 214 159 l 1,4,-1
 146 0 l 1,5,-1
 20 0 l 1,6,-1
 328 699 l 1,7,-1
 442 699 l 1,0,-1
502 268 m 1,8,-1
 382 537 l 1,9,-1
 263 268 l 1,10,-1
 502 268 l 1,8,-1
440 757 m 1,11,-1
 338 757 l 1,12,-1
 216 853 l 1,13,-1
 334 902 l 1,14,-1
 440 757 l 1,11,-1
EndSplineSet
EndChar

StartChar: Acircumflex
Encoding: 194 194 39
Width: 807
Flags: HMW
HStem: 0 21G<20 146 20 20 620 750 620 620> 159 109<263 502 263 549 214 502> 679 20G<328 442 442 442> 758 156<208 432 208 432 330 553 330 469>
VStem: 20 730<0 0>
LayerCount: 2
Fore
SplineSet
442 699 m 1,0,-1
 750 0 l 1,1,-1
 620 0 l 1,2,-1
 549 159 l 1,3,-1
 214 159 l 1,4,-1
 146 0 l 1,5,-1
 20 0 l 1,6,-1
 328 699 l 1,7,-1
 442 699 l 1,0,-1
502 268 m 1,8,-1
 382 537 l 1,9,-1
 263 268 l 1,10,-1
 502 268 l 1,8,-1
469 758 m 1,11,-1
 382 836 l 1,12,-1
 295 758 l 1,13,-1
 208 758 l 1,14,-1
 330 914 l 1,15,-1
 432 914 l 1,16,-1
 553 758 l 1,17,-1
 469 758 l 1,11,-1
EndSplineSet
EndChar

StartChar: exclamdown
Encoding: 161 161 40
Width: 349
Flags: HMW
HStem: -8 21G<104 243 104 104> 564 149<154 194.5>
VStem: 100 149<618.5 659> 104 139<-8 118 -8 118>
LayerCount: 2
Fore
SplineSet
243 -8 m 1,0,-1
 104 -8 l 1,1,-1
 104 118 l 1,2,-1
 134 479 l 1,3,-1
 214 479 l 1,4,-1
 243 118 l 1,5,-1
 243 -8 l 1,0,-1
122 586 m 128,-1,7
 100 608 100 608 100 638.5 c 128,-1,8
 100 669 100 669 122 691 c 128,-1,9
 144 713 144 713 174.5 713 c 128,-1,10
 205 713 205 713 227 691 c 128,-1,11
 249 669 249 669 249 638.5 c 128,-1,12
 249 608 249 608 227 586 c 128,-1,13
 205 564 205 564 174.5 564 c 128,-1,6
 144 564 144 564 122 586 c 128,-1,7
EndSplineSet
EndChar

StartChar: Atilde
Encoding: 195 195 41
Width: 793
Flags: HMW
HStem: 0 21G<20 146 20 20 620 750 620 620> 159 109<263 502 263 549 214 502> 679 20G<328 442 442 442> 754 136<490 492> 757 136<270 272 195 319>
VStem: 195 77<757 801.5> 490 77<845.5 890>
LayerCount: 2
Fore
SplineSet
442 699 m 1,0,-1
 750 0 l 1,1,-1
 620 0 l 1,2,-1
 549 159 l 1,3,-1
 214 159 l 1,4,-1
 146 0 l 1,5,-1
 20 0 l 1,6,-1
 328 699 l 1,7,-1
 442 699 l 1,0,-1
502 268 m 1,8,-1
 382 537 l 1,9,-1
 263 268 l 1,10,-1
 502 268 l 1,8,-1
567 890 m 1,11,12
 567 825 567 825 538 789.5 c 128,-1,13
 509 754 509 754 462 754 c 0,14,15
 435 754 435 754 414 763 c 128,-1,16
 393 772 393 772 359.5 792 c 0,17,18
 326 812 326 812 310 812 c 0,19,20
 294 812 294 812 285 799.5 c 128,-1,21
 276 787 276 787 272 757 c 1,22,-1
 195 757 l 1,23,24
 195 822 195 822 224 857.5 c 128,-1,25
 253 893 253 893 300 893 c 0,26,27
 327 893 327 893 347.5 884.5 c 128,-1,28
 368 876 368 876 401.5 855.5 c 0,29,30
 435 835 435 835 451.5 835 c 0,31,32
 468 835 468 835 477 847.5 c 128,-1,33
 486 860 486 860 490 890 c 1,34,-1
 567 890 l 1,11,12
EndSplineSet
EndChar

StartChar: Adieresis
Encoding: 196 196 42
Width: 793
Flags: HMW
HStem: 0 21G<20 146 20 20 620 750 620 620> 159 109<263 502 263 549 214 502> 679 20G<328 442 442 442> 752 123<275 309>
VStem: 231 123<797 831 797 831> 416 123<798 832 798 832>
LayerCount: 2
Fore
SplineSet
442 699 m 1,0,-1
 750 0 l 1,1,-1
 620 0 l 1,2,-1
 549 159 l 1,3,-1
 214 159 l 1,4,-1
 146 0 l 1,5,-1
 20 0 l 1,6,-1
 328 699 l 1,7,-1
 442 699 l 1,0,-1
502 268 m 1,8,-1
 382 537 l 1,9,-1
 263 268 l 1,10,-1
 502 268 l 1,8,-1
231 814 m 128,-1,12
 231 840 231 840 248.5 857.5 c 128,-1,13
 266 875 266 875 292 875 c 128,-1,14
 318 875 318 875 336 857.5 c 128,-1,15
 354 840 354 840 354 814 c 128,-1,16
 354 788 354 788 336 770 c 128,-1,17
 318 752 318 752 292 752 c 128,-1,18
 266 752 266 752 248.5 770 c 128,-1,11
 231 788 231 788 231 814 c 128,-1,12
434 771 m 128,-1,20
 416 789 416 789 416 814.5 c 128,-1,21
 416 840 416 840 434 858 c 128,-1,22
 452 876 452 876 477.5 876 c 128,-1,23
 503 876 503 876 521 858.5 c 128,-1,24
 539 841 539 841 539 815.5 c 128,-1,25
 539 790 539 790 520.5 771.5 c 128,-1,26
 502 753 502 753 477 753 c 128,-1,19
 452 753 452 753 434 771 c 128,-1,20
EndSplineSet
EndChar

StartChar: Aring
Encoding: 197 197 43
Width: 793
Flags: HMW
HStem: 0 21G<20 146 20 20 620 750 620 620> 159 109<263 502 263 549 214 502> 679 20G<328 442 442 442> 749 49<371 403.5 371 415.5> 909 49<371 403.5>
VStem: 279 53<837 869.5 837 881.5> 442 54<837 869.5>
LayerCount: 2
Fore
SplineSet
496 853 m 128,-1,1
 496 811 496 811 463 780 c 128,-1,2
 430 749 430 749 387 749 c 128,-1,3
 344 749 344 749 311.5 780 c 128,-1,4
 279 811 279 811 279 853 c 128,-1,5
 279 895 279 895 311.5 926.5 c 128,-1,6
 344 958 344 958 387 958 c 128,-1,7
 430 958 430 958 463 926.5 c 128,-1,0
 496 895 496 895 496 853 c 128,-1,1
427 813.5 m 128,-1,9
 442 829 442 829 442 853.5 c 128,-1,10
 442 878 442 878 427 893.5 c 128,-1,11
 412 909 412 909 387.5 909 c 128,-1,12
 363 909 363 909 347.5 893.5 c 128,-1,13
 332 878 332 878 332 853.5 c 128,-1,14
 332 829 332 829 347.5 813.5 c 128,-1,15
 363 798 363 798 387.5 798 c 128,-1,8
 412 798 412 798 427 813.5 c 128,-1,9
442 699 m 1,16,-1
 750 0 l 1,17,-1
 620 0 l 1,18,-1
 549 159 l 1,19,-1
 214 159 l 1,20,-1
 146 0 l 1,21,-1
 20 0 l 1,22,-1
 328 699 l 1,23,-1
 442 699 l 1,16,-1
502 268 m 1,24,-1
 382 537 l 1,25,-1
 263 268 l 1,26,-1
 502 268 l 1,24,-1
EndSplineSet
EndChar

StartChar: Egrave
Encoding: 200 200 44
Width: 651
Flags: HMW
HStem: 0 110<218 603 218 603> 294 103<218 553 218 553> 589 110<218 591 218 218>
VStem: 100 118<110 294 397 589>
LayerCount: 2
Fore
SplineSet
591 699 m 1,0,-1
 591 589 l 1,1,-1
 218 589 l 1,2,-1
 218 397 l 1,3,-1
 553 397 l 1,4,-1
 553 294 l 1,5,-1
 218 294 l 1,6,-1
 218 110 l 1,7,-1
 603 110 l 1,8,-1
 603 0 l 1,9,-1
 100 0 l 1,10,-1
 100 699 l 1,11,-1
 591 699 l 1,0,-1
424 757 m 1,12,-1
 322 757 l 1,13,-1
 200 853 l 1,14,-1
 318 902 l 1,15,-1
 424 757 l 1,12,-1
EndSplineSet
EndChar

StartChar: Idieresis
Encoding: 207 207 45
Width: 310
Flags: HMW
HStem: 0 21G<102 220 102 102> 679 20G<102 220 220 220> 742 123<54 88>
VStem: 10 123<787 821 787 821> 102 118<0 699 0 699> 195 123<788 822 788 822>
LayerCount: 2
Fore
SplineSet
102 699 m 1,0,-1
 220 699 l 1,1,-1
 220 0 l 1,2,-1
 102 0 l 1,3,-1
 102 699 l 1,0,-1
10 804 m 128,-1,5
 10 830 10 830 28 847.5 c 128,-1,6
 46 865 46 865 71.5 865 c 128,-1,7
 97 865 97 865 115 847.5 c 128,-1,8
 133 830 133 830 133 804 c 128,-1,9
 133 778 133 778 114.5 760 c 128,-1,10
 96 742 96 742 70.5 742 c 128,-1,11
 45 742 45 742 27.5 760 c 128,-1,4
 10 778 10 778 10 804 c 128,-1,5
213 761 m 128,-1,13
 195 779 195 779 195 804.5 c 128,-1,14
 195 830 195 830 213 848 c 128,-1,15
 231 866 231 866 256.5 866 c 128,-1,16
 282 866 282 866 300 848.5 c 128,-1,17
 318 831 318 831 318 805.5 c 128,-1,18
 318 780 318 780 300 761.5 c 128,-1,19
 282 743 282 743 256.5 743 c 128,-1,12
 231 743 231 743 213 761 c 128,-1,13
EndSplineSet
EndChar

StartChar: A
Encoding: 65 65 46
Width: 770
Flags: HMW
HStem: 2 21G 159 109<263 502 263 549 214 502> 680 20G
LayerCount: 2
Fore
SplineSet
442 699 m 1,0,-1
 750 0 l 1,1,-1
 620 0 l 1,2,-1
 549 159 l 1,3,-1
 214 159 l 1,4,-1
 146 0 l 1,5,-1
 20 0 l 1,6,-1
 328 699 l 1,7,-1
 442 699 l 1,0,-1
502 268 m 1,8,-1
 382 537 l 1,9,-1
 263 268 l 1,10,-1
 502 268 l 1,8,-1
EndSplineSet
EndChar

StartChar: B
Encoding: 66 66 47
Width: 721
Flags: HMW
HStem: 0 109<218 403 403 406> 300 109<218 368 368 388 218 368> 590 109<218 369 218 218>
VStem: 100 118<109 109 109 300 409 590> 496 123<463.5 530.5> 537 121<166.5 238.5 151 241.5>
LayerCount: 2
Fore
SplineSet
406 0 m 2,0,-1
 100 0 l 1,1,-1
 100 699 l 1,2,-1
 372 699 l 2,3,4
 443 699 443 699 494.5 682 c 128,-1,5
 546 665 546 665 571.5 636 c 0,6,7
 619 581.980392157 619 581.980392157 619 514 c 0,8,9
 619 431.72972973 619 431.72972973 566.5 392 c 0,10,11
 548 378 548 378 541 374.5 c 128,-1,12
 534 371 534 371 516 363 c 1,13,14
 581 349 581 349 619.5 304.5 c 128,-1,15
 658 260 658 260 658 194 c 0,16,17
 658 120.555555556 658 120.555555556 608 65 c 0,18,19
 549.5 0 549.5 0 406 0 c 2,0,-1
218 409 m 1,20,-1
 368 409 l 2,21,22
 496 409 496 409 496 496 c 0,23,24
 496 546 496 546 465 568 c 128,-1,25
 434 590 434 590 369 590 c 2,26,-1
 218 590 l 1,27,-1
 218 409 l 1,20,-1
218 109 m 1,28,-1
 403 109 l 2,29,30
 468 109 468 109 502.5 129.5 c 128,-1,31
 537 150 537 150 537 207 c 0,32,33
 537 300 537 300 388 300 c 2,34,-1
 218 300 l 1,35,-1
 218 109 l 1,28,-1
EndSplineSet
EndChar

StartChar: C
Encoding: 67 67 48
Width: 725
Flags: HMW
HStem: -8 115<347.5 455 347.5 477.5> 600 116<352 460.5>
VStem: 48 123<283.5 428 283.5 457.5>
LayerCount: 2
Fore
SplineSet
412 107 m 0,0,1
 473 107 473 107 517 127.5 c 128,-1,2
 561 148 561 148 609 193 c 1,3,-1
 685 115 l 1,4,5
 574 -8 574 -8 415.5 -8 c 0,6,7
 257 -8 257 -8 152.5 94 c 128,-1,8
 48 196 48 196 48 352 c 0,9,10
 48 508 48 508 154.5 612 c 128,-1,11
 261 716 261 716 423.5 716 c 0,12,13
 586 716 586 716 695 596 c 1,14,-1
 620 514 l 1,15,16
 570 562 570 562 525.5 581 c 128,-1,17
 481 600 481 600 421 600 c 0,18,19
 315 600 315 600 243 531.5 c 128,-1,20
 171 463 171 463 171 356.5 c 0,21,22
 171 250 171 250 242.5 178.5 c 128,-1,23
 314 107 314 107 412 107 c 0,0,1
EndSplineSet
EndChar

StartChar: G
Encoding: 71 71 49
Width: 756
Flags: HMW
HStem: -8 113<347 443.5 347 477.5> 600 116<352 456>
VStem: 48 123<275 428 275 457.5> 577 118<148 340 101 340>
LayerCount: 2
Fore
SplineSet
577 340 m 1,0,-1
 695 340 l 1,1,-1
 695 101 l 1,2,3
 596 -8 596 -8 412 -8 c 0,4,5
 257 -8 257 -8 152.5 94 c 128,-1,6
 48 196 48 196 48 352 c 0,7,8
 48 508 48 508 154.5 612 c 128,-1,9
 261 716 261 716 412 716 c 0,10,11
 563 716 563 716 663 628 c 1,12,-1
 600 538 l 1,13,14
 559 573 559 573 517.5 586.5 c 128,-1,15
 476 600 476 600 421 600 c 0,16,17
 315 600 315 600 243 531.5 c 128,-1,18
 171 463 171 463 171 351.5 c 0,19,20
 171 240 171 240 241 172.5 c 128,-1,21
 311 105 311 105 410.5 105 c 0,22,23
 510 105 510 105 577 148 c 1,24,-1
 577 340 l 1,0,-1
EndSplineSet
EndChar

StartChar: P
Encoding: 80 80 50
Width: 700
Flags: HMW
HStem: 0 21G<110 228 110 110> 205 107<228 352 228 365> 592 107<228 348 228 228>
VStem: 110 118<0 205 0 312 312 592> 534 121<416 509>
LayerCount: 2
Fore
SplineSet
582 638 m 128,-1,1
 655 577 655 577 655 450 c 128,-1,2
 655 323 655 323 580.5 264 c 128,-1,3
 506 205 506 205 352 205 c 2,4,-1
 228 205 l 1,5,-1
 228 0 l 1,6,-1
 110 0 l 1,7,-1
 110 699 l 1,8,-1
 350 699 l 2,9,0
 509 699 509 699 582 638 c 128,-1,1
498.5 349.5 m 128,-1,11
 534 387 534 387 534 459.5 c 128,-1,12
 534 532 534 532 489 562 c 128,-1,13
 444 592 444 592 348 592 c 2,14,-1
 228 592 l 1,15,-1
 228 312 l 1,16,-1
 365 312 l 2,17,10
 463 312 463 312 498.5 349.5 c 128,-1,11
EndSplineSet
EndChar

StartChar: AE
Encoding: 198 198 51
Width: 1061
Flags: HMW
HStem: 0 110<624 1009 624 1009> 159 113<299 495 299 495 242 495> 294 103<624 959 624 959> 589 110<466 495 466 466 624 997 624 624>
VStem: 495 129<110 159 159 159 272 294 397 589>
LayerCount: 2
Fore
SplineSet
997 699 m 1,0,-1
 997 589 l 1,1,-1
 624 589 l 1,2,-1
 624 397 l 1,3,-1
 959 397 l 1,4,-1
 959 294 l 1,5,-1
 624 294 l 1,6,-1
 624 110 l 1,7,-1
 1009 110 l 1,8,-1
 1009 0 l 1,9,-1
 495 0 l 1,10,-1
 495 159 l 1,11,-1
 242 159 l 1,12,-1
 157 0 l 1,13,-1
 12 0 l 1,14,-1
 378 699 l 1,15,-1
 997 699 l 1,0,-1
495 272 m 1,16,-1
 495 589 l 1,17,-1
 466 589 l 1,18,-1
 299 272 l 1,19,-1
 495 272 l 1,16,-1
EndSplineSet
EndChar

StartChar: k
Encoding: 107 107 52
Width: 617
Flags: HMW
HStem: 0 21G<90 202 90 90 441 577 441 441> 722 20G<90 202 202 202>
VStem: 90 112<0 151 306 742>
LayerCount: 2
Fore
SplineSet
360 321 m 1,0,-1
 577 0 l 1,1,-1
 441 0 l 1,2,-1
 283 233 l 1,3,-1
 202 151 l 1,4,-1
 202 0 l 1,5,-1
 90 0 l 1,6,-1
 90 742 l 1,7,-1
 202 742 l 1,8,-1
 202 306 l 1,9,-1
 418 532 l 1,10,-1
 562 532 l 1,11,-1
 360 321 l 1,0,-1
EndSplineSet
EndChar

StartChar: i
Encoding: 105 105 53
Width: 329
Flags: HMW
HStem: 0 21G<109 221 109 109> 616 141<147 185>
VStem: 95 141<669 707.5 669 707.5> 109 112<0 532>
LayerCount: 2
Fore
SplineSet
221 0 m 1,0,-1
 109 0 l 1,1,-1
 109 532 l 1,2,-1
 221 532 l 1,3,-1
 221 0 l 1,0,-1
95 688 m 128,-1,5
 95 717 95 717 116 737 c 128,-1,6
 137 757 137 757 166.5 757 c 0,7,8
 196 757 196 757 216 737 c 128,-1,9
 236 717 236 717 236 688 c 128,-1,10
 236 659 236 659 215 637.5 c 128,-1,11
 194 616 194 616 165.5 616 c 0,12,13
 137 616 137 616 116 637.5 c 128,-1,4
 95 659 95 659 95 688 c 128,-1,5
EndSplineSet
EndChar

StartChar: b
Encoding: 98 98 54
Width: 684
Flags: HMW
HStem: -8 100<351 399.5 315 447> 0 21G<90 202 90 90> 442 98<348 402.5> 722 20G<90 202 202 202>
VStem: 90 112<0 80 439 742> 522 112<212 316>
LayerCount: 2
Fore
SplineSet
558 466 m 128,-1,1
 634 392 634 392 634 269 c 128,-1,2
 634 146 634 146 558.5 69 c 128,-1,3
 483 -8 483 -8 382.5 -8 c 128,-1,4
 282 -8 282 -8 202 80 c 1,5,-1
 202 0 l 1,6,-1
 90 0 l 1,7,-1
 90 742 l 1,8,-1
 202 742 l 1,9,-1
 202 439 l 1,10,11
 268 540 268 540 375 540 c 128,-1,0
 482 540 482 540 558 466 c 128,-1,1
246 140.5 m 128,-1,13
 292 92 292 92 358 92 c 128,-1,14
 424 92 424 92 473 140 c 128,-1,15
 522 188 522 188 522 264.5 c 128,-1,16
 522 341 522 341 474 391.5 c 128,-1,17
 426 442 426 442 359 442 c 128,-1,18
 292 442 292 442 246 391.5 c 128,-1,19
 200 341 200 341 200 265 c 128,-1,12
 200 189 200 189 246 140.5 c 128,-1,13
EndSplineSet
EndChar

StartChar: d
Encoding: 100 100 55
Width: 681
Flags: HMW
HStem: -8 99<281.5 330> 0 21G<479 591 479 479> 442 98<278.5 336 240 366> 722 20G<479 591 591 591>
VStem: 47 112<211 315.5 211 354.5> 479 112<0 80 80 80 450 742 0 742>
LayerCount: 2
Fore
SplineSet
122 68 m 128,-1,1
 47 144 47 144 47 268 c 128,-1,2
 47 392 47 392 124 466 c 128,-1,3
 201 540 201 540 307.5 540 c 128,-1,4
 414 540 414 540 479 450 c 1,5,-1
 479 742 l 1,6,-1
 591 742 l 1,7,-1
 591 0 l 1,8,-1
 479 0 l 1,9,-1
 479 80 l 1,10,11
 417 -8 417 -8 298 -8 c 0,12,0
 197 -8 197 -8 122 68 c 128,-1,1
208 139 m 128,-1,14
 257 91 257 91 323 91 c 128,-1,15
 389 91 389 91 435 139.5 c 128,-1,16
 481 188 481 188 481 264 c 128,-1,17
 481 340 481 340 435 391 c 128,-1,18
 389 442 389 442 322 442 c 128,-1,19
 255 442 255 442 207 391 c 128,-1,20
 159 340 159 340 159 263.5 c 128,-1,13
 159 187 159 187 208 139 c 128,-1,14
EndSplineSet
EndChar

StartChar: n
Encoding: 110 110 56
Width: 656
Flags: HMW
HStem: 0 21G<90 202 90 90 468 468 468 580> 439 101<342.5 384.5>
VStem: 90 112<0 288 435 532> 468 112<0 292 292 326 0 343>
LayerCount: 2
Fore
SplineSet
202 288 m 2,0,-1
 202 0 l 1,1,-1
 90 0 l 1,2,-1
 90 532 l 1,3,-1
 202 532 l 1,4,-1
 202 435 l 1,5,6
 229 484 229 484 276.5 512 c 128,-1,7
 324 540 324 540 379 540 c 0,8,9
 469 540 469 540 524.5 485 c 128,-1,10
 580 430 580 430 580 326 c 2,11,-1
 580 0 l 1,12,-1
 468 0 l 1,13,-1
 468 292 l 2,14,15
 468 439 468 439 346 439 c 0,16,17
 288 439 288 439 245 400.5 c 128,-1,18
 202 362 202 362 202 288 c 2,0,-1
EndSplineSet
EndChar

StartChar: four
Encoding: 52 52 57
Width: 615
Flags: HMW
HStem: 29 108 611 101
VStem: -62 123 541 120
LayerCount: 2
Fore
SplineSet
183 283 m 1,0,-1
 350 283 l 1,1,-1
 350 411 l 1,2,-1
 462 411 l 1,3,-1
 462 283 l 1,4,-1
 546 283 l 1,5,-1
 546 176 l 1,6,-1
 462 176 l 1,7,-1
 462 0 l 1,8,-1
 350 0 l 1,9,-1
 350 176 l 1,10,-1
 50 176 l 1,11,-1
 50 280 l 1,12,-1
 307 699 l 1,13,-1
 436 699 l 1,14,-1
 183 283 l 1,0,-1
EndSplineSet
EndChar

StartChar: v
Encoding: 118 118 58
Width: 602
Flags: HMW
HStem: 0 21G<237 237 237 365> 0 130<237 301 301 301 301 365>
VStem: 23 556<532 532>
LayerCount: 2
Fore
SplineSet
237 0 m 1,0,-1
 23 532 l 1,1,-1
 139 532 l 1,2,-1
 301 130 l 1,3,-1
 463 532 l 1,4,-1
 579 532 l 1,5,-1
 365 0 l 1,6,-1
 237 0 l 1,0,-1
EndSplineSet
EndChar

StartChar: h
Encoding: 104 104 59
Width: 656
Flags: HMW
HStem: 0 21G<90 202 90 90 468 468 468 580> 439 101<342.5 384.5> 721 20G<90 202 202 202>
VStem: 90 112<0 288 435 741> 468 112<0 292 292 326 0 343>
LayerCount: 2
Fore
SplineSet
202 288 m 2,0,-1
 202 0 l 1,1,-1
 90 0 l 1,2,-1
 90 741 l 1,3,-1
 202 741 l 1,4,-1
 202 435 l 1,5,6
 226 484 226 484 274.5 512 c 128,-1,7
 323 540 323 540 379 540 c 0,8,9
 469 540 469 540 524.5 485 c 128,-1,10
 580 430 580 430 580 326 c 2,11,-1
 580 0 l 1,12,-1
 468 0 l 1,13,-1
 468 292 l 2,14,15
 468 439 468 439 346 439 c 0,16,17
 288 439 288 439 245 400.5 c 128,-1,18
 202 362 202 362 202 288 c 2,0,-1
EndSplineSet
EndChar

StartChar: D
Encoding: 68 68 60
Width: 790
Flags: HMW
HStem: 0 111<228 342> 590 109<228 346 228 228>
VStem: 110 118<111 590 111 699 111 699> 621 119<271 424.5>
LayerCount: 2
Fore
SplineSet
639 607.5 m 128,-1,1
 740 516 740 516 740 353 c 128,-1,2
 740 190 740 190 642 95 c 128,-1,3
 544 0 544 0 342 0 c 2,4,-1
 110 0 l 1,5,-1
 110 699 l 1,6,-1
 350 699 l 2,7,0
 538 699 538 699 639 607.5 c 128,-1,1
621 350 m 0,8,9
 621 590 621 590 346 590 c 2,10,-1
 228 590 l 1,11,-1
 228 111 l 1,12,-1
 359 111 l 2,13,14
 486 111 486 111 553.5 171.5 c 128,-1,15
 621 232 621 232 621 350 c 0,8,9
EndSplineSet
EndChar

StartChar: X
Encoding: 88 88 61
Width: 740
Flags: HMW
HStem: 0 21G<45 192 45 45 541 691 541 541> 679 20G<62 208 208 208 524 672 672 672>
VStem: 45 646<0 0>
LayerCount: 2
Fore
SplineSet
524 699 m 1,0,-1
 672 699 l 1,1,-1
 450 363 l 1,2,-1
 691 0 l 1,3,-1
 541 0 l 1,4,-1
 368 263 l 1,5,-1
 364 263 l 1,6,-1
 192 0 l 1,7,-1
 45 0 l 1,8,-1
 285 359 l 1,9,-1
 62 699 l 1,10,-1
 208 699 l 1,11,-1
 364 463 l 1,12,-1
 369 463 l 1,13,-1
 524 699 l 1,0,-1
EndSplineSet
EndChar

StartChar: V
Encoding: 86 86 62
Width: 770
Flags: HMW
HStem: 0 21G<322 449 322 322> 679 20G<40 172 172 172 601 730 730 730>
VStem: 40 690<699 699>
LayerCount: 2
Fore
SplineSet
172 699 m 1,0,-1
 388 171 l 1,1,-1
 601 699 l 1,2,-1
 730 699 l 1,3,-1
 449 0 l 1,4,-1
 322 0 l 1,5,-1
 40 699 l 1,6,-1
 172 699 l 1,0,-1
EndSplineSet
EndChar

StartChar: q
Encoding: 113 113 63
Width: 680
Flags: HMW
HStem: -194 21G<478 590 478 478> -8 100<280.5 331> 442 98<277.5 332 236 365>
VStem: 46 112<212 316 212 354.5> 478 112<-194 80 80 80 439 532 -194 532>
LayerCount: 2
Fore
SplineSet
121.5 69 m 128,-1,1
 46 146 46 146 46 269 c 128,-1,2
 46 392 46 392 122 466 c 128,-1,3
 198 540 198 540 305 540 c 128,-1,4
 412 540 412 540 478 439 c 1,5,-1
 478 532 l 1,6,-1
 590 532 l 1,7,-1
 590 -194 l 1,8,-1
 478 -194 l 1,9,-1
 478 80 l 1,10,11
 398 -8 398 -8 297.5 -8 c 128,-1,0
 197 -8 197 -8 121.5 69 c 128,-1,1
207 140 m 128,-1,13
 256 92 256 92 322 92 c 128,-1,14
 388 92 388 92 434 140.5 c 128,-1,15
 480 189 480 189 480 265 c 128,-1,16
 480 341 480 341 434 391.5 c 128,-1,17
 388 442 388 442 321 442 c 128,-1,18
 254 442 254 442 206 391.5 c 128,-1,19
 158 341 158 341 158 264.5 c 128,-1,12
 158 188 158 188 207 140 c 128,-1,13
EndSplineSet
EndChar

StartChar: W
Encoding: 87 87 64
Width: 1044
Flags: HMW
HStem: 1 21G<254 371 254 254 673 790 673 673> 679 20G<10 137 137 137 469 575 575 575 907 1034 1034 1034>
VStem: 10 1024<699 699>
LayerCount: 2
Fore
SplineSet
313 196 m 1,0,-1
 469 699 l 1,1,-1
 575 699 l 1,2,-1
 732 196 l 1,3,-1
 907 699 l 1,4,-1
 1034 699 l 1,5,-1
 790 1 l 1,6,-1
 673 1 l 1,7,-1
 526 479 l 1,8,-1
 518 479 l 1,9,-1
 371 1 l 1,10,-1
 254 1 l 1,11,-1
 10 699 l 1,12,-1
 137 699 l 1,13,-1
 313 196 l 1,0,-1
EndSplineSet
EndChar

StartChar: five
Encoding: 53 53 65
Width: 615
Flags: HMW
HStem: -8 113<241.5 324.5 241.5 361.5> 343 102<289.5 318> 593 107<206 501 206 206>
VStem: 99 107<421 593 421 700> 429 117<182 263>
LayerCount: 2
Fore
SplineSet
501 700 m 1,0,-1
 501 593 l 1,1,-1
 206 593 l 1,2,-1
 206 421 l 1,3,4
 250 445 250 445 306 445 c 0,5,6
 404 445 404 445 475 386 c 128,-1,7
 546 327 546 327 546 226 c 0,8,9
 546 125 546 125 472 58.5 c 128,-1,10
 398 -8 398 -8 290 -8 c 0,11,12
 149 -8 149 -8 65 86 c 1,13,-1
 128 172 l 1,14,15
 136 164 136 164 149.5 153 c 128,-1,16
 163 142 163 142 205 123.5 c 128,-1,17
 247 105 247 105 297 105 c 0,18,19
 347 105 347 105 388 135 c 128,-1,20
 429 165 429 165 429 222.5 c 0,21,22
 429 280 429 280 385.5 311.5 c 128,-1,23
 342 343 342 343 275.5 343 c 0,24,25
 209 343 209 343 149 310 c 1,26,-1
 99 364 l 1,27,-1
 99 700 l 1,28,-1
 501 700 l 1,0,-1
EndSplineSet
EndChar

StartChar: eight
Encoding: 56 56 66
Width: 615
Flags: HMW
HStem: -8 102<275.5 334.5 275.5 384.5> 323 88<272.5 337.5> 621 92<271 339>
VStem: 44 117<167 246.5> 70 109<491 547 486.5 580> 431 109<491 547> 449 117<167 246.5 145.5 247.5>
LayerCount: 2
Fore
SplineSet
305 713 m 128,-1,1
 406 713 406 713 473 660 c 128,-1,2
 540 607 540 607 540 526.5 c 0,3,4
 540 446 540 446 465 384 c 1,5,6
 566 320 566 320 566 204 c 0,7,8
 566 114 566 114 494 53 c 128,-1,9
 422 -8 422 -8 305 -8 c 128,-1,10
 188 -8 188 -8 116 53 c 128,-1,11
 44 114 44 114 44 204 c 0,12,13
 44 320 44 320 145 384 c 1,14,15
 70 446 70 446 70 526.5 c 0,16,17
 70 607 70 607 137 660 c 128,-1,0
 204 713 204 713 305 713 c 128,-1,1
305 94 m 128,-1,19
 357 94 357 94 403 123.5 c 128,-1,20
 449 153 449 153 449 208 c 0,21,22
 449 263 449 263 405 293 c 128,-1,23
 361 323 361 323 305 323 c 128,-1,24
 249 323 249 323 205 293 c 128,-1,25
 161 263 161 263 161 208 c 0,26,27
 161 153 161 153 207 123.5 c 128,-1,18
 253 94 253 94 305 94 c 128,-1,19
305 411 m 128,-1,29
 356 411 356 411 393.5 441.5 c 128,-1,30
 431 472 431 472 431 516.5 c 0,31,32
 431 561 431 561 393.5 591 c 128,-1,33
 356 621 356 621 305 621 c 128,-1,34
 254 621 254 621 216.5 591 c 128,-1,35
 179 561 179 561 179 516.5 c 0,36,37
 179 472 179 472 216.5 441.5 c 128,-1,28
 254 411 254 411 305 411 c 128,-1,29
EndSplineSet
EndChar

StartChar: backslash
Encoding: 92 92 67
Width: 748
Flags: HMW
HStem: 0 21G<477 577 477 477> 737 20G<113 213 213 213>
VStem: 113 464
LayerCount: 2
Fore
SplineSet
113 757 m 1,0,-1
 213 757 l 1,1,-1
 577 0 l 1,2,-1
 477 0 l 1,3,-1
 113 757 l 1,0,-1
EndSplineSet
EndChar

StartChar: w
Encoding: 119 119 68
Width: 876
Flags: HMW
HStem: 0 21G<184 312 184 184 564 564 564 692> 0 130<248 248 248 312 184 248>
VStem: 0 876<532 532>
LayerCount: 2
Fore
SplineSet
312 0 m 1,0,-1
 184 0 l 1,1,-1
 0 532 l 1,2,-1
 116 532 l 1,3,-1
 248 130 l 1,4,-1
 380 532 l 1,5,-1
 496 532 l 1,6,-1
 628 130 l 1,7,-1
 760 532 l 1,8,-1
 876 532 l 1,9,-1
 692 0 l 1,10,-1
 564 0 l 1,11,-1
 438 364 l 1,12,-1
 312 0 l 1,0,-1
EndSplineSet
EndChar

StartChar: s
Encoding: 115 115 69
Width: 530
Flags: HMW
HStem: -8 97<255 308 255 334> 446 94<252.5 300.5>
VStem: 80 108<364.5 408 364.5 428> 364 111<133.5 172.5>
LayerCount: 2
Fore
SplineSet
420 37.5 m 128,-1,1
 365 -8 365 -8 279 -8 c 0,2,3
 221 -8 221 -8 158.5 13 c 128,-1,4
 96 34 96 34 48 72 c 1,5,-1
 102 159 l 1,6,7
 195 89 195 89 282 89 c 0,8,9
 320 89 320 89 342 106.5 c 128,-1,10
 364 124 364 124 364 151 c 0,11,12
 364 191 364 191 257.948230768 223.364796922 c 0,13,14
 250 226 250 226 246 227 c 0,15,16
 80 272 80 272 80 377 c 0,17,18
 80 451 80 451 137.5 495.5 c 128,-1,19
 195 540 195 540 287 540 c 128,-1,20
 379 540 379 540 461 486 c 1,21,-1
 419 403 l 1,22,23
 354 446 354 446 278 446 c 0,24,25
 238 446 238 446 213 431.5 c 128,-1,26
 188 417 188 417 188 388 c 0,27,28
 188 361.571428571 188 361.571428571 214 349.5 c 0,29,30
 231.5 341.375 231.5 341.375 264.25 333.1875 c 128,-1,31
 297 325 297 325 322 317 c 128,-1,32
 347 309 347 309 370.5 299 c 128,-1,33
 394 289 394 289 421 271 c 0,34,35
 475 235 475 235 475 159 c 128,-1,0
 475 83 475 83 420 37.5 c 128,-1,1
EndSplineSet
EndChar

StartChar: t
Encoding: 116 116 70
Width: 425
Flags: HMW
HStem: 0 97<285 315.5> 442 90<55 122 55 122 234 374> 679 20G<122 234 234 234>
VStem: 122 112<183 442 532 699>
LayerCount: 2
Fore
SplineSet
234 442 m 1,0,-1
 234 180 l 2,1,2
 234 142 234 142 254 119.5 c 128,-1,3
 274 97 274 97 310 97 c 0,4,5
 346 97 346 97 379 132 c 1,6,-1
 425 53 l 1,7,8
 366 0 366 0 294.5 0 c 0,9,10
 223 0 223 0 172.5 49.5 c 128,-1,11
 122 99 122 99 122 183 c 2,12,-1
 122 442 l 1,13,-1
 55 442 l 1,14,-1
 55 532 l 1,15,-1
 122 532 l 1,16,-1
 122 699 l 1,17,-1
 234 699 l 1,18,-1
 234 532 l 1,19,-1
 374 532 l 1,20,-1
 374 442 l 1,21,-1
 234 442 l 1,0,-1
EndSplineSet
EndChar

StartChar: x
Encoding: 120 120 71
Width: 618
Flags: HMW
HStem: 0 21G<47 178 47 47 429 567 429 429>
VStem: 47 520<0 0>
LayerCount: 2
Fore
SplineSet
194 532 m 1,0,-1
 308 357 l 1,1,-1
 426 532 l 1,2,-1
 559 532 l 1,3,-1
 373 272 l 1,4,-1
 567 0 l 1,5,-1
 429 0 l 1,6,-1
 302 177 l 1,7,-1
 178 0 l 1,8,-1
 47 0 l 1,9,-1
 236 271 l 1,10,-1
 57 532 l 1,11,-1
 194 532 l 1,0,-1
EndSplineSet
EndChar

StartChar: nine
Encoding: 57 57 72
Width: 615
Flags: HMW
HStem: -8 106<230 329 230 349.5> 254 104<244 312> 609 103<251.5 331>
VStem: 49 107<452.5 522 452.5 553> 446 112
LayerCount: 2
Fore
SplineSet
75 63 m 1,0,-1
 134 150 l 1,1,2
 156.82464455 130.436018957 156.82464455 130.436018957 195.412322275 114.218009479 c 128,-1,3
 234 98 234 98 264 98 c 0,4,5
 357 98 357 98 401 161 c 128,-1,6
 445 224 445 224 446 331 c 1,7,8
 421 303 421 303 374 278.5 c 128,-1,9
 327 254 327 254 270 254 c 0,10,11
 176 254 176 254 112.5 316.5 c 128,-1,12
 49 379 49 379 49 482.5 c 128,-1,13
 49 586 49 586 117.5 649 c 128,-1,14
 186 712 186 712 290 712 c 0,15,16
 457.913043478 712 457.913043478 712 521.5 562 c 0,17,18
 558 475.897435897 558 475.897435897 558 367.948717949 c 128,-1,19
 558 260 558 260 535 188 c 128,-1,20
 512 116 512 116 472 74 c 0,21,22
 393.904761905 -8 393.904761905 -8 280.452380952 -8 c 128,-1,23
 167 -8 167 -8 75 63 c 1,0,-1
386.5 391.5 m 128,-1,25
 427 425 427 425 427 478.5 c 128,-1,26
 427 532 427 532 388 570.5 c 128,-1,27
 349 609 349 609 290.5 609 c 128,-1,28
 232 609 232 609 194 574.5 c 128,-1,29
 156 540 156 540 156 486 c 128,-1,30
 156 432 156 432 190.5 395 c 128,-1,31
 225 358 225 358 285.5 358 c 128,-1,24
 346 358 346 358 386.5 391.5 c 128,-1,25
EndSplineSet
EndChar

StartChar: exclam
Encoding: 33 33 73
Width: 349
Flags: HMW
HStem: -8 149<154 194.5> 696 20G<104 244 244 244>
VStem: 100 149<46 86.5> 104 140<587 716 587 716>
LayerCount: 2
Fore
SplineSet
104 716 m 1,0,-1
 244 716 l 1,1,-1
 244 587 l 1,2,-1
 214 226 l 1,3,-1
 134 226 l 1,4,-1
 104 587 l 1,5,-1
 104 716 l 1,0,-1
122 14 m 128,-1,7
 100 36 100 36 100 66.5 c 128,-1,8
 100 97 100 97 122 119 c 128,-1,9
 144 141 144 141 174.5 141 c 128,-1,10
 205 141 205 141 227 119 c 128,-1,11
 249 97 249 97 249 66.5 c 128,-1,12
 249 36 249 36 227 14 c 128,-1,13
 205 -8 205 -8 174.5 -8 c 128,-1,6
 144 -8 144 -8 122 14 c 128,-1,7
EndSplineSet
EndChar

StartChar: parenleft
Encoding: 40 40 74
Width: 314
Flags: HMW
HStem: 737 20G<178 297 297 297>
VStem: 48 111<233 391 233 401.5>
LayerCount: 2
Fore
SplineSet
159 312 m 128,-1,1
 159 197 159 197 199 72.5 c 128,-1,2
 239 -52 239 -52 297 -133 c 1,3,-1
 178 -133 l 1,4,5
 129 -65 129 -65 88.5 61 c 128,-1,6
 48 187 48 187 48 312 c 128,-1,7
 48 437 48 437 88.5 563 c 128,-1,8
 129 689 129 689 178 757 c 1,9,-1
 297 757 l 1,10,11
 239 676 239 676 199 551.5 c 128,-1,0
 159 427 159 427 159 312 c 128,-1,1
EndSplineSet
EndChar

StartChar: parenright
Encoding: 41 41 75
Width: 304
Flags: HMW
HStem: 737 20G<29 148 148 148>
VStem: 167 111<233 391>
LayerCount: 2
Fore
SplineSet
167 312 m 128,-1,1
 167 427 167 427 127 551.5 c 128,-1,2
 87 676 87 676 29 757 c 1,3,-1
 148 757 l 1,4,5
 197 689 197 689 237.5 563 c 128,-1,6
 278 437 278 437 278 312 c 128,-1,7
 278 187 278 187 237.5 61 c 128,-1,8
 197 -65 197 -65 148 -133 c 1,9,-1
 29 -133 l 1,10,11
 87 -52 87 -52 127 72.5 c 128,-1,0
 167 197 167 197 167 312 c 128,-1,1
EndSplineSet
EndChar

StartChar: numbersign
Encoding: 35 35 76
Width: 827
Flags: HMW
HStem: 0 21G<162 274 162 162 421 532 421 421> 160 110<109 190 87 209 320 449 109 302 578 679> 436 110<146 238 124 257 146 238 124 257 238 257 368 515 368 497 368 497 146 350 368 497 625 715 625 715> 436 280<124 397 124 397 124 397 124 397 286 397 544 607 350 397 286 497 350 397 286 497 350 350 350 397 286 497 607 656 286 715 607 656 286 715 607 607>
VStem: 87 650<160 546>
LayerCount: 2
Fore
SplineSet
715 436 m 1,0,-1
 607 436 l 1,1,-1
 578 270 l 1,2,-1
 701 270 l 1,3,-1
 679 160 l 1,4,-1
 560 160 l 1,5,-1
 532 0 l 1,6,-1
 421 0 l 1,7,-1
 449 160 l 1,8,-1
 302 160 l 1,9,-1
 274 0 l 1,10,-1
 162 0 l 1,11,-1
 190 160 l 1,12,-1
 87 160 l 1,13,-1
 109 270 l 1,14,-1
 209 270 l 1,15,-1
 238 436 l 1,16,-1
 124 436 l 1,17,-1
 146 546 l 1,18,-1
 257 546 l 1,19,-1
 286 716 l 1,20,-1
 397 716 l 1,21,-1
 368 546 l 1,22,-1
 515 546 l 1,23,-1
 544 716 l 1,24,-1
 656 716 l 1,25,-1
 625 546 l 1,26,-1
 737 546 l 1,27,-1
 715 436 l 1,0,-1
497 436 m 1,28,-1
 350 436 l 1,29,-1
 320 270 l 1,30,-1
 467 270 l 1,31,-1
 497 436 l 1,28,-1
715 436 m 1,32,-1
 737 546 l 1,33,-1
 625 546 l 1,34,-1
 656 716 l 1,35,-1
 544 716 l 1,36,-1
 515 546 l 1,37,-1
 368 546 l 1,38,-1
 397 716 l 1,39,-1
 286 716 l 1,40,-1
 257 546 l 1,41,-1
 146 546 l 1,42,-1
 124 436 l 1,43,-1
 715 436 l 1,32,-1
350 436 m 1,44,-1
 497 436 l 1,45,-1
 350 436 l 1,44,-1
EndSplineSet
EndChar

StartChar: percent
Encoding: 37 37 77
Width: 879
Flags: HMW
HStem: -8 85<624.5 656.5 624.5 681> 0 21G<115 244 115 115> 219 92<622.5 654.5> 397 87<225.5 257.5 225.5 284> 626 90<223.5 255.5> 679 20G<627 756 756 756>
VStem: 90 93<535 575 535 599.5> 298 94<535 575> 487 95<128 168 128 194.5> 697 92<128 168>
LayerCount: 2
Fore
SplineSet
392 557 m 128,-1,1
 392 491 392 491 348.5 444 c 128,-1,2
 305 397 305 397 240.5 397 c 0,3,4
 176 397 176 397 133 443.5 c 128,-1,5
 90 490 90 490 90 556 c 128,-1,6
 90 622 90 622 133.5 669 c 128,-1,7
 177 716 177 716 241.5 716 c 0,8,9
 306 716 306 716 349 669.5 c 128,-1,0
 392 623 392 623 392 557 c 128,-1,1
756 699 m 1,10,-1
 244 0 l 1,11,-1
 115 0 l 1,12,-1
 627 699 l 1,13,-1
 756 699 l 1,10,-1
298 555 m 128,-1,15
 298 585 298 585 281 605.5 c 128,-1,16
 264 626 264 626 239.5 626 c 0,17,18
 215 626 215 626 199 605.5 c 128,-1,19
 183 585 183 585 183 555 c 128,-1,20
 183 525 183 525 200 504.5 c 128,-1,21
 217 484 217 484 241.5 484 c 0,22,23
 266 484 266 484 282 504.5 c 128,-1,14
 298 525 298 525 298 555 c 128,-1,15
789 152 m 128,-1,25
 789 86 789 86 745.5 39 c 128,-1,26
 702 -8 702 -8 637.5 -8 c 0,27,28
 573 -8 573 -8 530 38.5 c 128,-1,29
 487 85 487 85 487 151 c 128,-1,30
 487 217 487 217 530.5 264 c 128,-1,31
 574 311 574 311 638.5 311 c 0,32,33
 703 311 703 311 746 264.5 c 128,-1,24
 789 218 789 218 789 152 c 128,-1,25
697 148 m 128,-1,35
 697 178 697 178 680 198.5 c 128,-1,36
 663 219 663 219 638.5 219 c 0,37,38
 614 219 614 219 598 198.5 c 128,-1,39
 582 178 582 178 582 148 c 128,-1,40
 582 118 582 118 599 97.5 c 128,-1,41
 616 77 616 77 640.5 77 c 0,42,43
 665 77 665 77 681 97.5 c 128,-1,34
 697 118 697 118 697 148 c 128,-1,35
EndSplineSet
EndChar

StartChar: ampersand
Encoding: 38 38 78
Width: 740
Flags: HMW
HStem: -8 97<253.5 313 253.5 317.5> 627 89<313 353.5>
VStem: 47 111<160.5 217.5 160.5 236> 137 111<535.5 575.5 535.5 606> 421 106<531.5 576.5>
LayerCount: 2
Fore
SplineSet
545 330 m 1,0,-1
 627 272 l 1,1,2
 601 203 601 203 568 151 c 1,3,4
 609 110 609 110 670 52 c 1,5,-1
 595 -18 l 1,6,-1
 503 73 l 1,7,8
 415 -8 415 -8 283 -8 c 0,9,10
 185 -8 185 -8 116 46.5 c 128,-1,11
 47 101 47 101 47 196 c 0,12,13
 47 309 47 309 211 397 c 1,14,15
 170 444 170 444 153.5 474 c 128,-1,16
 137 504 137 504 137 550 c 0,17,18
 137 630 137 630 196 673 c 128,-1,19
 255 716 255 716 335 716 c 128,-1,20
 415 716 415 716 471 675 c 128,-1,21
 527 634 527 634 527 560 c 0,22,23
 527 461 527 461 367 373 c 1,24,25
 447 275 447 275 497 223 c 1,26,27
 528 269 528 269 545 330 c 1,0,-1
196 117.5 m 128,-1,29
 234 89 234 89 297 89 c 128,-1,30
 360 89 360 89 431 147 c 1,31,32
 330 253 330 253 271 325 c 1,33,34
 158 264 158 264 158 191 c 0,35,28
 158 146 158 146 196 117.5 c 128,-1,29
274.5 606 m 128,-1,37
 248 585 248 585 248 557 c 128,-1,38
 248 529 248 529 261.5 506.5 c 128,-1,39
 275 484 275 484 308 444 c 1,40,41
 421 500 421 500 421 548 c 0,42,43
 421 588 421 588 394.5 607.5 c 128,-1,44
 368 627 368 627 334.5 627 c 128,-1,36
 301 627 301 627 274.5 606 c 128,-1,37
EndSplineSet
EndChar

StartChar: asterisk
Encoding: 42 42 79
Width: 450
Flags: HMW
HStem: 520 20G<172 172 277 277> 679 20G<191 259 259 259>
VStem: 194 61
LayerCount: 2
Fore
SplineSet
346 430 m 1,0,-1
 251 494 l 1,1,-1
 259 380 l 1,2,-1
 191 380 l 1,3,-1
 199 495 l 1,4,-1
 104 431 l 1,5,-1
 70 489 l 1,6,-1
 172 540 l 1,7,-1
 70 590 l 1,8,-1
 104 649 l 1,9,-1
 198 586 l 1,10,-1
 191 699 l 1,11,-1
 259 699 l 1,12,-1
 252 586 l 1,13,-1
 346 648 l 1,14,-1
 380 590 l 1,15,-1
 277 540 l 1,16,-1
 380 489 l 1,17,-1
 346 430 l 1,0,-1
EndSplineSet
EndChar

StartChar: comma
Encoding: 44 44 80
Width: 224
Flags: HMW
HStem: -1 21G<86 86>
VStem: 45 149<52 87 52 87>
LayerCount: 2
Fore
SplineSet
49 -105 m 1,0,-1
 86 -1 l 1,1,2
 45 18 45 18 45 65 c 0,3,4
 45 97 45 97 67 118.5 c 128,-1,5
 89 140 89 140 119 140 c 0,6,7
 149 140 149 140 171.5 118.5 c 128,-1,8
 194 97 194 97 194 67 c 0,9,10
 194 37 194 37 167 -6 c 2,11,-1
 107 -105 l 1,12,-1
 49 -105 l 1,0,-1
EndSplineSet
EndChar

StartChar: question
Encoding: 63 63 81
Width: 519
Flags: HMW
HStem: -5 148<241 281.5 240 282> 610 104<238.5 289.5>
VStem: 184 154<49.5 88.5> 203 113<217 262 217 278 217 306> 350 119<511.5 548>
LayerCount: 2
Fore
SplineSet
316 217 m 1,0,-1
 203 217 l 1,1,-1
 203 278 l 2,2,3
 203 318 203 318 212.5 337.5 c 128,-1,4
 222 357 222 357 254 389 c 2,5,-1
 327 462 l 1,6,7
 350 487 350 487 350 524 c 128,-1,8
 350 561 350 561 326 585.5 c 128,-1,9
 302 610 302 610 264 610 c 128,-1,10
 226 610 226 610 200.5 586.5 c 128,-1,11
 175 563 175 563 171 524 c 1,12,-1
 50 524 l 1,13,14
 60 613 60 613 119.5 663.5 c 128,-1,15
 179 714 179 714 268 714 c 128,-1,16
 357 714 357 714 413 665.5 c 128,-1,17
 469 617 469 617 469 530 c 0,18,19
 469 470 469 470 436.5 430 c 0,20,21
 417 406 417 406 407 396 c 128,-1,22
 397 386 397 386 380.5 370.5 c 128,-1,23
 364 355 364 355 352.5 343.5 c 128,-1,24
 341 332 341 332 334 323.5 c 0,25,26
 316 301.642857143 316 301.642857143 316 262 c 2,27,-1
 316 217 l 1,0,-1
207 16.5 m 128,-1,29
 184 38 184 38 184 68.5 c 128,-1,30
 184 99 184 99 206.5 121 c 128,-1,31
 229 143 229 143 260.5 143 c 128,-1,32
 292 143 292 143 315 121.5 c 128,-1,33
 338 100 338 100 338 69.5 c 128,-1,34
 338 39 338 39 315.5 17 c 128,-1,35
 293 -5 293 -5 261.5 -5 c 128,-1,28
 230 -5 230 -5 207 16.5 c 128,-1,29
EndSplineSet
EndChar

StartChar: braceleft
Encoding: 123 123 82
Width: 305
Flags: HMW
HStem: -146 93<210.5 276 248 276 248 276> 262 93<32 56 32 56>
VStem: 106 100<-14 -7 -7 202 202 225 417 611>
LayerCount: 2
Fore
SplineSet
268.5 668 m 0,0,1
 206 668 206 668 206 611 c 2,2,-1
 206 391 l 2,3,4
 206 321 206 321 140 309 c 1,5,6
 206 298 206 298 206 228 c 2,7,-1
 206 -7 l 2,8,9
 206 -33 206 -33 220.5 -43 c 128,-1,10
 235 -53 235 -53 276 -53 c 1,11,-1
 276 -146 l 1,12,-1
 242 -146 l 2,13,14
 106 -146 106 -146 106 -14 c 2,15,-1
 106 202 l 2,16,17
 106 235 106 235 94 248.5 c 128,-1,18
 82 262 82 262 56 262 c 2,19,-1
 32 262 l 1,20,-1
 32 355 l 1,21,-1
 56 355 l 2,22,23
 82 355 82 355 94 369 c 128,-1,24
 106 383 106 383 106 417 c 2,25,-1
 106 628 l 2,26,27
 106 760 106 760 242 760 c 2,28,-1
 276 760 l 1,29,-1
 276 667 l 1,30,31
 273 668 273 668 268.5 668 c 0,0,1
EndSplineSet
EndChar

StartChar: period
Encoding: 46 46 83
Width: 209
Flags: HMW
HStem: -8 149<83.5 124.5>
VStem: 30 149<46.5 87.5 46.5 87.5>
LayerCount: 2
Fore
SplineSet
30 67 m 128,-1,1
 30 98 30 98 51.5 119.5 c 128,-1,2
 73 141 73 141 104 141 c 128,-1,3
 135 141 135 141 157 119.5 c 128,-1,4
 179 98 179 98 179 67 c 128,-1,5
 179 36 179 36 157 14 c 128,-1,6
 135 -8 135 -8 104 -8 c 128,-1,7
 73 -8 73 -8 51.5 14 c 128,-1,0
 30 36 30 36 30 67 c 128,-1,1
EndSplineSet
EndChar

StartChar: dollar
Encoding: 36 36 84
Width: 698
Flags: HMW
HStem: 0 21G<390 390> 0 107<390 390> 1 21G<326 326> 600 107<326 326> 686 20G<390 390> 687 20G<326 326> 737 20G<326 390 390 390>
VStem: 108 122<496 539 496 564.5> 326 64<-72 0 -72 1 -72 1 110 287 427 597 707 757> 494 122<170.5 216>
LayerCount: 2
Fore
SplineSet
326 -72 m 1,0,-1
 326 1 l 1,1,2
 189 15 189 15 80 110 c 1,3,-1
 153 197 l 1,4,5
 237 124 237 124 326 110 c 1,6,-1
 326 304 l 1,7,8
 213 331 213 331 160.5 375 c 128,-1,9
 108 419 108 419 108 505.5 c 128,-1,10
 108 592 108 592 168.5 647 c 128,-1,11
 229 702 229 702 326 707 c 1,12,-1
 326 757 l 1,13,-1
 390 757 l 1,14,-1
 390 706 l 1,15,16
 500 698 500 698 598 631 c 1,17,-1
 533 539 l 1,18,19
 467 586 467 586 390 597 c 1,20,-1
 390 409 l 1,21,-1
 393 409 l 1,22,23
 508 382 508 382 562 336 c 128,-1,24
 616 290 616 290 616 202.5 c 128,-1,25
 616 115 616 115 554 60 c 128,-1,26
 492 5 492 5 390 0 c 1,27,-1
 390 -72 l 1,28,-1
 326 -72 l 1,0,-1
466 135 m 128,-1,30
 494 158 494 158 494 193 c 128,-1,31
 494 228 494 228 472 248.5 c 128,-1,32
 450 269 450 269 390 287 c 1,33,-1
 390 107 l 1,34,29
 438 112 438 112 466 135 c 128,-1,30
255.5 573.5 m 128,-1,36
 230 551 230 551 230 517.5 c 128,-1,37
 230 484 230 484 250 464.5 c 128,-1,38
 270 445 270 445 326 427 c 1,39,-1
 326 600 l 1,40,35
 281 596 281 596 255.5 573.5 c 128,-1,36
EndSplineSet
EndChar

StartChar: registered
Encoding: 174 174 85
Width: 833
Flags: HMW
HStem: -12 43<327 505.5 327 516.5> 288 60<346 415 346 427 415 427 427 432> 489 59<346 425 425 429 346 346> 667 45<328.5 507>
VStem: 54 47<261 435 261 448> 278 68<157 288 157 348 348 489> 524 67<396.5 446> 734 44<263 437>
LayerCount: 2
Fore
SplineSet
778 351 m 128,-1,1
 778 202 778 202 672 95 c 128,-1,2
 566 -12 566 -12 415 -12 c 128,-1,3
 264 -12 264 -12 159 94 c 128,-1,4
 54 200 54 200 54 349 c 128,-1,5
 54 498 54 498 160 605 c 128,-1,6
 266 712 266 712 416 712 c 128,-1,7
 566 712 566 712 672 606 c 128,-1,0
 778 500 778 500 778 351 c 128,-1,1
734 350 m 128,-1,9
 734 481 734 481 642.5 574 c 128,-1,10
 551 667 551 667 418 667 c 128,-1,11
 285 667 285 667 193 573.5 c 128,-1,12
 101 480 101 480 101 348.5 c 128,-1,13
 101 217 101 217 192 124 c 128,-1,14
 283 31 283 31 416 31 c 128,-1,15
 549 31 549 31 641.5 125 c 128,-1,8
 734 219 734 219 734 350 c 128,-1,9
591 420 m 0,16,17
 591 323 591 323 506 298 c 1,18,-1
 610 157 l 1,19,-1
 526 157 l 1,20,-1
 432 288 l 1,21,-1
 346 288 l 1,22,-1
 346 157 l 1,23,-1
 278 157 l 1,24,-1
 278 548 l 1,25,-1
 425 548 l 2,26,27
 514 548 514 548 552.5 517.5 c 128,-1,28
 591 487 591 487 591 420 c 0,16,17
503.5 365 m 128,-1,30
 524 382 524 382 524 420.5 c 128,-1,31
 524 459 524 459 503 474 c 128,-1,32
 482 489 482 489 429 489 c 2,33,-1
 346 489 l 1,34,-1
 346 348 l 1,35,-1
 427 348 l 2,36,29
 483 348 483 348 503.5 365 c 128,-1,30
EndSplineSet
EndChar

StartChar: hyphen
Encoding: 45 45 86
Width: 452
Flags: HMW
HStem: 246 105<50 382 50 382>
VStem: 50 332<246 351 246 351>
LayerCount: 2
Fore
SplineSet
50 246 m 1,0,-1
 50 351 l 1,1,-1
 382 351 l 1,2,-1
 382 246 l 1,3,-1
 50 246 l 1,0,-1
EndSplineSet
EndChar

StartChar: Ucircumflex
Encoding: 219 219 87
Width: 739
Flags: HMW
HStem: -11 111<315 424.5 315 450.5> 680 20G<74 193 193 193 546 664 664 664> 757 156<198 422 198 422 320 543 320 459>
VStem: 74 119<297 313 313 700> 546 118<308 700>
LayerCount: 2
Fore
SplineSet
459 757 m 1,0,-1
 372 835 l 1,1,-1
 285 757 l 1,2,-1
 198 757 l 1,3,-1
 320 913 l 1,4,-1
 422 913 l 1,5,-1
 543 757 l 1,6,-1
 459 757 l 1,0,-1
664 700 m 1,7,-1
 664 303 l 2,8,9
 664 152 664 152 581 70.5 c 128,-1,10
 498 -11 498 -11 371.5 -11 c 0,11,12
 245 -11 245 -11 159.5 70.5 c 128,-1,13
 74 152 74 152 74 297 c 2,14,-1
 74 700 l 1,15,-1
 193 700 l 1,16,-1
 193 313 l 2,17,18
 193 215 193 215 240.5 157.5 c 128,-1,19
 288 100 288 100 370 100 c 128,-1,20
 452 100 452 100 499 155.5 c 128,-1,21
 546 211 546 211 546 308 c 2,22,-1
 546 700 l 1,23,-1
 664 700 l 1,7,-1
EndSplineSet
EndChar

StartChar: colon
Encoding: 58 58 88
Width: 209
Flags: HMW
HStem: -8 149<83.5 124.5> 237 149<83.5 124.5>
VStem: 30 149<46.5 87.5 46.5 87.5 291.5 332.5>
LayerCount: 2
Fore
SplineSet
30 67 m 128,-1,1
 30 98 30 98 51.5 119.5 c 128,-1,2
 73 141 73 141 104 141 c 128,-1,3
 135 141 135 141 157 119.5 c 128,-1,4
 179 98 179 98 179 67 c 128,-1,5
 179 36 179 36 157 14 c 128,-1,6
 135 -8 135 -8 104 -8 c 128,-1,7
 73 -8 73 -8 51.5 14 c 128,-1,0
 30 36 30 36 30 67 c 128,-1,1
30 312 m 128,-1,9
 30 343 30 343 51.5 364.5 c 128,-1,10
 73 386 73 386 104 386 c 128,-1,11
 135 386 135 386 157 364.5 c 128,-1,12
 179 343 179 343 179 312 c 128,-1,13
 179 281 179 281 157 259 c 128,-1,14
 135 237 135 237 104 237 c 128,-1,15
 73 237 73 237 51.5 259 c 128,-1,8
 30 281 30 281 30 312 c 128,-1,9
EndSplineSet
EndChar

StartChar: daggerdbl
Encoding: 8225 8225 89
Width: 493
Flags: HMW
HStem: -194 21G<195 301 195 195> 75 82<85 195 85 195 301 408> 392 102<29 195 29 195 301 471> 681 20G<195 301 301 301>
VStem: 195 106<-194 75 -194 75 157 392 494 701>
LayerCount: 2
Fore
SplineSet
301 392 m 1,0,-1
 301 157 l 1,1,-1
 408 157 l 1,2,-1
 408 75 l 1,3,-1
 301 75 l 1,4,-1
 301 -194 l 1,5,-1
 195 -194 l 1,6,-1
 195 75 l 1,7,-1
 85 75 l 1,8,-1
 85 157 l 1,9,-1
 195 157 l 1,10,-1
 195 392 l 1,11,-1
 29 392 l 1,12,-1
 29 494 l 1,13,-1
 195 494 l 1,14,-1
 195 701 l 1,15,-1
 301 701 l 1,16,-1
 301 494 l 1,17,-1
 471 494 l 1,18,-1
 471 392 l 1,19,-1
 301 392 l 1,0,-1
EndSplineSet
EndChar

StartChar: guillemotright
Encoding: 187 187 90
Width: 532
Flags: HMW
HStem: 64 352<46 154 46 154 244 352 46 244>
VStem: 46 425<64 240 240 416>
LayerCount: 2
Fore
SplineSet
359 240 m 1,0,-1
 244 416 l 1,1,-1
 352 416 l 1,2,-1
 471 240 l 1,3,-1
 352 64 l 1,4,-1
 244 64 l 1,5,-1
 359 240 l 1,0,-1
161 240 m 1,6,-1
 46 416 l 1,7,-1
 154 416 l 1,8,-1
 273 240 l 1,9,-1
 154 64 l 1,10,-1
 46 64 l 1,11,-1
 161 240 l 1,6,-1
EndSplineSet
EndChar

StartChar: semicolon
Encoding: 59 59 91
Width: 225
Flags: HMW
HStem: -1 21G<86 86> 237 149<98.5 139.5>
VStem: 45 149<291.5 332.5 291.5 332.5>
LayerCount: 2
Fore
SplineSet
49 -105 m 1,0,-1
 86 -1 l 1,1,2
 45 20 45 20 45 66 c 0,3,4
 45 98 45 98 67 119.5 c 128,-1,5
 89 141 89 141 119.5 141 c 0,6,7
 150 141 150 141 172.5 119.5 c 128,-1,8
 195 98 195 98 195 69 c 0,9,10
 195 40 195 40 168 -6 c 1,11,-1
 107 -105 l 1,12,-1
 49 -105 l 1,0,-1
45 312 m 128,-1,14
 45 343 45 343 66.5 364.5 c 128,-1,15
 88 386 88 386 119 386 c 128,-1,16
 150 386 150 386 172 364.5 c 128,-1,17
 194 343 194 343 194 312 c 128,-1,18
 194 281 194 281 172 259 c 128,-1,19
 150 237 150 237 119 237 c 128,-1,20
 88 237 88 237 66.5 259 c 128,-1,13
 45 281 45 281 45 312 c 128,-1,14
EndSplineSet
EndChar

StartChar: guillemotleft
Encoding: 171 171 92
Width: 555
Flags: HMW
HStem: 64 352<165 273 165 273 165 363 363 471>
VStem: 46 425<64 240>
LayerCount: 2
Fore
SplineSet
273 416 m 1,0,-1
 158 240 l 1,1,-1
 273 64 l 1,2,-1
 165 64 l 1,3,-1
 46 240 l 1,4,-1
 165 416 l 1,5,-1
 273 416 l 1,0,-1
471 416 m 1,6,-1
 356 240 l 1,7,-1
 471 64 l 1,8,-1
 363 64 l 1,9,-1
 244 240 l 1,10,-1
 363 416 l 1,11,-1
 471 416 l 1,6,-1
EndSplineSet
EndChar

StartChar: emdash
Encoding: 8212 8212 93
Width: 833
Flags: HMW
HStem: 227 66<55 616 55 616>
VStem: 55 561<227 293 227 293>
LayerCount: 2
Fore
SplineSet
55 227 m 1,0,-1
 55 293 l 1,1,-1
 616 293 l 1,2,-1
 616 227 l 1,3,-1
 55 227 l 1,0,-1
EndSplineSet
EndChar

StartChar: florin
Encoding: 402 402 94
Width: 615
Flags: HMW
HStem: -212 101<102 138 102 178> 325 93<187 244 175 256 371 502> 660 97<456 493> 684 20G<603 603>
VStem: -12 615
LayerCount: 2
Fore
SplineSet
359 325 m 1,0,-1
 308 -36 l 2,1,2
 297 -110 297 -110 249 -161 c 128,-1,3
 201 -212 201 -212 124 -212 c 0,4,5
 47 -212 47 -212 -12 -159 c 1,6,-1
 38 -75 l 1,7,8
 76 -111 76 -111 111.5 -111 c 0,9,10
 147 -111 147 -111 168.5 -85 c 128,-1,11
 190 -59 190 -59 195 -25 c 2,12,-1
 244 325 l 1,13,-1
 175 325 l 1,14,-1
 187 418 l 1,15,-1
 256 418 l 1,16,-1
 277 574 l 2,17,18
 288 658 288 658 345.5 707.5 c 128,-1,19
 403 757 403 757 477 757 c 0,20,21
 551 757 551 757 603 704 c 1,22,-1
 545 625 l 1,23,24
 517 660 517 660 481 660 c 0,25,26
 445 660 445 660 421.5 637 c 128,-1,27
 398 614 398 614 393 577 c 2,28,-1
 371 418 l 1,29,-1
 514 418 l 1,30,-1
 502 325 l 1,31,-1
 359 325 l 1,0,-1
EndSplineSet
EndChar

StartChar: acute
Encoding: 180 180 95
Width: 833
Flags: HMW
HStem: 628 145<338 444 338 444>
VStem: 338 224<628 724>
LayerCount: 2
Fore
SplineSet
440 628 m 1,0,-1
 338 628 l 1,1,-1
 444 773 l 1,2,-1
 562 724 l 1,3,-1
 440 628 l 1,0,-1
EndSplineSet
EndChar

StartChar: bracketright
Encoding: 93 93 96
Width: 249
Flags: HMW
HStem: -140 84<-40 98 -40 186 -40 98> 673 84<-40 186 -40 98>
VStem: 98 88<-56 673 673 673>
LayerCount: 2
Fore
SplineSet
-40 673 m 1,0,-1
 -40 757 l 1,1,-1
 186 757 l 1,2,-1
 186 -140 l 1,3,-1
 -40 -140 l 1,4,-1
 -40 -56 l 1,5,-1
 98 -56 l 1,6,-1
 98 673 l 1,7,-1
 -40 673 l 1,0,-1
EndSplineSet
EndChar

StartChar: dotlessi
Encoding: 305 305 97
Width: 292
Flags: HMW
HStem: 0 21G<90 202 90 90>
VStem: 90 112<0 532 0 532>
LayerCount: 2
Fore
SplineSet
90 532 m 1,0,-1
 202 532 l 1,1,-1
 202 0 l 1,2,-1
 90 0 l 1,3,-1
 90 532 l 1,0,-1
EndSplineSet
EndChar

StartChar: dotaccent
Encoding: 729 729 98
Width: 329
Flags: HMW
HStem: 611 149<143.5 184.5>
VStem: 90 149<665.5 706.5 665.5 706.5>
LayerCount: 2
Fore
SplineSet
90 686 m 128,-1,1
 90 717 90 717 111.5 738.5 c 128,-1,2
 133 760 133 760 164 760 c 128,-1,3
 195 760 195 760 217 738.5 c 128,-1,4
 239 717 239 717 239 686 c 128,-1,5
 239 655 239 655 217 633 c 128,-1,6
 195 611 195 611 164 611 c 128,-1,7
 133 611 133 611 111.5 633 c 128,-1,0
 90 655 90 655 90 686 c 128,-1,1
EndSplineSet
EndChar

StartChar: udieresis
Encoding: 252 252 99
Width: 654
Flags: HMW
HStem: -8 103<282 327> 0 21G<453 564 453 453> 594 123<211 245>
VStem: 80 111<207 231 231 529> 167 123<639 673 639 673> 352 123<640 674 640 674> 451 113<244 529 0 529>
LayerCount: 2
Fore
SplineSet
451 244 m 2,0,-1
 451 529 l 1,1,-1
 564 529 l 1,2,-1
 564 0 l 1,3,-1
 453 0 l 1,4,-1
 453 76 l 1,5,6
 396 -8 396 -8 286 -8 c 0,7,8
 205 -8 205 -8 142.5 48.5 c 128,-1,9
 80 105 80 105 80 207 c 2,10,-1
 80 529 l 1,11,-1
 191 529 l 1,12,-1
 191 231 l 2,13,14
 191 167 191 167 226.5 131 c 128,-1,15
 262 95 262 95 318 95 c 0,16,17
 451 95 451 95 451 244 c 2,0,-1
167 656 m 128,-1,19
 167 682 167 682 184.5 699.5 c 128,-1,20
 202 717 202 717 228 717 c 128,-1,21
 254 717 254 717 272 699.5 c 128,-1,22
 290 682 290 682 290 656 c 128,-1,23
 290 630 290 630 272 612 c 128,-1,24
 254 594 254 594 228 594 c 128,-1,25
 202 594 202 594 184.5 612 c 128,-1,18
 167 630 167 630 167 656 c 128,-1,19
370 613 m 128,-1,27
 352 631 352 631 352 656.5 c 128,-1,28
 352 682 352 682 370 700 c 128,-1,29
 388 718 388 718 413.5 718 c 128,-1,30
 439 718 439 718 457 700.5 c 128,-1,31
 475 683 475 683 475 657.5 c 128,-1,32
 475 632 475 632 456.5 613.5 c 128,-1,33
 438 595 438 595 413 595 c 128,-1,26
 388 595 388 595 370 613 c 128,-1,27
EndSplineSet
EndChar

StartChar: _121
Encoding: 65537 -1 100
Width: 654
Flags: HMW
HStem: 593 123<210 244> 594 123<395.5 429>
VStem: 166 123<638 672 638 672> 351 123<639 673 639 673>
LayerCount: 2
Fore
SplineSet
183.5 611 m 128,-1,1
 166 629 166 629 166 654.5 c 128,-1,2
 166 680 166 680 184 698 c 128,-1,3
 202 716 202 716 227.5 716 c 128,-1,4
 253 716 253 716 271 698.5 c 128,-1,5
 289 681 289 681 289 655.5 c 128,-1,6
 289 630 289 630 270.5 611.5 c 128,-1,7
 252 593 252 593 226.5 593 c 128,-1,0
 201 593 201 593 183.5 611 c 128,-1,1
369 612 m 128,-1,9
 351 630 351 630 351 655.5 c 128,-1,10
 351 681 351 681 369 699 c 128,-1,11
 387 717 387 717 412.5 717 c 128,-1,12
 438 717 438 717 456 699.5 c 128,-1,13
 474 682 474 682 474 656 c 128,-1,14
 474 630 474 630 456 612 c 128,-1,15
 438 594 438 594 412.5 594 c 128,-1,8
 387 594 387 594 369 612 c 128,-1,9
EndSplineSet
EndChar

StartChar: tilde
Encoding: 732 732 101
Width: 833
Flags: HMW
HStem: 739 136<473 475> 742 136<253 255 178 302>
VStem: 178 77<742 786.5> 473 77<830.5 875>
LayerCount: 2
Fore
SplineSet
550 875 m 1,0,1
 550 810 550 810 521 774.5 c 128,-1,2
 492 739 492 739 445 739 c 0,3,4
 418 739 418 739 397 747.5 c 128,-1,5
 376 756 376 756 333 783 c 1,6,7
 308 797 308 797 292.5 797 c 0,8,9
 262.333333333 797 262.333333333 797 255 742 c 1,10,-1
 178 742 l 1,11,12
 178 807 178 807 207 842.5 c 128,-1,13
 236 878 236 878 283 878 c 0,14,15
 310 878 310 878 330.5 869.5 c 128,-1,16
 351 861 351 861 384.5 840.5 c 128,-1,17
 418 820 418 820 434.5 820 c 128,-1,18
 451 820 451 820 460 832.5 c 128,-1,19
 469 845 469 845 473 875 c 1,20,-1
 550 875 l 1,0,1
EndSplineSet
EndChar

StartChar: ntilde
Encoding: 241 241 102
Width: 629
Flags: HMW
HStem: 0 21G<80 192 80 80 458 458 458 570> 439 101<332.5 374.5> 597 69<389.5 403.5 389.5 429.5> 597 117<428 429.5> 600 116<239.5 241 175 281.5> 647 69<265 279>
VStem: 80 112<0 288 435 532> 175 66<600 638> 428 66<675.5 714> 458 112<0 292 292 326 0 343>
LayerCount: 2
Fore
SplineSet
494 714 m 1,0,1
 494 658 494 658 469 627.5 c 128,-1,2
 444 597 444 597 404 597 c 0,3,4
 380 597 380 597 362 604.5 c 128,-1,5
 344 612 344 612 308 635 c 1,6,7
 287 647 287 647 274 647 c 0,8,9
 246 647 246 647 241 600 c 1,10,-1
 175 600 l 1,11,12
 175 655 175 655 200 685.5 c 128,-1,13
 225 716 225 716 265 716 c 0,14,15
 288 716 288 716 306 708.5 c 128,-1,16
 324 701 324 701 361 678 c 1,17,18
 383 666 383 666 394 666 c 0,19,20
 423 666 423 666 428 714 c 1,21,-1
 494 714 l 1,0,1
192 288 m 2,22,-1
 192 0 l 1,23,-1
 80 0 l 1,24,-1
 80 532 l 1,25,-1
 192 532 l 1,26,-1
 192 435 l 1,27,28
 219 484 219 484 266.5 512 c 128,-1,29
 314 540 314 540 369 540 c 0,30,31
 459 540 459 540 514.5 485 c 128,-1,32
 570 430 570 430 570 326 c 2,33,-1
 570 0 l 1,34,-1
 458 0 l 1,35,-1
 458 292 l 2,36,37
 458 439 458 439 336 439 c 0,38,39
 278 439 278 439 235 400.5 c 128,-1,40
 192 362 192 362 192 288 c 2,22,-1
EndSplineSet
EndChar

StartChar: Udieresis
Encoding: 220 220 103
Width: 760
Flags: HMW
HStem: -8 110<324.5 433.5 324.5 468> 679 20G<85 203 203 203 554 672 672 672> 752 142<259.5 298.5>
VStem: 85 118<298 304 304 699> 209 141<804 843.5 804 843.5> 421 142<805 844.5 805 844.5> 554 118<299 304 304 699>
LayerCount: 2
Fore
SplineSet
672 699 m 1,0,-1
 672 304 l 2,1,2
 672 151 672 151 594 71.5 c 128,-1,3
 516 -8 516 -8 377.5 -8 c 128,-1,4
 239 -8 239 -8 162 70.5 c 128,-1,5
 85 149 85 149 85 298 c 2,6,-1
 85 699 l 1,7,-1
 203 699 l 1,8,-1
 203 304 l 2,9,10
 203 208 203 208 250 155 c 128,-1,11
 297 102 297 102 379.5 102 c 128,-1,12
 462 102 462 102 508 153 c 128,-1,13
 554 204 554 204 554 299 c 2,14,-1
 554 699 l 1,15,-1
 672 699 l 1,0,-1
229.5 772.5 m 128,-1,17
 209 793 209 793 209 823 c 128,-1,18
 209 853 209 853 229.5 873.5 c 128,-1,19
 250 894 250 894 279.5 894 c 128,-1,20
 309 894 309 894 329.5 873.5 c 128,-1,21
 350 853 350 853 350 823.5 c 128,-1,22
 350 794 350 794 329 773 c 128,-1,23
 308 752 308 752 279 752 c 128,-1,16
 250 752 250 752 229.5 772.5 c 128,-1,17
442 774 m 128,-1,25
 421 795 421 795 421 824.5 c 128,-1,26
 421 854 421 854 442 875 c 128,-1,27
 463 896 463 896 492.5 896 c 128,-1,28
 522 896 522 896 542.5 875 c 128,-1,29
 563 854 563 854 563 824.5 c 128,-1,30
 563 795 563 795 542 774 c 128,-1,31
 521 753 521 753 492 753 c 128,-1,24
 463 753 463 753 442 774 c 128,-1,25
EndSplineSet
EndChar

StartChar: dieresis
Encoding: 168 168 104
Width: 610
Flags: HMW
HStem: 600 123<210 244>
VStem: 166 123<645 679 645 679> 351 123<646 680 646 680>
LayerCount: 2
Fore
SplineSet
166 662 m 128,-1,1
 166 688 166 688 184 705.5 c 128,-1,2
 202 723 202 723 227.5 723 c 128,-1,3
 253 723 253 723 271 705.5 c 128,-1,4
 289 688 289 688 289 662 c 128,-1,5
 289 636 289 636 270.5 618 c 128,-1,6
 252 600 252 600 226.5 600 c 128,-1,7
 201 600 201 600 183.5 618 c 128,-1,0
 166 636 166 636 166 662 c 128,-1,1
369 619 m 128,-1,9
 351 637 351 637 351 662.5 c 128,-1,10
 351 688 351 688 369 706 c 128,-1,11
 387 724 387 724 412.5 724 c 128,-1,12
 438 724 438 724 456 706.5 c 128,-1,13
 474 689 474 689 474 663.5 c 128,-1,14
 474 638 474 638 456 619.5 c 128,-1,15
 438 601 438 601 412.5 601 c 128,-1,8
 387 601 387 601 369 619 c 128,-1,9
EndSplineSet
EndChar

StartChar: idieresis
Encoding: 239 239 105
Width: 292
Flags: HMW
HStem: 0 21G<90 202 90 90> 593 123<36 70> 594 123<221.5 255>
VStem: -8 123<638 672 638 672> 90 112<0 532 0 532> 177 123<639 673 639 673>
LayerCount: 2
Fore
SplineSet
90 532 m 1,0,-1
 202 532 l 1,1,-1
 202 0 l 1,2,-1
 90 0 l 1,3,-1
 90 532 l 1,0,-1
9.5 611 m 128,-1,5
 -8 629 -8 629 -8 654.5 c 128,-1,6
 -8 680 -8 680 10 698 c 128,-1,7
 28 716 28 716 53.5 716 c 128,-1,8
 79 716 79 716 97 698.5 c 128,-1,9
 115 681 115 681 115 655.5 c 128,-1,10
 115 630 115 630 96.5 611.5 c 128,-1,11
 78 593 78 593 52.5 593 c 128,-1,4
 27 593 27 593 9.5 611 c 128,-1,5
195 612 m 128,-1,13
 177 630 177 630 177 655.5 c 128,-1,14
 177 681 177 681 195 699 c 128,-1,15
 213 717 213 717 238.5 717 c 128,-1,16
 264 717 264 717 282 699.5 c 128,-1,17
 300 682 300 682 300 656 c 128,-1,18
 300 630 300 630 282 612 c 128,-1,19
 264 594 264 594 238.5 594 c 128,-1,12
 213 594 213 594 195 612 c 128,-1,13
EndSplineSet
EndChar

StartChar: quotesingle
Encoding: 39 39 106
Width: 178
Flags: HMW
HStem: 453 246<54 132 54 132> 679 20G<54 132 132 132>
VStem: 54 78<453 699 453 699>
LayerCount: 2
Fore
SplineSet
54 453 m 1,0,-1
 54 699 l 1,1,-1
 132 699 l 1,2,-1
 132 453 l 1,3,-1
 54 453 l 1,0,-1
EndSplineSet
EndChar

StartChar: eacute
Encoding: 233 233 107
Width: 614
Flags: HMW
HStem: -8 96<287 354.5 287 356.5> 217 88<162 467 162 579 162 467> 444 96<284 360> 678 20G<488 488> 727 20G<370 370>
VStem: 50 112<217 217 305 350> 467 112<217 352.5>
LayerCount: 2
Fore
SplineSet
579 217 m 1,0,-1
 162 217 l 1,1,2
 166 159 166 159 215 123.5 c 128,-1,3
 264 88 264 88 327 88 c 0,4,5
 427 88 427 88 479 151 c 1,6,-1
 543 81 l 1,7,8
 457 -8 457 -8 319 -8 c 0,9,10
 207 -8 207 -8 128.5 66.5 c 128,-1,11
 50 141 50 141 50 266.5 c 0,12,13
 50 392 50 392 130 466 c 128,-1,14
 210 540 210 540 318.5 540 c 0,15,16
 427 540 427 540 503 474.5 c 128,-1,17
 579 409 579 409 579 294 c 2,18,-1
 579 217 l 1,0,-1
162 305 m 1,19,-1
 467 305 l 1,20,21
 467 372 467 372 425 408 c 128,-1,22
 383 444 383 444 321.5 444 c 0,23,24
 260 444 260 444 211 406.5 c 128,-1,25
 162 369 162 369 162 305 c 1,19,-1
366 602 m 1,26,-1
 264 602 l 1,27,-1
 370 747 l 1,28,-1
 488 698 l 1,29,-1
 366 602 l 1,26,-1
EndSplineSet
EndChar

StartChar: aacute
Encoding: 225 225 108
Width: 611
Flags: HMW
HStem: -8 95<249.5 292> 0 21G<429 531 429 429> 243 78<275 293 293 419> 447 93<279.5 334.5> 724 20G<355 355>
VStem: 60 112<140 196.5 140 218.5> 429 102<0 71 71 71>
LayerCount: 2
Fore
SplineSet
531 0 m 1,0,-1
 429 0 l 1,1,-1
 429 71 l 1,2,3
 363 -8 363 -8 252 -8 c 0,4,5
 169 -8 169 -8 114.5 39 c 128,-1,6
 60 86 60 86 60 164.5 c 0,7,8
 60 243 60 243 118 282 c 128,-1,9
 176 321 176 321 275 321 c 2,10,-1
 420 321 l 1,11,-1
 420 341 l 2,12,13
 420 447 420 447 302 447 c 0,14,15
 228 447 228 447 148 393 c 1,16,-1
 98 463 l 1,17,18
 195 540 195 540 318 540 c 0,19,20
 412 540 412 540 471.5 492.5 c 128,-1,21
 531 445 531 445 531 343 c 2,22,-1
 531 0 l 1,0,-1
419 198 m 2,23,-1
 419 243 l 1,24,-1
 293 243 l 2,25,26
 172 243 172 243 172 167 c 0,27,28
 172 128 172 128 202 107.5 c 128,-1,29
 232 87 232 87 285.5 87 c 0,30,31
 339 87 339 87 379 117 c 128,-1,32
 419 147 419 147 419 198 c 2,23,-1
351 599 m 1,33,-1
 249 599 l 1,34,-1
 355 744 l 1,35,-1
 473 695 l 1,36,-1
 351 599 l 1,33,-1
EndSplineSet
EndChar

StartChar: iacute
Encoding: 237 237 109
Width: 292
Flags: HMW
HStem: 0 21G<90 202 90 90>
VStem: 90 112<0 532 0 532>
LayerCount: 2
Fore
SplineSet
90 532 m 1,0,-1
 202 532 l 1,1,-1
 202 0 l 1,2,-1
 90 0 l 1,3,-1
 90 532 l 1,0,-1
190 600 m 1,4,-1
 96 600 l 1,5,-1
 202 740 l 1,6,-1
 312 691 l 1,7,-1
 190 600 l 1,4,-1
EndSplineSet
EndChar

StartChar: oacute
Encoding: 243 243 110
Width: 663
Flags: HMW
HStem: -8 100<281.5 378.5 281.5 411> 440 100<281.5 378.5> 725 20G<381 381>
VStem: 50 112<214.5 317.5 214.5 342> 498 112<214.5 317.5>
LayerCount: 2
Fore
SplineSet
330 92 m 128,-1,1
 403 92 403 92 450.5 140.5 c 128,-1,2
 498 189 498 189 498 266 c 128,-1,3
 498 343 498 343 450.5 391.5 c 128,-1,4
 403 440 403 440 330 440 c 128,-1,5
 257 440 257 440 209.5 391.5 c 128,-1,6
 162 343 162 343 162 266 c 128,-1,7
 162 189 162 189 209.5 140.5 c 128,-1,0
 257 92 257 92 330 92 c 128,-1,1
330 -8 m 128,-1,9
 210 -8 210 -8 130 71.5 c 128,-1,10
 50 151 50 151 50 266 c 128,-1,11
 50 381 50 381 130 460.5 c 128,-1,12
 210 540 210 540 330 540 c 128,-1,13
 450 540 450 540 530 460.5 c 128,-1,14
 610 381 610 381 610 266 c 128,-1,15
 610 151 610 151 530 71.5 c 128,-1,8
 450 -8 450 -8 330 -8 c 128,-1,9
377 600 m 1,16,-1
 275 600 l 1,17,-1
 381 745 l 1,18,-1
 499 696 l 1,19,-1
 377 600 l 1,16,-1
EndSplineSet
EndChar

StartChar: uacute
Encoding: 250 250 111
Width: 654
Flags: HMW
HStem: -8 101<268.5 310.5> 0 21G<451 563 451 451> 678 20G<472 472> 727 20G<354 354>
VStem: 73 112<206 240 240 532> 451 112<0 97 97 97 244 532 0 532>
LayerCount: 2
Fore
SplineSet
451 244 m 2,0,-1
 451 532 l 1,1,-1
 563 532 l 1,2,-1
 563 0 l 1,3,-1
 451 0 l 1,4,-1
 451 97 l 1,5,6
 424 48 424 48 376.5 20 c 128,-1,7
 329 -8 329 -8 274 -8 c 0,8,9
 184 -8 184 -8 128.5 47 c 128,-1,10
 73 102 73 102 73 206 c 2,11,-1
 73 532 l 1,12,-1
 185 532 l 1,13,-1
 185 240 l 2,14,15
 185 93 185 93 307 93 c 0,16,17
 365 93 365 93 408 131.5 c 128,-1,18
 451 170 451 170 451 244 c 2,0,-1
350 602 m 1,19,-1
 248 602 l 1,20,-1
 354 747 l 1,21,-1
 472 698 l 1,22,-1
 350 602 l 1,19,-1
EndSplineSet
EndChar

StartChar: _127
Encoding: 65538 -1 112
Width: 292
Flags: HMW
HStem: 695 20G<312 312>
VStem: 96 216<624 715>
LayerCount: 2
Fore
SplineSet
190 624 m 1,0,-1
 96 624 l 1,1,-1
 202 764 l 1,2,-1
 312 715 l 1,3,-1
 190 624 l 1,0,-1
EndSplineSet
EndChar

StartChar: Aacute
Encoding: 193 193 113
Width: 780
Flags: HMW
HStem: 2 21G 159 109<263 502 263 549 214 502> 680 20G
LayerCount: 2
Fore
SplineSet
442 699 m 1,0,-1
 750 0 l 1,1,-1
 620 0 l 1,2,-1
 549 159 l 1,3,-1
 214 159 l 1,4,-1
 146 0 l 1,5,-1
 20 0 l 1,6,-1
 328 699 l 1,7,-1
 442 699 l 1,0,-1
502 268 m 1,8,-1
 382 537 l 1,9,-1
 263 268 l 1,10,-1
 502 268 l 1,8,-1
445 758 m 1,11,-1
 343 758 l 1,12,-1
 449 903 l 1,13,-1
 567 854 l 1,14,-1
 445 758 l 1,11,-1
EndSplineSet
EndChar

StartChar: Eacute
Encoding: 201 201 114
Width: 673
Flags: HMW
HStem: 0 111<218 603 218 603> 298 105<218 553 218 553> 588 111<218 591 218 218>
VStem: 100 118<111 298 403 588>
LayerCount: 2
Fore
SplineSet
591 699 m 1,0,-1
 591 588 l 1,1,-1
 218 588 l 1,2,-1
 218 403 l 1,3,-1
 553 403 l 1,4,-1
 553 298 l 1,5,-1
 218 298 l 1,6,-1
 218 111 l 1,7,-1
 603 111 l 1,8,-1
 603 0 l 1,9,-1
 100 0 l 1,10,-1
 100 699 l 1,11,-1
 591 699 l 1,0,-1
386 757 m 1,12,-1
 284 757 l 1,13,-1
 390 902 l 1,14,-1
 508 853 l 1,15,-1
 386 757 l 1,12,-1
EndSplineSet
EndChar

StartChar: Iacute
Encoding: 205 205 115
Width: 318
Flags: HMW
HStem: 0 21G<100 218 100 100> 679 20G<100 218 218 218>
VStem: 100 118<0 699 0 699>
LayerCount: 2
Fore
SplineSet
100 699 m 1,0,-1
 218 699 l 1,1,-1
 218 0 l 1,2,-1
 100 0 l 1,3,-1
 100 699 l 1,0,-1
209 757 m 1,4,-1
 107 757 l 1,5,-1
 213 902 l 1,6,-1
 331 853 l 1,7,-1
 209 757 l 1,4,-1
EndSplineSet
EndChar

StartChar: Oacute
Encoding: 211 211 116
Width: 832
Flags: HMW
HStem: -7 108<346 486 346 519.5> 608 108<346 486>
VStem: 48 121<284.5 424 284.5 458> 663 121<284.5 424>
LayerCount: 2
Fore
SplineSet
416 608 m 128,-1,1
 312 608 312 608 240.5 534 c 128,-1,2
 169 460 169 460 169 354.5 c 0,3,4
 169 249 169 249 240.5 175 c 128,-1,5
 312 101 312 101 416 101 c 128,-1,6
 520 101 520 101 591.5 175 c 128,-1,7
 663 249 663 249 663 354.5 c 0,8,9
 663 460 663 460 591.5 534 c 128,-1,0
 520 608 520 608 416 608 c 128,-1,1
416 -7 m 128,-1,11
 260 -7 260 -7 154 96.5 c 128,-1,12
 48 200 48 200 48 354.5 c 0,13,14
 48 509 48 509 154 612.5 c 128,-1,15
 260 716 260 716 416 716 c 128,-1,16
 572 716 572 716 678 612.5 c 128,-1,17
 784 509 784 509 784 354.5 c 0,18,19
 784 200 784 200 678 96.5 c 128,-1,10
 572 -7 572 -7 416 -7 c 128,-1,11
438 757 m 1,20,-1
 336 757 l 1,21,-1
 442 902 l 1,22,-1
 560 853 l 1,23,-1
 438 757 l 1,20,-1
EndSplineSet
EndChar

StartChar: Uacute
Encoding: 218 218 117
Width: 750
Flags: HMW
HStem: -11 111<321 430.5 321 456.5> 680 20G<80 199 199 199 552 670 670 670>
VStem: 80 119<297 313 313 700> 552 118<308 700>
LayerCount: 2
Fore
SplineSet
670 700 m 1,0,-1
 670 303 l 2,1,2
 670 152 670 152 587 70.5 c 128,-1,3
 504 -11 504 -11 377.5 -11 c 0,4,5
 251 -11 251 -11 165.5 70.5 c 128,-1,6
 80 152 80 152 80 297 c 2,7,-1
 80 700 l 1,8,-1
 199 700 l 1,9,-1
 199 313 l 2,10,11
 199 215 199 215 246.5 157.5 c 128,-1,12
 294 100 294 100 376 100 c 128,-1,13
 458 100 458 100 505 155.5 c 128,-1,14
 552 211 552 211 552 308 c 2,15,-1
 552 700 l 1,16,-1
 670 700 l 1,0,-1
406 758 m 1,17,-1
 304 758 l 1,18,-1
 410 903 l 1,19,-1
 528 854 l 1,20,-1
 406 758 l 1,17,-1
EndSplineSet
EndChar

StartChar: Ntilde
Encoding: 209 209 118
Width: 842
Flags: HMW
HStem: 0 21G<100 218 100 100 614 742 614 614> 679 20G<100 218 218 218 624 742 742 742> 754 136<531 533> 757 136<311 313 236 360>
VStem: 100 118<0 510 0 699> 236 77<757 801.5> 531 77<845.5 890> 624 118<177 699 0 699>
LayerCount: 2
Fore
SplineSet
624 177 m 1,0,-1
 624 699 l 1,1,-1
 742 699 l 1,2,-1
 742 0 l 1,3,-1
 614 0 l 1,4,-1
 218 510 l 1,5,-1
 218 0 l 1,6,-1
 100 0 l 1,7,-1
 100 699 l 1,8,-1
 218 699 l 1,9,-1
 624 177 l 1,0,-1
608 890 m 1,10,11
 608 825 608 825 579 789.5 c 128,-1,12
 550 754 550 754 503 754 c 0,13,14
 476 754 476 754 455 763 c 128,-1,15
 434 772 434 772 400.5 792 c 0,16,17
 367 812 367 812 351 812 c 0,18,19
 335 812 335 812 326 799.5 c 128,-1,20
 317 787 317 787 313 757 c 1,21,-1
 236 757 l 1,22,23
 236 822 236 822 265 857.5 c 128,-1,24
 294 893 294 893 341 893 c 0,25,26
 368 893 368 893 388.5 884.5 c 128,-1,27
 409 876 409 876 442.5 855.5 c 0,28,29
 476 835 476 835 492.5 835 c 0,30,31
 509 835 509 835 518 847.5 c 128,-1,32
 527 860 527 860 531 890 c 1,33,-1
 608 890 l 1,10,11
EndSplineSet
EndChar

StartChar: questiondown
Encoding: 191 191 119
Width: 519
Flags: HMW
HStem: -7 104<229.5 280.5 229.5 309.5> 564 148<237.5 278 237 279>
VStem: 50 119<159 195.5 159 218> 181 154<618.5 657.5> 203 113<445 490 401 490>
LayerCount: 2
Fore
SplineSet
203 490 m 1,0,-1
 316 490 l 1,1,-1
 316 429 l 2,2,3
 316 389 316 389 306.5 369.5 c 128,-1,4
 297 350 297 350 265 318 c 2,5,-1
 192 245 l 1,6,7
 169 220 169 220 169 183 c 128,-1,8
 169 146 169 146 193 121.5 c 128,-1,9
 217 97 217 97 255 97 c 128,-1,10
 293 97 293 97 318.5 120.5 c 128,-1,11
 344 144 344 144 348 183 c 1,12,-1
 469 183 l 1,13,14
 459 94 459 94 399.5 43.5 c 128,-1,15
 340 -7 340 -7 251 -7 c 128,-1,16
 162 -7 162 -7 106 41.5 c 128,-1,17
 50 90 50 90 50 177 c 0,18,19
 50 237 50 237 82.5 277 c 0,20,21
 102 301 102 301 112 311 c 128,-1,22
 122 321 122 321 138.5 336.5 c 128,-1,23
 155 352 155 352 166.5 363.5 c 128,-1,24
 178 375 178 375 185 383.5 c 0,25,26
 203 405.357142857 203 405.357142857 203 445 c 2,27,-1
 203 490 l 1,0,-1
312 690.5 m 128,-1,29
 335 669 335 669 335 638.5 c 128,-1,30
 335 608 335 608 312.5 586 c 128,-1,31
 290 564 290 564 258.5 564 c 128,-1,32
 227 564 227 564 204 585.5 c 128,-1,33
 181 607 181 607 181 637.5 c 128,-1,34
 181 668 181 668 203.5 690 c 128,-1,35
 226 712 226 712 257.5 712 c 128,-1,28
 289 712 289 712 312 690.5 c 128,-1,29
EndSplineSet
EndChar

StartChar: a42
Encoding: 10031 10031 120
Width: 833
Flags: HMW
HStem: 31 657<204 418 418 631>
VStem: 72 691<437 437>
LayerCount: 2
Fore
SplineSet
336 437 m 1,0,-1
 418 688 l 1,1,-1
 499 437 l 1,2,-1
 763 437 l 1,3,-1
 549 282 l 1,4,-1
 631 31 l 1,5,-1
 418 186 l 1,6,-1
 204 31 l 1,7,-1
 286 282 l 1,8,-1
 72 437 l 1,9,-1
 336 437 l 1,0,-1
EndSplineSet
EndChar

StartChar: fi
Encoding: 64257 64257 121
Width: 710
Flags: HMW
HStem: 0 21G<137 249 137 137 505 505 505 617> 439 93<50 137 50 137 249 355> 728 99<337 428.5>
VStem: 137 112<0 439 0 439 532 576 576 583> 505 112<0 532>
LayerCount: 2
Fore
SplineSet
609 673 m 1,0,-1
 505 625 l 1,1,2
 479 728 479 728 388 728 c 0,3,4
 317 728 317 728 283 685.5 c 128,-1,5
 249 643 249 643 249 583 c 2,6,-1
 249 532 l 1,7,-1
 355 532 l 1,8,-1
 355 439 l 1,9,-1
 249 439 l 1,10,-1
 249 0 l 1,11,-1
 137 0 l 1,12,-1
 137 439 l 1,13,-1
 50 439 l 1,14,-1
 50 532 l 1,15,-1
 137 532 l 1,16,-1
 137 576 l 2,17,18
 137 684 137 684 207 755.5 c 128,-1,19
 277 827 277 827 392 827 c 0,20,21
 470 827 470 827 527.5 784.5 c 128,-1,22
 585 742 585 742 609 673 c 1,0,-1
617 0 m 1,23,-1
 505 0 l 1,24,-1
 505 532 l 1,25,-1
 617 532 l 1,26,-1
 617 0 l 1,23,-1
EndSplineSet
Ligature2: "'liga' Standard Ligatures lookup 0 subtable" f i
EndChar

StartChar: eth
Encoding: 240 240 122
Width: 626
Flags: HMW
HStem: -8 98<271 357.5 271 396> 374 98<271 326 240.5 357.5> 682 20G<163 163> 728 20G<416 416> 737 20G<258 258>
VStem: 66 109<194.5 269 194.5 303.5> 454 109<194.5 269>
LayerCount: 2
Fore
SplineSet
415 437 m 1,0,1
 376.956521739 500.043478261 376.956521739 500.043478261 292 585 c 1,2,-1
 199 526 l 1,3,-1
 142 580 l 1,4,-1
 236 640 l 1,5,6
 234 643 234 643 163 702 c 1,7,-1
 258 757 l 1,8,9
 294 729 294 729 331 694 c 1,10,-1
 416 748 l 1,11,-1
 475 694 l 1,12,-1
 387 637 l 1,13,14
 563 446 563 446 563 267 c 0,15,16
 563 144 563 144 498 68 c 128,-1,17
 433 -8 433 -8 321 -8 c 128,-1,18
 209 -8 209 -8 137.5 59 c 128,-1,19
 66 126 66 126 66 231.5 c 128,-1,20
 66 337 66 337 136 404.5 c 128,-1,21
 206 472 206 472 305 472 c 0,22,23
 376 472 376 472 413 435 c 1,24,-1
 415 437 l 1,0,1
213.5 131.5 m 128,-1,26
 252 90 252 90 314.5 90 c 128,-1,27
 377 90 377 90 415.5 131.5 c 128,-1,28
 454 173 454 173 454 231.5 c 128,-1,29
 454 290 454 290 415.5 332 c 128,-1,30
 377 374 377 374 314.5 374 c 128,-1,31
 252 374 252 374 213.5 332 c 128,-1,32
 175 290 175 290 175 231.5 c 128,-1,25
 175 173 175 173 213.5 131.5 c 128,-1,26
EndSplineSet
EndChar

StartChar: Lslash
Encoding: 321 321 123
Width: 567
Flags: HMW
HStem: 0 112<218 537 218 537> 679 20G<100 218 218 218>
VStem: 100 118<112 224 224 224 366 699>
LayerCount: 2
Fore
SplineSet
8 196 m 1,0,-1
 8 301 l 1,1,-1
 100 329 l 1,2,-1
 100 699 l 1,3,-1
 218 699 l 1,4,-1
 218 366 l 1,5,-1
 424 430 l 1,6,-1
 424 325 l 1,7,-1
 218 261 l 1,8,-1
 218 112 l 1,9,-1
 537 112 l 1,10,-1
 537 0 l 1,11,-1
 100 0 l 1,12,-1
 100 224 l 1,13,-1
 8 196 l 1,0,-1
EndSplineSet
EndChar

StartChar: lslash
Encoding: 322 322 124
Width: 292
Flags: HMW
HStem: 0 21G<90 202 90 90> 679 20G<90 202 202 202>
VStem: 90 112<0 239 239 239 375 699>
LayerCount: 2
Fore
SplineSet
8 216 m 1,0,-1
 8 321 l 1,1,-1
 90 344 l 1,2,-1
 90 699 l 1,3,-1
 202 699 l 1,4,-1
 202 375 l 1,5,-1
 277 397 l 1,6,-1
 277 292 l 1,7,-1
 202 270 l 1,8,-1
 202 0 l 1,9,-1
 90 0 l 1,10,-1
 90 239 l 1,11,-1
 8 216 l 1,0,-1
EndSplineSet
EndChar

StartChar: Scaron
Encoding: 352 352 125
Width: 642
Flags: HMW
HStem: -8 111<302.5 384 302.5 417> 610 110<280.5 348.5> 757 156<156 380 156 278>
VStem: 78 124<497.5 548.5 497.5 576> 471 123<166 218.5>
LayerCount: 2
Fore
SplineSet
330 830 m 1,0,-1
 407 913 l 1,1,-1
 501 913 l 1,2,-1
 380 757 l 1,3,-1
 278 757 l 1,4,-1
 156 913 l 1,5,-1
 253 913 l 1,6,-1
 330 830 l 1,0,-1
233 586 m 128,-1,8
 202 562 202 562 202 522.5 c 128,-1,9
 202 483 202 483 235.5 460 c 128,-1,10
 269 437 269 437 377 411 c 128,-1,11
 485 385 485 385 539.5 337.5 c 128,-1,12
 594 290 594 290 594 198 c 128,-1,13
 594 106 594 106 525 49 c 128,-1,14
 456 -8 456 -8 343 -8 c 0,15,16
 178 -8 178 -8 50 106 c 1,17,-1
 125 195 l 1,18,19
 231 103 231 103 346 103 c 0,20,21
 403 103 403 103 437 127.5 c 128,-1,22
 471 152 471 152 471 192.5 c 128,-1,23
 471 233 471 233 439 256 c 128,-1,24
 407 279 407 279 299 305 c 128,-1,25
 191 331 191 331 134.5 376 c 128,-1,26
 78 421 78 421 78 513.5 c 128,-1,27
 78 606 78 606 145.5 663 c 128,-1,28
 213 720 213 720 319 720 c 0,29,30
 462 720 462 720 576 641 c 1,31,-1
 510 546 l 1,32,33
 424 610 424 610 317 610 c 0,34,7
 264 610 264 610 233 586 c 128,-1,8
EndSplineSet
EndChar

StartChar: caron
Encoding: 711 711 126
Width: 593
Flags: HMW
HStem: 760 156<147 371 147 269>
VStem: 147 345<916 916>
LayerCount: 2
Fore
SplineSet
321 833 m 1,0,-1
 398 916 l 1,1,-1
 492 916 l 1,2,-1
 371 760 l 1,3,-1
 269 760 l 1,4,-1
 147 916 l 1,5,-1
 244 916 l 1,6,-1
 321 833 l 1,0,-1
EndSplineSet
EndChar

StartChar: scaron
Encoding: 353 353 127
Width: 530
Flags: HMW
HStem: -8 97<226 279 226 305> 446 94<223.5 271.5> 586 156<103 327 103 225>
VStem: 51 108<364.5 408 364.5 428> 335 111<133.5 172.5>
LayerCount: 2
Fore
SplineSet
391 37.5 m 128,-1,1
 336 -8 336 -8 250 -8 c 0,2,3
 192 -8 192 -8 129.5 13 c 128,-1,4
 67 34 67 34 19 72 c 1,5,-1
 73 159 l 1,6,7
 166 89 166 89 253 89 c 0,8,9
 291 89 291 89 313 106.5 c 128,-1,10
 335 124 335 124 335 151 c 0,11,12
 335 191 335 191 228.948230768 223.364796922 c 0,13,14
 221 226 221 226 217 227 c 0,15,16
 51 272 51 272 51 377 c 0,17,18
 51 451 51 451 108.5 495.5 c 128,-1,19
 166 540 166 540 258 540 c 128,-1,20
 350 540 350 540 432 486 c 1,21,-1
 390 403 l 1,22,23
 326 446 326 446 249 446 c 0,24,25
 209 446 209 446 184 431.5 c 128,-1,26
 159 417 159 417 159 388 c 0,27,28
 159 361.571428571 159 361.571428571 185 349.5 c 0,29,30
 202.5 341.375 202.5 341.375 235.25 333.1875 c 128,-1,31
 268 325 268 325 293 317 c 128,-1,32
 318 309 318 309 341.5 299 c 128,-1,33
 365 289 365 289 392 271 c 0,34,35
 446 235 446 235 446 159 c 128,-1,0
 446 83 446 83 391 37.5 c 128,-1,1
277 659 m 1,36,-1
 354 742 l 1,37,-1
 448 742 l 1,38,-1
 327 586 l 1,39,-1
 225 586 l 1,40,-1
 103 742 l 1,41,-1
 200 742 l 1,42,-1
 277 659 l 1,36,-1
EndSplineSet
EndChar

StartChar: Zcaron
Encoding: 381 381 128
Width: 693
Flags: HMW
HStem: 0 109<225 637 225 637> 591 108<73 467 73 631> 757 156<174 398 174 296>
VStem: 60 577<0 91 91 91>
LayerCount: 2
Fore
SplineSet
467 591 m 1,0,-1
 73 591 l 1,1,-1
 73 699 l 1,2,-1
 631 699 l 1,3,-1
 631 607 l 1,4,-1
 225 112 l 1,5,-1
 225 109 l 1,6,-1
 637 109 l 1,7,-1
 637 0 l 1,8,-1
 60 0 l 1,9,-1
 60 91 l 1,10,-1
 467 588 l 1,11,-1
 467 591 l 1,0,-1
348 830 m 1,12,-1
 425 913 l 1,13,-1
 519 913 l 1,14,-1
 398 757 l 1,15,-1
 296 757 l 1,16,-1
 174 913 l 1,17,-1
 271 913 l 1,18,-1
 348 830 l 1,12,-1
EndSplineSet
EndChar

StartChar: zcaron
Encoding: 382 382 129
Width: 536
Flags: HMW
HStem: 0 97<187 502 187 502> 434 96<70 341 70 486> 586 156<113 337 113 235>
VStem: 50 452<0 97 0 109 0 109>
LayerCount: 2
Fore
SplineSet
341 434 m 1,0,-1
 70 434 l 1,1,-1
 70 530 l 1,2,-1
 486 530 l 1,3,-1
 486 429 l 1,4,-1
 187 97 l 1,5,-1
 502 97 l 1,6,-1
 502 0 l 1,7,-1
 50 0 l 1,8,-1
 50 109 l 1,9,-1
 341 434 l 1,0,-1
287 659 m 1,10,-1
 364 742 l 1,11,-1
 458 742 l 1,12,-1
 337 586 l 1,13,-1
 235 586 l 1,14,-1
 113 742 l 1,15,-1
 210 742 l 1,16,-1
 287 659 l 1,10,-1
EndSplineSet
EndChar

StartChar: paragraph
Encoding: 182 182 130
Width: 764
Flags: HMW
HStem: 662 95<399 511 399 399>
VStem: 309 90<-112 367 367 367> 511 93<-112 662 662 662>
LayerCount: 2
Fore
SplineSet
67 556 m 0,0,1
 67 641 67 641 126 699 c 128,-1,2
 185 757 185 757 305 757 c 2,3,-1
 604 757 l 1,4,-1
 604 -112 l 1,5,-1
 511 -112 l 1,6,-1
 511 662 l 1,7,-1
 399 662 l 1,8,-1
 399 -112 l 1,9,-1
 309 -112 l 1,10,-1
 309 367 l 1,11,12
 285 364 285 364 263 364 c 0,13,14
 208 364 208 364 167 383 c 128,-1,15
 126 402 126 402 105.5 432.5 c 0,16,17
 67 489.780487805 67 489.780487805 67 556 c 0,0,1
EndSplineSet
EndChar

StartChar: circumflex
Encoding: 710 710 131
Width: 674
Flags: HMW
HStem: 742 156<157 401 157 401 279 522 279 418>
VStem: 157 365<742 742>
LayerCount: 2
Fore
SplineSet
418 742 m 1,0,-1
 341 815 l 1,1,-1
 264 742 l 1,2,-1
 157 742 l 1,3,-1
 279 898 l 1,4,-1
 401 898 l 1,5,-1
 522 742 l 1,6,-1
 418 742 l 1,0,-1
EndSplineSet
EndChar

StartChar: Yacute
Encoding: 221 221 132
Width: 698
Flags: HMW
HStem: 0 887<393 393 393 403 393 403>
VStem: 25 640<699 699>
LayerCount: 2
Fore
SplineSet
536 699 m 1,0,-1
 665 699 l 1,1,-1
 403 276 l 1,2,-1
 403 0 l 1,3,-1
 285 0 l 1,4,-1
 285 276 l 1,5,-1
 25 699 l 1,6,-1
 154 699 l 1,7,-1
 345 381 l 1,8,-1
 536 699 l 1,0,-1
389 742 m 1,9,-1
 287 742 l 1,10,-1
 393 887 l 1,11,-1
 511 838 l 1,12,-1
 389 742 l 1,9,-1
EndSplineSet
EndChar

StartChar: yacute
Encoding: 253 253 133
Width: 592
Flags: HMW
HStem: -212 111<170 206 170 221.5>
VStem: 48 558<532 532>
LayerCount: 2
Fore
SplineSet
606 532 m 1,0,-1
 348 -100 l 1,1,2
 325 -152 325 -152 282 -182 c 128,-1,3
 239 -212 239 -212 187 -212 c 0,4,5
 114 -212 114 -212 55 -159 c 1,6,-1
 106 -68 l 1,7,8
 141 -101 141 -101 178.5 -101 c 0,9,10
 216 -101 216 -101 239.5 -74 c 128,-1,11
 263 -47 263 -47 263 -15 c 0,12,13
 263 -1 263 -1 48 532 c 1,14,-1
 168 532 l 1,15,-1
 327 140 l 1,16,-1
 486 532 l 1,17,-1
 606 532 l 1,0,-1
338 628 m 1,18,-1
 236 628 l 1,19,-1
 342 773 l 1,20,-1
 460 724 l 1,21,-1
 338 628 l 1,18,-1
EndSplineSet
EndChar

StartChar: plus
Encoding: 43 43 134
Width: 583
Flags: HMW
HStem: 304 94<62 249 62 249 347 534>
VStem: 249 98<115 304 115 304 398 587>
LayerCount: 2
Fore
SplineSet
249 587 m 1,0,-1
 347 587 l 1,1,-1
 347 398 l 1,2,-1
 534 398 l 1,3,-1
 534 304 l 1,4,-1
 347 304 l 1,5,-1
 347 115 l 1,6,-1
 249 115 l 1,7,-1
 249 304 l 1,8,-1
 62 304 l 1,9,-1
 62 398 l 1,10,-1
 249 398 l 1,11,-1
 249 587 l 1,0,-1
EndSplineSet
EndChar

StartChar: Igrave
Encoding: 204 204 135
Width: 318
Flags: HMW
HStem: 0 21G<100 218 100 100> 679 20G<100 218 218 218>
VStem: 100 118<0 699 0 699>
LayerCount: 2
Fore
SplineSet
100 699 m 1,0,-1
 218 699 l 1,1,-1
 218 0 l 1,2,-1
 100 0 l 1,3,-1
 100 699 l 1,0,-1
212 757 m 1,4,-1
 110 757 l 1,5,-1
 -12 853 l 1,6,-1
 106 902 l 1,7,-1
 212 757 l 1,4,-1
EndSplineSet
EndChar

StartChar: grave
Encoding: 96 96 136
Width: 833
Flags: HMW
HStem: 725 20G<434 434>
VStem: 316 224<600 696>
LayerCount: 2
Fore
SplineSet
540 600 m 1,0,-1
 438 600 l 1,1,-1
 316 696 l 1,2,-1
 434 745 l 1,3,-1
 540 600 l 1,0,-1
EndSplineSet
EndChar

StartChar: agrave
Encoding: 224 224 137
Width: 611
Flags: HMW
HStem: -8 95<249.5 292> 0 21G<429 531 429 429> 243 78<275 293 293 419> 447 93<279.5 334.5> 725 20G<278 278>
VStem: 60 112<140 196.5 140 218.5> 429 102<0 71 71 71>
LayerCount: 2
Fore
SplineSet
531 0 m 1,0,-1
 429 0 l 1,1,-1
 429 71 l 1,2,3
 363 -8 363 -8 252 -8 c 0,4,5
 169 -8 169 -8 114.5 39 c 128,-1,6
 60 86 60 86 60 164.5 c 0,7,8
 60 243 60 243 118 282 c 128,-1,9
 176 321 176 321 275 321 c 2,10,-1
 420 321 l 1,11,-1
 420 341 l 2,12,13
 420 447 420 447 302 447 c 0,14,15
 228 447 228 447 148 393 c 1,16,-1
 98 463 l 1,17,18
 195 540 195 540 318 540 c 0,19,20
 412 540 412 540 471.5 492.5 c 128,-1,21
 531 445 531 445 531 343 c 2,22,-1
 531 0 l 1,0,-1
419 198 m 2,23,-1
 419 243 l 1,24,-1
 293 243 l 2,25,26
 172 243 172 243 172 167 c 0,27,28
 172 128 172 128 202 107.5 c 128,-1,29
 232 87 232 87 285.5 87 c 0,30,31
 339 87 339 87 379 117 c 128,-1,32
 419 147 419 147 419 198 c 2,23,-1
384 600 m 1,33,-1
 282 600 l 1,34,-1
 160 696 l 1,35,-1
 278 745 l 1,36,-1
 384 600 l 1,33,-1
EndSplineSet
EndChar

StartChar: acircumflex
Encoding: 226 226 138
Width: 611
Flags: HMW
HStem: -8 95<249.5 292> 0 21G<429 531 429 429> 243 78<275 293 293 419> 447 93<279.5 334.5> 601 156<118 342 118 342 240 463 240 379> 679 78<292 292>
VStem: 60 112<140 196.5 140 218.5> 429 102<0 71 71 71>
LayerCount: 2
Fore
SplineSet
531 0 m 1,0,-1
 429 0 l 1,1,-1
 429 71 l 1,2,3
 363 -8 363 -8 252 -8 c 0,4,5
 169 -8 169 -8 114.5 39 c 128,-1,6
 60 86 60 86 60 164.5 c 0,7,8
 60 243 60 243 118 282 c 128,-1,9
 176 321 176 321 275 321 c 2,10,-1
 420 321 l 1,11,-1
 420 341 l 2,12,13
 420 447 420 447 302 447 c 0,14,15
 228 447 228 447 148 393 c 1,16,-1
 98 463 l 1,17,18
 195 540 195 540 318 540 c 0,19,20
 412 540 412 540 471.5 492.5 c 128,-1,21
 531 445 531 445 531 343 c 2,22,-1
 531 0 l 1,0,-1
419 198 m 2,23,-1
 419 243 l 1,24,-1
 293 243 l 2,25,26
 172 243 172 243 172 167 c 0,27,28
 172 128 172 128 202 107.5 c 128,-1,29
 232 87 232 87 285.5 87 c 0,30,31
 339 87 339 87 379 117 c 128,-1,32
 419 147 419 147 419 198 c 2,23,-1
379 601 m 1,33,-1
 292 679 l 1,34,-1
 205 601 l 1,35,-1
 118 601 l 1,36,-1
 240 757 l 1,37,-1
 342 757 l 1,38,-1
 463 601 l 1,39,-1
 379 601 l 1,33,-1
EndSplineSet
EndChar

StartChar: adieresis
Encoding: 228 228 139
Width: 611
Flags: HMW
HStem: -8 95<249.5 292> 0 21G<429 531 429 429> 243 78<275 293 293 419> 447 93<279.5 334.5> 596 123<196 230>
VStem: 60 112<140 196.5 140 218.5> 152 123<641 675> 337 123<642 676 642 676> 429 102<0 71 71 71>
LayerCount: 2
Fore
SplineSet
531 0 m 1,0,-1
 429 0 l 1,1,-1
 429 71 l 1,2,3
 363 -8 363 -8 252 -8 c 0,4,5
 169 -8 169 -8 114.5 39 c 128,-1,6
 60 86 60 86 60 164.5 c 128,-1,7
 60 243 60 243 118 282 c 128,-1,8
 176 321 176 321 275 321 c 2,9,-1
 420 321 l 1,10,-1
 420 341 l 2,11,12
 420 447 420 447 302 447 c 0,13,14
 228 447 228 447 148 393 c 1,15,-1
 98 463 l 1,16,17
 195 540 195 540 318 540 c 0,18,19
 412 540 412 540 471.5 492.5 c 128,-1,20
 531 445 531 445 531 343 c 2,21,-1
 531 0 l 1,0,-1
419 198 m 2,22,-1
 419 243 l 1,23,-1
 293 243 l 2,24,25
 172 243 172 243 172 167 c 0,26,27
 172 128 172 128 202 107.5 c 128,-1,28
 232 87 232 87 285.5 87 c 128,-1,29
 339 87 339 87 379 117 c 128,-1,30
 419 147 419 147 419 198 c 2,22,-1
152 658 m 128,-1,32
 152 684 152 684 170 701.5 c 128,-1,33
 188 719 188 719 213.5 719 c 128,-1,34
 239 719 239 719 257 701.5 c 128,-1,35
 275 684 275 684 275 658 c 128,-1,36
 275 632 275 632 256.5 614 c 128,-1,37
 238 596 238 596 212.5 596 c 128,-1,38
 187 596 187 596 169.5 614 c 128,-1,31
 152 632 152 632 152 658 c 128,-1,32
355 615 m 128,-1,40
 337 633 337 633 337 658.5 c 128,-1,41
 337 684 337 684 355 702 c 128,-1,42
 373 720 373 720 398.5 720 c 128,-1,43
 424 720 424 720 442 702.5 c 128,-1,44
 460 685 460 685 460 659.5 c 128,-1,45
 460 634 460 634 442 615.5 c 128,-1,46
 424 597 424 597 398.5 597 c 128,-1,39
 373 597 373 597 355 615 c 128,-1,40
EndSplineSet
EndChar

StartChar: atilde
Encoding: 227 227 140
Width: 611
Flags: HMW
HStem: -8 95<249.5 292> 0 21G<429 531 429 429> 243 78<275 293 293 419> 447 93<279.5 334.5> 597 69<354.5 368.5 354.5 394.5> 597 117<393 394.5> 600 116<204.5 206 140 246.5> 647 69<230 244>
VStem: 60 112<140 196.5 140 218.5> 140 66<600 638> 393 66<675.5 714> 429 102<0 71 71 71>
LayerCount: 2
Fore
SplineSet
531 0 m 1,0,-1
 429 0 l 1,1,-1
 429 71 l 1,2,3
 363 -8 363 -8 252 -8 c 0,4,5
 169 -8 169 -8 114.5 39 c 128,-1,6
 60 86 60 86 60 164.5 c 0,7,8
 60 243 60 243 118 282 c 128,-1,9
 176 321 176 321 275 321 c 2,10,-1
 420 321 l 1,11,-1
 420 341 l 2,12,13
 420 447 420 447 302 447 c 0,14,15
 228 447 228 447 148 393 c 1,16,-1
 98 463 l 1,17,18
 195 540 195 540 318 540 c 0,19,20
 412 540 412 540 471.5 492.5 c 128,-1,21
 531 445 531 445 531 343 c 2,22,-1
 531 0 l 1,0,-1
419 198 m 2,23,-1
 419 243 l 1,24,-1
 293 243 l 2,25,26
 172 243 172 243 172 167 c 0,27,28
 172 128 172 128 202 107.5 c 128,-1,29
 232 87 232 87 285.5 87 c 0,30,31
 339 87 339 87 379 117 c 128,-1,32
 419 147 419 147 419 198 c 2,23,-1
459 714 m 1,33,34
 459 658 459 658 434 627.5 c 128,-1,35
 409 597 409 597 369 597 c 0,36,37
 345 597 345 597 327 604.5 c 128,-1,38
 309 612 309 612 273 635 c 1,39,40
 252 647 252 647 239 647 c 0,41,42
 211 647 211 647 206 600 c 1,43,-1
 140 600 l 1,44,45
 140 655 140 655 165 685.5 c 128,-1,46
 190 716 190 716 230 716 c 0,47,48
 253 716 253 716 271 708.5 c 128,-1,49
 289 701 289 701 326 678 c 1,50,51
 348 666 348 666 359 666 c 0,52,53
 388 666 388 666 393 714 c 1,54,-1
 459 714 l 1,33,34
EndSplineSet
EndChar

StartChar: aring
Encoding: 229 229 141
Width: 611
Flags: HMW
HStem: -8 95<249.5 292> 0 21G<429 531 429 429> 243 78<275 293 293 419> 447 93<279.5 334.5> 594 44<289 318 289 329> 738 45<289 318>
VStem: 60 112<140 196.5 140 218.5> 206 48<673.5 703 673.5 713.5> 353 49<673.5 703> 429 102<0 71 71 71>
LayerCount: 2
Fore
SplineSet
531 0 m 1,0,-1
 429 0 l 1,1,-1
 429 71 l 1,2,3
 363 -8 363 -8 252 -8 c 0,4,5
 169 -8 169 -8 114.5 39 c 128,-1,6
 60 86 60 86 60 164.5 c 128,-1,7
 60 243 60 243 118 282 c 128,-1,8
 176 321 176 321 275 321 c 2,9,-1
 420 321 l 1,10,-1
 420 341 l 2,11,12
 420 447 420 447 302 447 c 0,13,14
 228 447 228 447 148 393 c 1,15,-1
 98 463 l 1,16,17
 195 540 195 540 318 540 c 0,18,19
 412 540 412 540 471.5 492.5 c 128,-1,20
 531 445 531 445 531 343 c 2,21,-1
 531 0 l 1,0,-1
419 198 m 2,22,-1
 419 243 l 1,23,-1
 293 243 l 2,24,25
 172 243 172 243 172 167 c 0,26,27
 172 128 172 128 202 107.5 c 128,-1,28
 232 87 232 87 285.5 87 c 128,-1,29
 339 87 339 87 379 117 c 128,-1,30
 419 147 419 147 419 198 c 2,22,-1
372 754.5 m 128,-1,32
 402 726 402 726 402 687.5 c 128,-1,33
 402 649 402 649 372 621.5 c 128,-1,34
 342 594 342 594 303 594 c 128,-1,35
 264 594 264 594 235 621.5 c 128,-1,36
 206 649 206 649 206 687.5 c 128,-1,37
 206 726 206 726 235.5 754.5 c 128,-1,38
 265 783 265 783 303.5 783 c 128,-1,31
 342 783 342 783 372 754.5 c 128,-1,32
353 688 m 128,-1,40
 353 710 353 710 339.5 724 c 128,-1,41
 326 738 326 738 304 738 c 128,-1,42
 282 738 282 738 268 724 c 128,-1,43
 254 710 254 710 254 688 c 128,-1,44
 254 666 254 666 268 652 c 128,-1,45
 282 638 282 638 303.5 638 c 128,-1,46
 325 638 325 638 339 652 c 128,-1,39
 353 666 353 666 353 688 c 128,-1,40
EndSplineSet
EndChar

StartChar: ring
Encoding: 730 730 142
Width: 833
Flags: HMW
HStem: 598 49<278 310.5 278 322.5> 758 49<278 310.5>
VStem: 186 53<686 718.5 686 730.5> 349 54<686 718.5>
LayerCount: 2
Fore
SplineSet
403 702 m 128,-1,1
 403 660 403 660 370 629 c 128,-1,2
 337 598 337 598 294 598 c 128,-1,3
 251 598 251 598 218.5 629 c 128,-1,4
 186 660 186 660 186 702 c 128,-1,5
 186 744 186 744 218.5 775.5 c 128,-1,6
 251 807 251 807 294 807 c 128,-1,7
 337 807 337 807 370 775.5 c 128,-1,0
 403 744 403 744 403 702 c 128,-1,1
334 662.5 m 128,-1,9
 349 678 349 678 349 702.5 c 128,-1,10
 349 727 349 727 334 742.5 c 128,-1,11
 319 758 319 758 294.5 758 c 128,-1,12
 270 758 270 758 254.5 742.5 c 128,-1,13
 239 727 239 727 239 702.5 c 128,-1,14
 239 678 239 678 254.5 662.5 c 128,-1,15
 270 647 270 647 294.5 647 c 128,-1,8
 319 647 319 647 334 662.5 c 128,-1,9
EndSplineSet
EndChar

StartChar: ograve
Encoding: 242 242 143
Width: 663
Flags: HMW
HStem: -8 100<281.5 378.5 281.5 411> 440 100<281.5 378.5> 725 20G<289 289>
VStem: 50 112<214.5 317.5 214.5 342> 498 112<214.5 317.5>
LayerCount: 2
Fore
SplineSet
330 92 m 128,-1,1
 403 92 403 92 450.5 140.5 c 128,-1,2
 498 189 498 189 498 266 c 128,-1,3
 498 343 498 343 450.5 391.5 c 128,-1,4
 403 440 403 440 330 440 c 128,-1,5
 257 440 257 440 209.5 391.5 c 128,-1,6
 162 343 162 343 162 266 c 128,-1,7
 162 189 162 189 209.5 140.5 c 128,-1,0
 257 92 257 92 330 92 c 128,-1,1
330 -8 m 128,-1,9
 210 -8 210 -8 130 71.5 c 128,-1,10
 50 151 50 151 50 266 c 128,-1,11
 50 381 50 381 130 460.5 c 128,-1,12
 210 540 210 540 330 540 c 128,-1,13
 450 540 450 540 530 460.5 c 128,-1,14
 610 381 610 381 610 266 c 128,-1,15
 610 151 610 151 530 71.5 c 128,-1,8
 450 -8 450 -8 330 -8 c 128,-1,9
395 600 m 1,16,-1
 293 600 l 1,17,-1
 171 696 l 1,18,-1
 289 745 l 1,19,-1
 395 600 l 1,16,-1
EndSplineSet
EndChar

StartChar: ocircumflex
Encoding: 244 244 144
Width: 663
Flags: HMW
HStem: -8 100<281.5 378.5 281.5 411> 440 100<281.5 378.5> 601 156<155 379 155 379 277 500 277 416> 679 78<329 329>
VStem: 50 112<214.5 317.5 214.5 342> 498 112<214.5 317.5>
LayerCount: 2
Fore
SplineSet
416 601 m 1,0,-1
 329 679 l 1,1,-1
 242 601 l 1,2,-1
 155 601 l 1,3,-1
 277 757 l 1,4,-1
 379 757 l 1,5,-1
 500 601 l 1,6,-1
 416 601 l 1,0,-1
330 92 m 128,-1,8
 403 92 403 92 450.5 140.5 c 128,-1,9
 498 189 498 189 498 266 c 128,-1,10
 498 343 498 343 450.5 391.5 c 128,-1,11
 403 440 403 440 330 440 c 128,-1,12
 257 440 257 440 209.5 391.5 c 128,-1,13
 162 343 162 343 162 266 c 128,-1,14
 162 189 162 189 209.5 140.5 c 128,-1,7
 257 92 257 92 330 92 c 128,-1,8
330 -8 m 128,-1,16
 210 -8 210 -8 130 71.5 c 128,-1,17
 50 151 50 151 50 266 c 128,-1,18
 50 381 50 381 130 460.5 c 128,-1,19
 210 540 210 540 330 540 c 128,-1,20
 450 540 450 540 530 460.5 c 128,-1,21
 610 381 610 381 610 266 c 128,-1,22
 610 151 610 151 530 71.5 c 128,-1,15
 450 -8 450 -8 330 -8 c 128,-1,16
EndSplineSet
EndChar

StartChar: odieresis
Encoding: 246 246 145
Width: 663
Flags: HMW
HStem: -8 100<281.5 378.5 281.5 411> 440 100<281.5 378.5> 594 123<229 263>
VStem: 50 112<214.5 317.5 214.5 342> 185 123<639 673 639 673> 370 123<640 674 640 674> 498 112<214.5 317.5>
LayerCount: 2
Fore
SplineSet
330 92 m 128,-1,1
 403 92 403 92 450.5 140.5 c 128,-1,2
 498 189 498 189 498 266 c 128,-1,3
 498 343 498 343 450.5 391.5 c 128,-1,4
 403 440 403 440 330 440 c 128,-1,5
 257 440 257 440 209.5 391.5 c 128,-1,6
 162 343 162 343 162 266 c 128,-1,7
 162 189 162 189 209.5 140.5 c 128,-1,0
 257 92 257 92 330 92 c 128,-1,1
330 -8 m 128,-1,9
 210 -8 210 -8 130 71.5 c 128,-1,10
 50 151 50 151 50 266 c 128,-1,11
 50 381 50 381 130 460.5 c 128,-1,12
 210 540 210 540 330 540 c 128,-1,13
 450 540 450 540 530 460.5 c 128,-1,14
 610 381 610 381 610 266 c 128,-1,15
 610 151 610 151 530 71.5 c 128,-1,8
 450 -8 450 -8 330 -8 c 128,-1,9
185 656 m 128,-1,17
 185 682 185 682 202.5 699.5 c 128,-1,18
 220 717 220 717 246 717 c 128,-1,19
 272 717 272 717 290 699.5 c 128,-1,20
 308 682 308 682 308 656 c 128,-1,21
 308 630 308 630 290 612 c 128,-1,22
 272 594 272 594 246 594 c 128,-1,23
 220 594 220 594 202.5 612 c 128,-1,16
 185 630 185 630 185 656 c 128,-1,17
388 613 m 128,-1,25
 370 631 370 631 370 656.5 c 128,-1,26
 370 682 370 682 388 700 c 128,-1,27
 406 718 406 718 431.5 718 c 128,-1,28
 457 718 457 718 475 700.5 c 128,-1,29
 493 683 493 683 493 657.5 c 128,-1,30
 493 632 493 632 474.5 613.5 c 128,-1,31
 456 595 456 595 431 595 c 128,-1,24
 406 595 406 595 388 613 c 128,-1,25
EndSplineSet
EndChar

StartChar: otilde
Encoding: 245 245 146
Width: 663
Flags: HMW
HStem: -8 100<281.5 378.5 281.5 411> 440 100<281.5 378.5> 597 69<364.5 378.5 364.5 404.5> 597 117<403 404.5> 600 116<214.5 216 150 256.5> 647 69<240 254>
VStem: 50 112<214.5 317.5 214.5 342> 150 66<600 638> 403 66<675.5 714> 498 112<214.5 317.5>
LayerCount: 2
Fore
SplineSet
469 714 m 1,0,1
 469 658 469 658 444 627.5 c 128,-1,2
 419 597 419 597 379 597 c 0,3,4
 355 597 355 597 337 604.5 c 128,-1,5
 319 612 319 612 283 635 c 1,6,7
 262 647 262 647 249 647 c 0,8,9
 221 647 221 647 216 600 c 1,10,-1
 150 600 l 1,11,12
 150 655 150 655 175 685.5 c 128,-1,13
 200 716 200 716 240 716 c 0,14,15
 263 716 263 716 281 708.5 c 128,-1,16
 299 701 299 701 336 678 c 1,17,18
 358 666 358 666 369 666 c 0,19,20
 398 666 398 666 403 714 c 1,21,-1
 469 714 l 1,0,1
330 92 m 128,-1,23
 403 92 403 92 450.5 140.5 c 128,-1,24
 498 189 498 189 498 266 c 128,-1,25
 498 343 498 343 450.5 391.5 c 128,-1,26
 403 440 403 440 330 440 c 128,-1,27
 257 440 257 440 209.5 391.5 c 128,-1,28
 162 343 162 343 162 266 c 128,-1,29
 162 189 162 189 209.5 140.5 c 128,-1,22
 257 92 257 92 330 92 c 128,-1,23
330 -8 m 128,-1,31
 210 -8 210 -8 130 71.5 c 128,-1,32
 50 151 50 151 50 266 c 128,-1,33
 50 381 50 381 130 460.5 c 128,-1,34
 210 540 210 540 330 540 c 128,-1,35
 450 540 450 540 530 460.5 c 128,-1,36
 610 381 610 381 610 266 c 128,-1,37
 610 151 610 151 530 71.5 c 128,-1,30
 450 -8 450 -8 330 -8 c 128,-1,31
EndSplineSet
EndChar

StartChar: ugrave
Encoding: 249 249 147
Width: 654
Flags: HMW
HStem: -8 103<283 326.5> 0 21G<452 563 452 452> 725 20G<288 288>
VStem: 80 110<206 232 232 529> 450 113<244 529 0 529>
LayerCount: 2
Fore
SplineSet
450 244 m 2,0,-1
 450 529 l 1,1,-1
 563 529 l 1,2,-1
 563 0 l 1,3,-1
 452 0 l 1,4,-1
 452 76 l 1,5,6
 395 -8 395 -8 286 -8 c 0,7,8
 205 -8 205 -8 142.5 48.5 c 128,-1,9
 80 105 80 105 80 206 c 2,10,-1
 80 529 l 1,11,-1
 190 529 l 1,12,-1
 190 232 l 2,13,14
 190 167 190 167 226.5 131 c 128,-1,15
 263 95 263 95 319 95 c 0,16,17
 450 95 450 95 450 244 c 2,0,-1
394 600 m 1,18,-1
 292 600 l 1,19,-1
 170 696 l 1,20,-1
 288 745 l 1,21,-1
 394 600 l 1,18,-1
EndSplineSet
EndChar

StartChar: ucircumflex
Encoding: 251 251 148
Width: 654
Flags: HMW
HStem: -8 101<268.5 310.5> 0 21G<451 563 451 451> 601 156<147 371 147 371 269 492 269 408> 679 78<321 321>
VStem: 73 112<206 240 240 532> 451 112<0 97 97 97 244 532 0 532>
LayerCount: 2
Fore
SplineSet
408 601 m 1,0,-1
 321 679 l 1,1,-1
 234 601 l 1,2,-1
 147 601 l 1,3,-1
 269 757 l 1,4,-1
 371 757 l 1,5,-1
 492 601 l 1,6,-1
 408 601 l 1,0,-1
451 244 m 2,7,-1
 451 532 l 1,8,-1
 563 532 l 1,9,-1
 563 0 l 1,10,-1
 451 0 l 1,11,-1
 451 97 l 1,12,13
 424 48 424 48 376.5 20 c 128,-1,14
 329 -8 329 -8 274 -8 c 0,15,16
 184 -8 184 -8 128.5 47 c 128,-1,17
 73 102 73 102 73 206 c 2,18,-1
 73 532 l 1,19,-1
 185 532 l 1,20,-1
 185 240 l 2,21,22
 185 93 185 93 307 93 c 0,23,24
 365 93 365 93 408 131.5 c 128,-1,25
 451 170 451 170 451 244 c 2,7,-1
EndSplineSet
EndChar

StartChar: egrave
Encoding: 232 232 149
Width: 614
Flags: HMW
HStem: -8 96<287 354.5 287 356.5> 217 88<162 467 162 579 162 467> 444 96<284 360> 725 20G<296 296>
VStem: 50 112<217 217 305 350> 467 112<217 352.5>
LayerCount: 2
Fore
SplineSet
579 217 m 1,0,-1
 162 217 l 1,1,2
 166 159 166 159 215 123.5 c 128,-1,3
 264 88 264 88 327 88 c 0,4,5
 427 88 427 88 479 151 c 1,6,-1
 543 81 l 1,7,8
 457 -8 457 -8 319 -8 c 0,9,10
 207 -8 207 -8 128.5 66.5 c 128,-1,11
 50 141 50 141 50 266.5 c 0,12,13
 50 392 50 392 130 466 c 128,-1,14
 210 540 210 540 318.5 540 c 0,15,16
 427 540 427 540 503 474.5 c 128,-1,17
 579 409 579 409 579 294 c 2,18,-1
 579 217 l 1,0,-1
162 305 m 1,19,-1
 467 305 l 1,20,21
 467 372 467 372 425 408 c 128,-1,22
 383 444 383 444 321.5 444 c 0,23,24
 260 444 260 444 211 406.5 c 128,-1,25
 162 369 162 369 162 305 c 1,19,-1
402 600 m 1,26,-1
 300 600 l 1,27,-1
 178 696 l 1,28,-1
 296 745 l 1,29,-1
 402 600 l 1,26,-1
EndSplineSet
EndChar

StartChar: ecircumflex
Encoding: 234 234 150
Width: 614
Flags: HMW
HStem: -8 96<287 354.5 287 356.5> 217 88<162 467 162 579 162 467> 444 96<284 360> 601 156<146 370 146 370 268 491 268 407> 679 78<320 320>
VStem: 50 112<217 217 305 350> 467 112<217 352.5>
LayerCount: 2
Fore
SplineSet
407 601 m 1,0,-1
 320 679 l 1,1,-1
 233 601 l 1,2,-1
 146 601 l 1,3,-1
 268 757 l 1,4,-1
 370 757 l 1,5,-1
 491 601 l 1,6,-1
 407 601 l 1,0,-1
579 217 m 1,7,-1
 162 217 l 1,8,9
 166 159 166 159 215 123.5 c 128,-1,10
 264 88 264 88 327 88 c 0,11,12
 427 88 427 88 479 151 c 1,13,-1
 543 81 l 1,14,15
 457 -8 457 -8 319 -8 c 0,16,17
 207 -8 207 -8 128.5 66.5 c 128,-1,18
 50 141 50 141 50 266.5 c 0,19,20
 50 392 50 392 130 466 c 128,-1,21
 210 540 210 540 318.5 540 c 0,22,23
 427 540 427 540 503 474.5 c 128,-1,24
 579 409 579 409 579 294 c 2,25,-1
 579 217 l 1,7,-1
162 305 m 1,26,-1
 467 305 l 1,27,28
 467 372 467 372 425 408 c 128,-1,29
 383 444 383 444 321.5 444 c 0,30,31
 260 444 260 444 211 406.5 c 128,-1,32
 162 369 162 369 162 305 c 1,26,-1
EndSplineSet
EndChar

StartChar: edieresis
Encoding: 235 235 151
Width: 614
Flags: HMW
HStem: -8 96<287 354.5 287 356.5> 217 88<162 467 162 579 162 467> 444 96<284 360> 597 123<202 236>
VStem: 50 112<217 217 305 350> 158 123<642 676 642 676> 343 123<643 677 643 677> 467 112<217 352.5>
LayerCount: 2
Fore
SplineSet
579 217 m 1,0,-1
 162 217 l 1,1,2
 166 159 166 159 215 123.5 c 128,-1,3
 264 88 264 88 327 88 c 0,4,5
 427 88 427 88 479 151 c 1,6,-1
 543 81 l 1,7,8
 457 -8 457 -8 319 -8 c 0,9,10
 207 -8 207 -8 128.5 66.5 c 128,-1,11
 50 141 50 141 50 266.5 c 128,-1,12
 50 392 50 392 130 466 c 128,-1,13
 210 540 210 540 318.5 540 c 128,-1,14
 427 540 427 540 503 474.5 c 128,-1,15
 579 409 579 409 579 294 c 2,16,-1
 579 217 l 1,0,-1
162 305 m 1,17,-1
 467 305 l 1,18,19
 467 372 467 372 425 408 c 128,-1,20
 383 444 383 444 321.5 444 c 128,-1,21
 260 444 260 444 211 406.5 c 128,-1,22
 162 369 162 369 162 305 c 1,17,-1
175.5 615 m 128,-1,24
 158 633 158 633 158 658.5 c 128,-1,25
 158 684 158 684 176 702 c 128,-1,26
 194 720 194 720 219.5 720 c 128,-1,27
 245 720 245 720 263 702.5 c 128,-1,28
 281 685 281 685 281 659.5 c 128,-1,29
 281 634 281 634 262.5 615.5 c 128,-1,30
 244 597 244 597 218.5 597 c 128,-1,23
 193 597 193 597 175.5 615 c 128,-1,24
361 616 m 128,-1,32
 343 634 343 634 343 659.5 c 128,-1,33
 343 685 343 685 361 703 c 128,-1,34
 379 721 379 721 404.5 721 c 128,-1,35
 430 721 430 721 448 703.5 c 128,-1,36
 466 686 466 686 466 660 c 128,-1,37
 466 634 466 634 448 616 c 128,-1,38
 430 598 430 598 404.5 598 c 128,-1,31
 379 598 379 598 361 616 c 128,-1,32
EndSplineSet
EndChar

StartChar: igrave
Encoding: 236 236 152
Width: 292
Flags: HMW
HStem: 0 21G<90 202 90 90> 725 20G<94 94>
VStem: 90 112<0 532 0 532>
LayerCount: 2
Fore
SplineSet
90 532 m 1,0,-1
 202 532 l 1,1,-1
 202 0 l 1,2,-1
 90 0 l 1,3,-1
 90 532 l 1,0,-1
200 600 m 1,4,-1
 98 600 l 1,5,-1
 -24 696 l 1,6,-1
 94 745 l 1,7,-1
 200 600 l 1,4,-1
EndSplineSet
EndChar

StartChar: icircumflex
Encoding: 238 238 153
Width: 292
Flags: HMW
HStem: 0 21G<91 203 91 91> 601 156<-31 193 -31 193 91 314 91 230> 679 78<143 143>
VStem: 91 112<0 532 0 532>
LayerCount: 2
Fore
SplineSet
230 601 m 1,0,-1
 143 679 l 1,1,-1
 56 601 l 1,2,-1
 -31 601 l 1,3,-1
 91 757 l 1,4,-1
 193 757 l 1,5,-1
 314 601 l 1,6,-1
 230 601 l 1,0,-1
91 532 m 1,7,-1
 203 532 l 1,8,-1
 203 0 l 1,9,-1
 91 0 l 1,10,-1
 91 532 l 1,7,-1
EndSplineSet
EndChar

StartChar: Otilde
Encoding: 213 213 154
Width: 832
Flags: HMW
HStem: -7 108<346 486 346 519.5> 608 108<346 486> 754 136<514 516> 757 136<294 296 219 343>
VStem: 48 121<284.5 424 284.5 458> 219 77<757 801.5> 514 77<845.5 890> 663 121<284.5 424>
LayerCount: 2
Fore
SplineSet
416 608 m 128,-1,1
 312 608 312 608 240.5 534 c 128,-1,2
 169 460 169 460 169 354.5 c 128,-1,3
 169 249 169 249 240.5 175 c 128,-1,4
 312 101 312 101 416 101 c 128,-1,5
 520 101 520 101 591.5 175 c 128,-1,6
 663 249 663 249 663 354.5 c 128,-1,7
 663 460 663 460 591.5 534 c 128,-1,0
 520 608 520 608 416 608 c 128,-1,1
416 -7 m 128,-1,9
 260 -7 260 -7 154 96.5 c 128,-1,10
 48 200 48 200 48 354.5 c 128,-1,11
 48 509 48 509 154 612.5 c 128,-1,12
 260 716 260 716 416 716 c 128,-1,13
 572 716 572 716 678 612.5 c 128,-1,14
 784 509 784 509 784 354.5 c 128,-1,15
 784 200 784 200 678 96.5 c 128,-1,8
 572 -7 572 -7 416 -7 c 128,-1,9
591 890 m 1,16,17
 591 825 591 825 562 789.5 c 128,-1,18
 533 754 533 754 486 754 c 0,19,20
 459 754 459 754 438 763 c 128,-1,21
 417 772 417 772 383 792 c 128,-1,22
 349 812 349 812 333.5 812 c 0,23,24
 303.333333333 812 303.333333333 812 296 757 c 1,25,-1
 219 757 l 1,26,27
 219 822 219 822 248 857.5 c 128,-1,28
 277 893 277 893 324 893 c 0,29,30
 351 893 351 893 371.5 884.5 c 128,-1,31
 392 876 392 876 425.5 855.5 c 128,-1,32
 459 835 459 835 475.5 835 c 128,-1,33
 492 835 492 835 501 847.5 c 128,-1,34
 510 860 510 860 514 890 c 1,35,-1
 591 890 l 1,16,17
EndSplineSet
EndChar

StartChar: ydieresis
Encoding: 255 255 155
Width: 592
Flags: HMW
HStem: -212 111<170 206 170 221.5> 593 123<208 242> 594 123<393.5 427>
VStem: 164 123<638 672 638 672> 349 123<639 673 639 673>
LayerCount: 2
Fore
SplineSet
606 532 m 1,0,-1
 348 -100 l 1,1,2
 325 -152 325 -152 282 -182 c 128,-1,3
 239 -212 239 -212 187 -212 c 0,4,5
 114 -212 114 -212 55 -159 c 1,6,-1
 106 -68 l 1,7,8
 141 -101 141 -101 178.5 -101 c 128,-1,9
 216 -101 216 -101 239.5 -74 c 128,-1,10
 263 -47 263 -47 263 -15 c 0,11,12
 263 -1 263 -1 48 532 c 1,13,-1
 168 532 l 1,14,-1
 327 140 l 1,15,-1
 486 532 l 1,16,-1
 606 532 l 1,0,-1
181.5 611 m 128,-1,18
 164 629 164 629 164 654.5 c 128,-1,19
 164 680 164 680 182 698 c 128,-1,20
 200 716 200 716 225.5 716 c 128,-1,21
 251 716 251 716 269 698.5 c 128,-1,22
 287 681 287 681 287 655.5 c 128,-1,23
 287 630 287 630 268.5 611.5 c 128,-1,24
 250 593 250 593 224.5 593 c 128,-1,17
 199 593 199 593 181.5 611 c 128,-1,18
367 612 m 128,-1,26
 349 630 349 630 349 655.5 c 128,-1,27
 349 681 349 681 367 699 c 128,-1,28
 385 717 385 717 410.5 717 c 128,-1,29
 436 717 436 717 454 699.5 c 128,-1,30
 472 682 472 682 472 656 c 128,-1,31
 472 630 472 630 454 612 c 128,-1,32
 436 594 436 594 410.5 594 c 128,-1,25
 385 594 385 594 367 612 c 128,-1,26
EndSplineSet
EndChar

StartChar: Ydieresis
Encoding: 376 376 156
Width: 698
Flags: HMW
HStem: 742 123<239 273>
VStem: 195 123<787 821 787 821> 380 123<788 822 788 822>
LayerCount: 2
Fore
SplineSet
536 699 m 1,0,-1
 665 699 l 1,1,-1
 403 276 l 1,2,-1
 403 0 l 1,3,-1
 285 0 l 1,4,-1
 285 276 l 1,5,-1
 25 699 l 1,6,-1
 154 699 l 1,7,-1
 345 381 l 1,8,-1
 536 699 l 1,0,-1
195 804 m 128,-1,10
 195 830 195 830 212.5 847.5 c 128,-1,11
 230 865 230 865 256 865 c 128,-1,12
 282 865 282 865 300 847.5 c 128,-1,13
 318 830 318 830 318 804 c 128,-1,14
 318 778 318 778 300 760 c 128,-1,15
 282 742 282 742 256 742 c 128,-1,16
 230 742 230 742 212.5 760 c 128,-1,9
 195 778 195 778 195 804 c 128,-1,10
398 761 m 128,-1,18
 380 779 380 779 380 804.5 c 128,-1,19
 380 830 380 830 398 848 c 128,-1,20
 416 866 416 866 441.5 866 c 128,-1,21
 467 866 467 866 485 848.5 c 128,-1,22
 503 831 503 831 503 805.5 c 128,-1,23
 503 780 503 780 484.5 761.5 c 128,-1,24
 466 743 466 743 441 743 c 128,-1,17
 416 743 416 743 398 761 c 128,-1,18
EndSplineSet
EndChar

StartChar: Ecircumflex
Encoding: 202 202 157
Width: 673
Flags: HMW
HStem: 0 110<218 603 218 603> 294 103<218 553 218 553> 589 110<218 591 218 218> 757 156<172 396 172 396 294 517 294 433>
VStem: 100 118<110 294 397 589>
LayerCount: 2
Fore
SplineSet
591 699 m 1,0,-1
 591 589 l 1,1,-1
 218 589 l 1,2,-1
 218 397 l 1,3,-1
 553 397 l 1,4,-1
 553 294 l 1,5,-1
 218 294 l 1,6,-1
 218 110 l 1,7,-1
 603 110 l 1,8,-1
 603 0 l 1,9,-1
 100 0 l 1,10,-1
 100 699 l 1,11,-1
 591 699 l 1,0,-1
433 757 m 1,12,-1
 346 835 l 1,13,-1
 259 757 l 1,14,-1
 172 757 l 1,15,-1
 294 913 l 1,16,-1
 396 913 l 1,17,-1
 517 757 l 1,18,-1
 433 757 l 1,12,-1
EndSplineSet
EndChar

StartChar: Ugrave
Encoding: 217 217 158
Width: 750
Flags: HMW
HStem: -11 111<321 430.5 321 456.5> 680 20G<80 199 199 199 552 670 670 670>
VStem: 80 119<297 313 313 700> 552 118<308 700>
LayerCount: 2
Fore
SplineSet
670 700 m 1,0,-1
 670 303 l 2,1,2
 670 152 670 152 587 70.5 c 128,-1,3
 504 -11 504 -11 377.5 -11 c 0,4,5
 251 -11 251 -11 165.5 70.5 c 128,-1,6
 80 152 80 152 80 297 c 2,7,-1
 80 700 l 1,8,-1
 199 700 l 1,9,-1
 199 313 l 2,10,11
 199 215 199 215 246.5 157.5 c 128,-1,12
 294 100 294 100 376 100 c 128,-1,13
 458 100 458 100 505 155.5 c 128,-1,14
 552 211 552 211 552 308 c 2,15,-1
 552 700 l 1,16,-1
 670 700 l 1,0,-1
463 757 m 1,17,-1
 361 757 l 1,18,-1
 239 853 l 1,19,-1
 357 902 l 1,20,-1
 463 757 l 1,17,-1
EndSplineSet
EndChar

StartChar: Ograve
Encoding: 210 210 159
Width: 832
Flags: HMW
HStem: -7 108<346 486 346 519.5> 608 108<346 486>
VStem: 48 121<284.5 424 284.5 458> 663 121<284.5 424>
LayerCount: 2
Fore
SplineSet
416 608 m 128,-1,1
 312 608 312 608 240.5 534 c 128,-1,2
 169 460 169 460 169 354.5 c 0,3,4
 169 249 169 249 240.5 175 c 128,-1,5
 312 101 312 101 416 101 c 128,-1,6
 520 101 520 101 591.5 175 c 128,-1,7
 663 249 663 249 663 354.5 c 0,8,9
 663 460 663 460 591.5 534 c 128,-1,0
 520 608 520 608 416 608 c 128,-1,1
416 -7 m 128,-1,11
 260 -7 260 -7 154 96.5 c 128,-1,12
 48 200 48 200 48 354.5 c 0,13,14
 48 509 48 509 154 612.5 c 128,-1,15
 260 716 260 716 416 716 c 128,-1,16
 572 716 572 716 678 612.5 c 128,-1,17
 784 509 784 509 784 354.5 c 0,18,19
 784 200 784 200 678 96.5 c 128,-1,10
 572 -7 572 -7 416 -7 c 128,-1,11
496 757 m 1,20,-1
 394 757 l 1,21,-1
 272 853 l 1,22,-1
 390 902 l 1,23,-1
 496 757 l 1,20,-1
EndSplineSet
EndChar

StartChar: Ocircumflex
Encoding: 212 212 160
Width: 832
Flags: HMW
HStem: -7 108<346 486 346 519.5> 608 108<346 486> 757 156<236 460 236 460 358 581 358 497>
VStem: 48 121<284.5 424 284.5 458> 663 121<284.5 424>
LayerCount: 2
Fore
SplineSet
497 757 m 1,0,-1
 410 835 l 1,1,-1
 323 757 l 1,2,-1
 236 757 l 1,3,-1
 358 913 l 1,4,-1
 460 913 l 1,5,-1
 581 757 l 1,6,-1
 497 757 l 1,0,-1
416 608 m 128,-1,8
 312 608 312 608 240.5 534 c 128,-1,9
 169 460 169 460 169 354.5 c 0,10,11
 169 249 169 249 240.5 175 c 128,-1,12
 312 101 312 101 416 101 c 128,-1,13
 520 101 520 101 591.5 175 c 128,-1,14
 663 249 663 249 663 354.5 c 0,15,16
 663 460 663 460 591.5 534 c 128,-1,7
 520 608 520 608 416 608 c 128,-1,8
416 -7 m 128,-1,18
 260 -7 260 -7 154 96.5 c 128,-1,19
 48 200 48 200 48 354.5 c 0,20,21
 48 509 48 509 154 612.5 c 128,-1,22
 260 716 260 716 416 716 c 128,-1,23
 572 716 572 716 678 612.5 c 128,-1,24
 784 509 784 509 784 354.5 c 0,25,26
 784 200 784 200 678 96.5 c 128,-1,17
 572 -7 572 -7 416 -7 c 128,-1,18
EndSplineSet
EndChar

StartChar: Thorn
Encoding: 222 222 161
Width: 606
Flags: HMW
HStem: 0 21G<32 150 32 32> 117 107<150 264 150 277> 504 107<150 260 150 262> 504 195<32 260 32 150>
VStem: 32 118<0 117 0 224 224 504 611 699> 456 121<328 421>
LayerCount: 2
Fore
SplineSet
577 369 m 0,0,1
 577 236 577 236 498 176.5 c 128,-1,2
 419 117 419 117 264 117 c 2,3,-1
 150 117 l 1,4,-1
 150 0 l 1,5,-1
 32 0 l 1,6,-1
 32 699 l 1,7,-1
 150 699 l 1,8,-1
 150 611 l 1,9,-1
 262 611 l 2,10,11
 577 611 577 611 577 369 c 0,0,1
416 262.5 m 128,-1,13
 456 301 456 301 456 372 c 128,-1,14
 456 443 456 443 407 473.5 c 128,-1,15
 358 504 358 504 260 504 c 2,16,-1
 150 504 l 1,17,-1
 150 224 l 1,18,-1
 277 224 l 2,19,12
 376 224 376 224 416 262.5 c 128,-1,13
EndSplineSet
EndChar

StartChar: thorn
Encoding: 254 254 162
Width: 686
Flags: HMW
HStem: -194 21G<86 198 86 86> -8 99<310.5 395.5 303.5 448> 442 98<315.5 396.5> 722 20G<86 198 198 198>
VStem: 86 112<-194 73 459 742> 510 120<220.5 312.5>
LayerCount: 2
Fore
SplineSet
558 462 m 128,-1,1
 630 384 630 384 630 264.5 c 128,-1,2
 630 145 630 145 558.5 68.5 c 128,-1,3
 487 -8 487 -8 368 -8 c 0,4,5
 285.666666667 -8 285.666666667 -8 225 44 c 0,6,7
 211 56 211 56 204.5 64.5 c 2,8,-1
 198 73 l 1,9,-1
 198 -194 l 1,10,-1
 86 -194 l 1,11,-1
 86 742 l 1,12,-1
 198 742 l 1,13,-1
 198 459 l 1,14,15
 201 462 201 462 205.5 467.5 c 128,-1,16
 210 473 210 473 227 487 c 128,-1,17
 244 501 244 501 262.5 511.5 c 0,18,19
 312.714285714 540 312.714285714 540 370 540 c 0,20,0
 486 540 486 540 558 462 c 128,-1,1
463.5 143.5 m 128,-1,22
 510 196 510 196 510 266.5 c 128,-1,23
 510 337 510 337 464 389.5 c 128,-1,24
 418 442 418 442 350 442 c 128,-1,25
 282 442 282 442 239 390 c 128,-1,26
 196 338 196 338 196 266 c 128,-1,27
 196 194 196 194 239 142.5 c 128,-1,28
 282 91 282 91 349.5 91 c 128,-1,21
 417 91 417 91 463.5 143.5 c 128,-1,22
EndSplineSet
EndChar

StartChar: slash
Encoding: 47 47 163
Width: 622
Flags: HMW
HStem: -117 928<27 560 27 560>
VStem: 27 533
LayerCount: 2
Fore
SplineSet
460 811 m 1,0,-1
 560 811 l 1,1,-1
 127 -117 l 1,2,-1
 27 -117 l 1,3,-1
 460 811 l 1,0,-1
EndSplineSet
EndChar

StartChar: multiply
Encoding: 215 215 164
Width: 535
Flags: HMW
HStem: 82 549<58 58 58 480>
VStem: -6 549<146 146 146 567>
LayerCount: 2
Fore
SplineSet
269 419 m 1,0,-1
 480 631 l 1,1,-1
 543 567 l 1,2,-1
 333 357 l 1,3,-1
 543 146 l 1,4,-1
 480 82 l 1,5,-1
 269 293 l 1,6,-1
 58 82 l 1,7,-1
 -6 146 l 1,8,-1
 205 357 l 1,9,-1
 -6 567 l 1,10,-1
 58 631 l 1,11,-1
 269 419 l 1,0,-1
EndSplineSet
EndChar

StartChar: quotedbl
Encoding: 34 34 165
Width: 324
Flags: HMW
HStem: 453 246<54 132 54 132 196 274 54 196>
VStem: 54 78<453 699 453 699> 196 78<453 699 453 699>
LayerCount: 2
Fore
SplineSet
54 453 m 1,0,-1
 54 699 l 1,1,-1
 132 699 l 1,2,-1
 132 453 l 1,3,-1
 54 453 l 1,0,-1
196 453 m 1,4,-1
 196 699 l 1,5,-1
 274 699 l 1,6,-1
 274 453 l 1,7,-1
 196 453 l 1,4,-1
EndSplineSet
EndChar

StartChar: less
Encoding: 60 60 166
Width: 638
Flags: HMW
HStem: 117 561<546 546>
VStem: 75 119<394 405 394 460 394 460>
LayerCount: 2
Fore
SplineSet
75 334 m 1,0,-1
 75 460 l 1,1,-1
 546 678 l 1,2,-1
 546 564 l 1,3,-1
 194 405 l 1,4,-1
 194 394 l 1,5,-1
 546 231 l 1,6,-1
 546 117 l 1,7,-1
 75 334 l 1,0,-1
EndSplineSet
EndChar

StartChar: greater
Encoding: 62 62 167
Width: 664
Flags: HMW
HStem: 117 561<95 95>
VStem: 447 119<394 405 405 405>
LayerCount: 2
Fore
SplineSet
566 460 m 1,0,-1
 566 334 l 1,1,-1
 95 117 l 1,2,-1
 95 231 l 1,3,-1
 447 394 l 1,4,-1
 447 405 l 1,5,-1
 95 564 l 1,6,-1
 95 678 l 1,7,-1
 566 460 l 1,0,-1
EndSplineSet
EndChar

StartChar: equal
Encoding: 61 61 168
Width: 599
Flags: HMW
HStem: 225 108<45 549 45 549> 432 108<45 549 45 549>
VStem: 45 504<225 333 225 333 432 540 225 540>
LayerCount: 2
Fore
SplineSet
45 540 m 1,0,-1
 549 540 l 1,1,-1
 549 432 l 1,2,-1
 45 432 l 1,3,-1
 45 540 l 1,0,-1
45 333 m 1,4,-1
 549 333 l 1,5,-1
 549 225 l 1,6,-1
 45 225 l 1,7,-1
 45 333 l 1,4,-1
EndSplineSet
EndChar

StartChar: at
Encoding: 64 64 169
Width: 1036
Flags: HMW
HStem: -126 44<405.5 537 405.5 540.5> 21 61<768.5 803 768.5 811.5> 21 93<453.5 512> 418 97<454.5 518.5 417 538.5> 629 44<417.5 624>
VStem: 110 44<166 365 166 378> 261 101<230.5 310.5 230.5 333.5> 633 96<434 501> 866 50<194.5 350>
LayerCount: 2
Fore
SplineSet
689 -22 m 1,0,-1
 711 -59 l 1,1,2
 676 -89 676 -89 618 -107.5 c 128,-1,3
 560 -126 560 -126 505 -126 c 0,4,5
 337 -126 337 -126 223.5 -14 c 128,-1,6
 110 98 110 98 110 266 c 128,-1,7
 110 434 110 434 229 553.5 c 128,-1,8
 348 673 348 673 516.5 673 c 128,-1,9
 685 673 685 673 800.5 553.5 c 128,-1,10
 916 434 916 434 916 262 c 0,11,12
 916 154 916 154 875 87.5 c 128,-1,13
 834 21 834 21 766 21 c 0,14,15
 717 21 717 21 688 54.5 c 128,-1,16
 659 88 659 88 657 150 c 1,17,18
 601 21 601 21 478 21 c 0,19,20
 392 21 392 21 326.5 90 c 128,-1,21
 261 159 261 159 261 265 c 128,-1,22
 261 371 261 371 323 443 c 128,-1,23
 385 515 385 515 487 515 c 0,24,25
 533 515 533 515 574 491 c 128,-1,26
 615 467 615 467 633 434 c 1,27,-1
 633 501 l 1,28,-1
 729 501 l 1,29,-1
 729 152 l 2,30,31
 729 82 729 82 784 82 c 0,32,33
 815 82 815 82 840.5 127.5 c 128,-1,34
 866 173 866 173 866 247 c 0,35,36
 866 407 866 407 769.5 518 c 128,-1,37
 673 629 673 629 520.5 629 c 128,-1,38
 368 629 368 629 261 522 c 128,-1,39
 154 415 154 415 154 266 c 128,-1,40
 154 117 154 117 255 17.5 c 128,-1,41
 356 -82 356 -82 505 -82 c 0,42,43
 625 -82 625 -82 689 -22 c 1,0,-1
596 376 m 128,-1,45
 558 418 558 418 497 418 c 128,-1,46
 436 418 436 418 399 375 c 128,-1,47
 362 332 362 332 362 269.5 c 128,-1,48
 362 207 362 207 398.5 160.5 c 128,-1,49
 435 114 435 114 498 114 c 128,-1,50
 561 114 561 114 597.5 159.5 c 128,-1,51
 634 205 634 205 634 269.5 c 128,-1,44
 634 334 634 334 596 376 c 128,-1,45
EndSplineSet
EndChar

StartChar: asciicircum
Encoding: 94 94 170
Width: 394
Flags: HMW
HStem: 742 156<22 246 22 246 144 367 144 273>
VStem: 22 345<742 742>
LayerCount: 2
Fore
SplineSet
273 742 m 1,0,-1
 196 825 l 1,1,-1
 119 742 l 1,2,-1
 22 742 l 1,3,-1
 144 898 l 1,4,-1
 246 898 l 1,5,-1
 367 742 l 1,6,-1
 273 742 l 1,0,-1
EndSplineSet
EndChar

StartChar: underscore
Encoding: 95 95 171
Width: 628
Flags: HMW
HStem: -138 57<23 601 23 601>
VStem: 23 578<-138 -81 -138 -81>
LayerCount: 2
Fore
SplineSet
23 -138 m 1,0,-1
 23 -81 l 1,1,-1
 601 -81 l 1,2,-1
 601 -138 l 1,3,-1
 23 -138 l 1,0,-1
EndSplineSet
EndChar

StartChar: braceright
Encoding: 125 125 172
Width: 306
Flags: HMW
HStem: -146 93<22 50 22 56 22 50> 262 93<225.5 266 242 266>
VStem: 92 100<-7 202 393.5 417 417 611 611 628>
LayerCount: 2
Fore
SplineSet
56 -146 m 2,0,-1
 22 -146 l 1,1,-1
 22 -53 l 1,2,3
 63 -53 63 -53 77.5 -43 c 128,-1,4
 92 -33 92 -33 92 -7 c 2,5,-1
 92 228 l 2,6,7
 92 298 92 298 158 309 c 1,8,9
 92 321 92 321 92 391 c 2,10,-1
 92 611 l 2,11,12
 92 642 92 642 75.3467741935 655.322580645 c 0,13,14
 58.6935483871 668.64516129 58.6935483871 668.64516129 42.8870967742 668.64516129 c 2,15,-1
 39.5 668.5 l 1,16,-1
 22 667 l 1,17,-1
 22 760 l 1,18,-1
 56 760 l 2,19,20
 192 760 192 760 192 628 c 2,21,-1
 192 417 l 2,22,23
 192 383 192 383 204 369 c 128,-1,24
 216 355 216 355 242 355 c 2,25,-1
 266 355 l 1,26,-1
 266 262 l 1,27,-1
 242 262 l 2,28,29
 216 262 216 262 204 248.5 c 128,-1,30
 192 235 192 235 192 202 c 2,31,-1
 192 -14 l 2,32,33
 192 -146 192 -146 56 -146 c 2,0,-1
EndSplineSet
EndChar

StartChar: bar
Encoding: 124 124 173
Width: 130
Flags: HMW
HStem: -153 935<23 106 23 106>
VStem: 23 83<-153 782 -153 782>
LayerCount: 2
Fore
SplineSet
23 -153 m 1,0,-1
 23 782 l 1,1,-1
 106 782 l 1,2,-1
 106 -153 l 1,3,-1
 23 -153 l 1,0,-1
EndSplineSet
EndChar

StartChar: asciitilde
Encoding: 126 126 174
Width: 634
Flags: HMW
HStem: 647 112<403.5 434 403.5 461.5> 681 20G<53 53> 735 112<186 216.5>
VStem: 53 514<701 793>
LayerCount: 2
Fore
SplineSet
310 684 m 0,0,1
 305 687 305 687 279.5 702.5 c 0,2,3
 226.032258065 735 226.032258065 735 202.016129032 735 c 128,-1,4
 178 735 178 735 165.5 719.5 c 128,-1,5
 153 704 153 704 147 667 c 1,6,-1
 53 701 l 1,7,8
 63 771 63 771 101 809 c 128,-1,9
 139 847 139 847 191 847 c 128,-1,10
 243 847 243 847 310 810 c 0,11,12
 315 807 315 807 340.5 791.5 c 0,13,14
 393.967741935 759 393.967741935 759 417.983870968 759 c 128,-1,15
 442 759 442 759 454.5 774.5 c 128,-1,16
 467 790 467 790 473 827 c 1,17,-1
 567 793 l 1,18,19
 557 723 557 723 519 685 c 128,-1,20
 481 647 481 647 429 647 c 128,-1,21
 377 647 377 647 310 684 c 0,0,1
EndSplineSet
EndChar

StartChar: Odieresis
Encoding: 214 214 175
Width: 832
Flags: HMW
HStem: -7 108<346 486 346 519.5> 608 108<346 486> 752 123<305 339>
VStem: 48 121<284.5 424 284.5 458> 261 123<797 831 797 831> 446 123<798 832 798 832> 663 121<284.5 424>
LayerCount: 2
Fore
SplineSet
416 608 m 128,-1,1
 312 608 312 608 240.5 534 c 128,-1,2
 169 460 169 460 169 354.5 c 128,-1,3
 169 249 169 249 240.5 175 c 128,-1,4
 312 101 312 101 416 101 c 128,-1,5
 520 101 520 101 591.5 175 c 128,-1,6
 663 249 663 249 663 354.5 c 128,-1,7
 663 460 663 460 591.5 534 c 128,-1,0
 520 608 520 608 416 608 c 128,-1,1
416 -7 m 128,-1,9
 260 -7 260 -7 154 96.5 c 128,-1,10
 48 200 48 200 48 354.5 c 128,-1,11
 48 509 48 509 154 612.5 c 128,-1,12
 260 716 260 716 416 716 c 128,-1,13
 572 716 572 716 678 612.5 c 128,-1,14
 784 509 784 509 784 354.5 c 128,-1,15
 784 200 784 200 678 96.5 c 128,-1,8
 572 -7 572 -7 416 -7 c 128,-1,9
261 814 m 128,-1,17
 261 840 261 840 278.5 857.5 c 128,-1,18
 296 875 296 875 322 875 c 128,-1,19
 348 875 348 875 366 857.5 c 128,-1,20
 384 840 384 840 384 814 c 128,-1,21
 384 788 384 788 366 770 c 128,-1,22
 348 752 348 752 322 752 c 128,-1,23
 296 752 296 752 278.5 770 c 128,-1,16
 261 788 261 788 261 814 c 128,-1,17
464 771 m 128,-1,25
 446 789 446 789 446 814.5 c 128,-1,26
 446 840 446 840 464 858 c 128,-1,27
 482 876 482 876 507.5 876 c 128,-1,28
 533 876 533 876 551 858.5 c 128,-1,29
 569 841 569 841 569 815.5 c 128,-1,30
 569 790 569 790 550.5 771.5 c 128,-1,31
 532 753 532 753 507 753 c 128,-1,24
 482 753 482 753 464 771 c 128,-1,25
EndSplineSet
EndChar

StartChar: cedilla
Encoding: 184 184 176
Width: 281
Flags: HMW
HStem: -212 21G<105.5 156.5> -212 69<105.5 120.5 101 156.5> -63 63<114 119>
VStem: 148 87<-114 -94.5 -140.5 -94>
LayerCount: 2
Fore
SplineSet
185 0 m 1,0,-1
 165 -38 l 1,1,2
 235 -47 235 -47 235 -117 c 0,3,4
 235 -155 235 -155 204 -183.5 c 128,-1,5
 173 -212 173 -212 125.5 -212 c 0,6,7
 78 -212 78 -212 42 -190 c 1,8,-1
 68 -133 l 1,9,10
 87 -143 87 -143 106.5 -143 c 0,11,12
 126 -143 126 -143 137 -131.5 c 128,-1,13
 148 -120 148 -120 148 -104 c 128,-1,14
 148 -88 148 -88 136.5 -75.5 c 128,-1,15
 125 -63 125 -63 107.5 -63 c 0,16,17
 90 -63 90 -63 78 -68 c 1,18,-1
 114 0 l 1,19,-1
 185 0 l 1,0,-1
EndSplineSet
EndChar

StartChar: dagger
Encoding: 8224 8224 177
Width: 512
Flags: HMW
HStem: -194 21G<198 198 198 304> 392 102<28 198 28 198 304 480> 681 20G<198 304 304 304>
VStem: 198 106<-194 392 -194 392 494 701>
LayerCount: 2
Fore
SplineSet
198 -194 m 1,0,-1
 198 392 l 1,1,-1
 28 392 l 1,2,-1
 28 494 l 1,3,-1
 198 494 l 1,4,-1
 198 701 l 1,5,-1
 304 701 l 1,6,-1
 304 494 l 1,7,-1
 480 494 l 1,8,-1
 480 392 l 1,9,-1
 304 392 l 1,10,-1
 304 -194 l 1,11,-1
 198 -194 l 1,0,-1
EndSplineSet
EndChar

StartChar: degree
Encoding: 176 176 178
Width: 465
Flags: HMW
HStem: 408 51<205 261.5 205 276.5> 662 53<205 261.5>
VStem: 80 52<533 589.5 533 603.5> 335 53<533 589.5>
LayerCount: 2
Fore
SplineSet
234 715 m 128,-1,1
 298 715 298 715 343 670 c 128,-1,2
 388 625 388 625 388 561 c 128,-1,3
 388 497 388 497 343 452.5 c 128,-1,4
 298 408 298 408 234 408 c 128,-1,5
 170 408 170 408 125 452.5 c 128,-1,6
 80 497 80 497 80 561 c 128,-1,7
 80 625 80 625 125 670 c 128,-1,0
 170 715 170 715 234 715 c 128,-1,1
161.5 489 m 128,-1,9
 191 459 191 459 233.5 459 c 128,-1,10
 276 459 276 459 305.5 489 c 128,-1,11
 335 519 335 519 335 561 c 128,-1,12
 335 603 335 603 305.5 632.5 c 128,-1,13
 276 662 276 662 233.5 662 c 128,-1,14
 191 662 191 662 161.5 632.5 c 128,-1,15
 132 603 132 603 132 561 c 128,-1,8
 132 519 132 519 161.5 489 c 128,-1,9
EndSplineSet
EndChar

StartChar: sterling
Encoding: 163 163 179
Width: 540
Flags: HMW
HStem: 0 105<11 93 211 509 11 93> 287 98<7 93 7 93 211 378> 632 110<294 346>
VStem: 93 118<105 287 105 287 385 510 510 516>
LayerCount: 2
Fore
SplineSet
211 516 m 2,0,-1
 211 385 l 1,1,-1
 378 385 l 1,2,-1
 378 287 l 1,3,-1
 211 287 l 1,4,-1
 211 105 l 1,5,-1
 509 105 l 1,6,-1
 509 0 l 1,7,-1
 11 0 l 1,8,-1
 11 105 l 1,9,-1
 93 105 l 1,10,-1
 93 287 l 1,11,-1
 7 287 l 1,12,-1
 7 385 l 1,13,-1
 93 385 l 1,14,-1
 93 510 l 2,15,16
 93 631 93 631 154 686.5 c 128,-1,17
 215 742 215 742 314 742 c 0,18,19
 445 742 445 742 511 630 c 1,20,-1
 428 564 l 1,21,22
 387 632 387 632 322 632 c 0,23,24
 274 632 274 632 242.5 604.5 c 128,-1,25
 211 577 211 577 211 516 c 2,0,-1
EndSplineSet
EndChar

StartChar: section
Encoding: 167 167 180
Width: 533
Flags: HMW
HStem: -138 93<235 306 235 337.5> 648 94<227.5 287>
VStem: 9 94<285.5 342 285.5 343> 53 107<551 595 551 618> 380 105<-0.5 45> 432 93<269 328>
LayerCount: 2
Fore
SplineSet
103 317 m 0,0,1
 103 270 103 270 161.5 239 c 128,-1,2
 220 208 220 208 311 208 c 0,3,4
 363 208 363 208 397.5 230 c 128,-1,5
 432 252 432 252 432 284.5 c 128,-1,6
 432 317 432 317 409 338 c 128,-1,7
 386 359 386 359 350.5 369.5 c 0,8,9
 277.80952381 391 277.80952381 391 222.404761905 391 c 128,-1,10
 167 391 167 391 135 371.5 c 128,-1,11
 103 352 103 352 103 317 c 0,0,1
186.5 627 m 128,-1,13
 160 606 160 606 160 572.5 c 128,-1,14
 160 539 160 539 189 519 c 128,-1,15
 218 499 218 499 320.5 474.5 c 128,-1,16
 423 450 423 450 474 411 c 128,-1,17
 525 372 525 372 525 299 c 0,18,19
 525 249 525 249 493 208.5 c 128,-1,20
 461 168 461 168 393 152 c 1,21,22
 439 135 439 135 462 100 c 128,-1,23
 485 65 485 65 485 28 c 0,24,25
 485 -41 485 -41 426.5 -89.5 c 128,-1,26
 368 -138 368 -138 270 -138 c 0,27,28
 127 -138 127 -138 17 -40 c 1,29,-1
 81 36 l 1,30,31
 179 -45 179 -45 273 -45 c 0,32,33
 380 -45 380 -45 380 23 c 0,34,35
 380 55 380 55 346.5 76 c 128,-1,36
 313 97 313 97 215.5 125.5 c 128,-1,37
 118 154 118 154 63.5 194.5 c 128,-1,38
 9 235 9 235 9 313 c 0,39,40
 9 361 9 361 42 401 c 128,-1,41
 75 441 75 441 134 452 c 1,42,43
 53 484 53 484 53 564 c 128,-1,44
 53 644 53 644 111.5 693 c 128,-1,45
 170 742 170 742 261 742 c 0,46,47
 326 742 326 742 375 726 c 128,-1,48
 424 710 424 710 475 673 c 1,49,-1
 418 593 l 1,50,51
 344 648 344 648 259 648 c 0,52,12
 213 648 213 648 186.5 627 c 128,-1,13
EndSplineSet
EndChar

StartChar: bullet
Encoding: 8226 8226 181
Width: 399
Flags: HMW
HStem: 187 258<162.5 233.5>
VStem: 69 258<280.5 351.5>
LayerCount: 2
Fore
SplineSet
69 316 m 128,-1,1
 69 369 69 369 107 407 c 128,-1,2
 145 445 145 445 198 445 c 128,-1,3
 251 445 251 445 289 407 c 128,-1,4
 327 369 327 369 327 316 c 128,-1,5
 327 263 327 263 289 225 c 128,-1,6
 251 187 251 187 198 187 c 128,-1,7
 145 187 145 187 107 225 c 128,-1,0
 69 263 69 263 69 316 c 128,-1,1
EndSplineSet
EndChar

StartChar: germandbls
Encoding: 223 223 182
Width: 655
Flags: HMW
HStem: 0 98<321 343 321 343 343 362> 652 105<295.5 391>
VStem: 93 118<0 456 456 466 0 495> 459 114<521.5 568> 499 118<164 246.5 145.5 247.5>
LayerCount: 2
Fore
SplineSet
317 322 m 1,0,-1
 317 415 l 1,1,2
 389 426 389 426 424 460.5 c 128,-1,3
 459 495 459 495 459 540.5 c 128,-1,4
 459 586 459 586 432.5 619 c 128,-1,5
 406 652 406 652 349 652 c 0,6,7
 273 652 273 652 242 605 c 128,-1,8
 211 558 211 558 211 466 c 2,9,-1
 211 0 l 1,10,-1
 93 0 l 1,11,-1
 93 456 l 2,12,13
 93 528.5 93 528.5 99.5 557.75 c 128,-1,14
 106 587 106 587 114.5 613 c 128,-1,15
 123 639 123 639 135 657.5 c 128,-1,16
 147 676 147 676 166 696 c 128,-1,17
 185 716 185 716 208.5 728.5 c 0,18,19
 262.08 757 262.08 757 334.04 757 c 128,-1,20
 406 757 406 757 455 737 c 128,-1,21
 504 717 504 717 528 684.5 c 0,22,23
 573 623.5625 573 623.5625 573 554 c 0,24,25
 573 451 573 451 469 386 c 1,26,27
 543 378 543 378 580 326 c 128,-1,28
 617 274 617 274 617 206 c 0,29,30
 617 112 617 112 551 56 c 128,-1,31
 485 0 485 0 362 0 c 2,32,-1
 321 0 l 1,33,-1
 321 98 l 1,34,-1
 343 98 l 2,35,36
 418 98 418 98 458.5 122.5 c 128,-1,37
 499 147 499 147 499 206.5 c 128,-1,38
 499 266 499 266 459 294.5 c 128,-1,39
 419 323 419 323 352 323 c 0,40,41
 329 323 329 323 317 322 c 1,0,-1
EndSplineSet
EndChar

StartChar: notequal
Encoding: 8800 8800 183
Width: 598
Flags: HMW
HStem: 225 108<45 184 45 235 335 549 45 284> 432 108<45 281 45 331 45 381 431 549> 680 20G<406 506 506 506>
VStem: 45 504<225 333 225 333 432 540 225 540>
LayerCount: 2
Fore
SplineSet
45 333 m 1,0,-1
 235 333 l 1,1,-1
 281 432 l 1,2,-1
 45 432 l 1,3,-1
 45 540 l 1,4,-1
 331 540 l 1,5,-1
 406 700 l 1,6,-1
 506 700 l 1,7,-1
 431 540 l 1,8,-1
 549 540 l 1,9,-1
 549 432 l 1,10,-1
 381 432 l 1,11,-1
 335 333 l 1,12,-1
 549 333 l 1,13,-1
 549 225 l 1,14,-1
 284 225 l 1,15,-1
 210 65 l 1,16,-1
 110 65 l 1,17,-1
 184 225 l 1,18,-1
 45 225 l 1,19,-1
 45 333 l 1,0,-1
EndSplineSet
EndChar

StartChar: quotedblleft
Encoding: 8220 8220 184
Width: 344
Flags: HMW
HStem: 530 169<76 103 23 156 76 175 228 255>
VStem: 23 285<530 699>
LayerCount: 2
Fore
SplineSet
156 699 m 1,0,-1
 103 530 l 1,1,-1
 23 530 l 1,2,-1
 76 699 l 1,3,-1
 156 699 l 1,0,-1
308 699 m 1,4,-1
 255 530 l 1,5,-1
 175 530 l 1,6,-1
 228 699 l 1,7,-1
 308 699 l 1,4,-1
EndSplineSet
EndChar

StartChar: copyright
Encoding: 169 169 185
Width: 833
Flags: HMW
HStem: -12 43<329 507.5 329 518.5> 153 74<399.5 450.5> 475 75<400.5 454.5> 667 45<330.5 509>
VStem: 56 47<261 435 261 448> 227 80<318.5 391 318.5 412> 736 44<263 437>
LayerCount: 2
Fore
SplineSet
780 351 m 128,-1,1
 780 202 780 202 674 95 c 128,-1,2
 568 -12 568 -12 417 -12 c 128,-1,3
 266 -12 266 -12 161 94 c 128,-1,4
 56 200 56 200 56 349 c 128,-1,5
 56 498 56 498 162 605 c 128,-1,6
 268 712 268 712 418 712 c 0,7,8
 568 712 568 712 674 606 c 128,-1,0
 780 500 780 500 780 351 c 128,-1,1
736 350 m 128,-1,10
 736 481 736 481 644.5 574 c 128,-1,11
 553 667 553 667 420 667 c 128,-1,12
 287 667 287 667 195 573.5 c 128,-1,13
 103 480 103 480 103 348.5 c 0,14,15
 103 217 103 217 194 124 c 128,-1,16
 285 31 285 31 418 31 c 128,-1,17
 551 31 551 31 643.5 125 c 128,-1,9
 736 219 736 219 736 350 c 128,-1,10
585 224 m 1,18,19
 517 153 517 153 430 153 c 0,20,21
 343 153 343 153 285 207.5 c 128,-1,22
 227 262 227 262 227 351 c 0,23,24
 227 440 227 440 287 495 c 128,-1,25
 347 550 347 550 436 550 c 0,26,27
 525 550 525 550 582 490 c 1,28,-1
 534 431 l 1,29,30
 482 475 482 475 432 475 c 0,31,32
 382 475 382 475 344.5 441.5 c 128,-1,33
 307 408 307 408 307 354.5 c 0,34,35
 307 301 307 301 344.5 264 c 128,-1,36
 382 227 382 227 437 227 c 0,37,38
 492 227 492 227 537 276 c 1,39,-1
 585 224 l 1,18,19
EndSplineSet
EndChar

StartChar: onehalf
Encoding: 189 189 186
Width: 955
Flags: HMW
HStem: -8 21G<257 329 257 257> 0 66<706 891 706 891> 356 62<725 765> 638 61<79 161 79 227> 737 20G<630 702 702 702>
VStem: 161 66<290 638 638 638> 812 67<279 312.5>
LayerCount: 2
Fore
SplineSet
630 757 m 1,0,-1
 702 757 l 1,1,-1
 329 -8 l 1,2,-1
 257 -8 l 1,3,-1
 630 757 l 1,0,-1
794.5 249 m 128,-1,5
 812 273 812 273 812 297.5 c 128,-1,6
 812 322 812 322 793.5 339 c 128,-1,7
 775 356 775 356 746 356 c 0,8,9
 697 356 697 356 662 305 c 1,10,-1
 608 337 l 1,11,12
 661 418 661 418 747 418 c 0,13,14
 801 418 801 418 840 385.5 c 128,-1,15
 879 353 879 353 879 297 c 0,16,17
 879 266 879 266 862.5 237 c 128,-1,18
 846 208 846 208 802 163 c 2,19,-1
 706 66 l 1,20,-1
 891 66 l 1,21,-1
 891 0 l 1,22,-1
 612 0 l 1,23,-1
 612 58 l 1,24,-1
 736 183 l 2,25,4
 777 225 777 225 794.5 249 c 128,-1,5
79 699 m 1,26,-1
 227 699 l 1,27,-1
 227 290 l 1,28,-1
 161 290 l 1,29,-1
 161 638 l 1,30,-1
 79 638 l 1,31,-1
 79 699 l 1,26,-1
EndSplineSet
EndChar

StartChar: onequarter
Encoding: 188 188 187
Width: 890
Flags: HMW
HStem: -8 21G<227 299 227 227> 0 166<620 783 620 718> 103 63<620 718 620 718 783 833> 638 61<81 163 81 229> 737 20G<600 672 672 672>
VStem: 163 66<290 638 638 638> 718 65<0 103 0 103 166 241>
LayerCount: 2
Fore
SplineSet
600 757 m 1,0,-1
 672 757 l 1,1,-1
 299 -8 l 1,2,-1
 227 -8 l 1,3,-1
 600 757 l 1,0,-1
620 166 m 1,4,-1
 718 166 l 1,5,-1
 718 241 l 1,6,-1
 783 241 l 1,7,-1
 783 166 l 1,8,-1
 833 166 l 1,9,-1
 833 103 l 1,10,-1
 783 103 l 1,11,-1
 783 0 l 1,12,-1
 718 0 l 1,13,-1
 718 103 l 1,14,-1
 543 103 l 1,15,-1
 543 164 l 1,16,-1
 692 409 l 1,17,-1
 768 409 l 1,18,-1
 620 166 l 1,4,-1
81 699 m 1,19,-1
 229 699 l 1,20,-1
 229 290 l 1,21,-1
 163 290 l 1,22,-1
 163 638 l 1,23,-1
 81 638 l 1,24,-1
 81 699 l 1,19,-1
EndSplineSet
EndChar

StartChar: threequarters
Encoding: 190 190 188
Width: 884
Flags: HMW
HStem: -8 21G<256 328 256 256> 0 166<649 812 649 747> 103 63<649 747 649 747 812 862> 280 64<165.5 205 165.5 223.5> 479 53<161 212> 637 62<70 219 70 312> 737 20G<629 701 701 701>
VStem: 70 242<644 699 644 699 644 699> 266 66<387.5 430.5> 747 65<0 103 0 103 166 241>
LayerCount: 2
Fore
SplineSet
629 757 m 1,0,-1
 701 757 l 1,1,-1
 328 -8 l 1,2,-1
 256 -8 l 1,3,-1
 629 757 l 1,0,-1
649 166 m 1,4,-1
 747 166 l 1,5,-1
 747 241 l 1,6,-1
 812 241 l 1,7,-1
 812 166 l 1,8,-1
 862 166 l 1,9,-1
 862 103 l 1,10,-1
 812 103 l 1,11,-1
 812 0 l 1,12,-1
 747 0 l 1,13,-1
 747 103 l 1,14,-1
 572 103 l 1,15,-1
 572 164 l 1,16,-1
 721 409 l 1,17,-1
 797 409 l 1,18,-1
 649 166 l 1,4,-1
219 637 m 1,19,-1
 70 637 l 1,20,-1
 70 699 l 1,21,-1
 312 699 l 1,22,-1
 312 644 l 1,23,-1
 212 532 l 1,24,25
 269 531 269 531 300.5 496.5 c 128,-1,26
 332 462 332 462 332 407 c 0,27,28
 332 352 332 352 289.5 316 c 128,-1,29
 247 280 247 280 179 280 c 0,30,31
 111 280 111 280 47 323 c 1,32,-1
 77 379 l 1,33,34
 126 344 126 344 183 344 c 0,35,36
 219 344 219 344 242.5 360.5 c 128,-1,37
 266 377 266 377 266 409 c 0,38,39
 266 441 266 441 240 460 c 128,-1,40
 214 479 214 479 179.5 479 c 0,41,42
 145 479 145 479 123 472 c 1,43,-1
 123 525 l 1,44,-1
 219 637 l 1,19,-1
EndSplineSet
EndChar

StartChar: threesuperior
Encoding: 179 179 189
Width: 359
Flags: HMW
HStem: 280 64<140.5 180 140.5 198.5> 479 53<136 187> 637 62<45 194 45 287>
VStem: 45 242<644 699 644 699 644 699> 241 66<387.5 430.5>
LayerCount: 2
Fore
SplineSet
194 637 m 1,0,-1
 45 637 l 1,1,-1
 45 699 l 1,2,-1
 287 699 l 1,3,-1
 287 644 l 1,4,-1
 187 532 l 1,5,6
 244 531 244 531 275.5 496.5 c 128,-1,7
 307 462 307 462 307 407 c 0,8,9
 307 352 307 352 264.5 316 c 128,-1,10
 222 280 222 280 154 280 c 0,11,12
 86 280 86 280 22 323 c 1,13,-1
 52 379 l 1,14,15
 101 344 101 344 158 344 c 0,16,17
 194 344 194 344 217.5 360.5 c 128,-1,18
 241 377 241 377 241 409 c 0,19,20
 241 441 241 441 215 460 c 128,-1,21
 189 479 189 479 154.5 479 c 0,22,23
 120 479 120 479 98 472 c 1,24,-1
 98 525 l 1,25,-1
 194 637 l 1,0,-1
EndSplineSet
EndChar

StartChar: twosuperior
Encoding: 178 178 190
Width: 341
Flags: HMW
HStem: 298 66<127 312 127 312> 654 62<146 186>
VStem: 233 66<577 611>
LayerCount: 2
Fore
SplineSet
215.5 547 m 128,-1,1
 233 571 233 571 233 595.5 c 128,-1,2
 233 620 233 620 214.5 637 c 128,-1,3
 196 654 196 654 167 654 c 0,4,5
 116 654 116 654 83 603 c 1,6,-1
 28 635 l 1,7,8
 81 716 81 716 168 716 c 0,9,10
 222 716 222 716 260.5 683.5 c 128,-1,11
 299 651 299 651 299 595 c 0,12,13
 299 564 299 564 282.5 535.5 c 128,-1,14
 266 507 266 507 222 461 c 2,15,-1
 127 364 l 1,16,-1
 312 364 l 1,17,-1
 312 298 l 1,18,-1
 33 298 l 1,19,-1
 33 356 l 1,20,-1
 156 481 l 2,21,0
 198 523 198 523 215.5 547 c 128,-1,1
EndSplineSet
EndChar

StartChar: brokenbar
Encoding: 166 166 191
Width: 248
Flags: HMW
HStem: 737 20G<80 174 174 174>
VStem: 80 94<-24 303 -24 303 430 757>
LayerCount: 2
Fore
SplineSet
80 430 m 1,0,-1
 80 757 l 1,1,-1
 174 757 l 1,2,-1
 174 430 l 1,3,-1
 80 430 l 1,0,-1
80 -24 m 1,4,-1
 80 303 l 1,5,-1
 174 303 l 1,6,-1
 174 -24 l 1,7,-1
 80 -24 l 1,4,-1
EndSplineSet
EndChar

StartChar: minus
Encoding: 8722 8722 192
Width: 472
Flags: HMW
HStem: 249 98<10 462 10 462>
VStem: 10 452<249 347 249 347>
LayerCount: 2
Fore
SplineSet
10 347 m 1,0,-1
 462 347 l 1,1,-1
 462 249 l 1,2,-1
 10 249 l 1,3,-1
 10 347 l 1,0,-1
EndSplineSet
EndChar

StartChar: infinity
Encoding: 8734 8734 193
Width: 821
Flags: HMW
HStem: 82 93<190.5 240.5 190.5 259 575.5 625.5> 351 90<188.5 237.5 578.5 627.5>
VStem: 45 91<239.5 288 239.5 312> 680 91<239.5 288>
LayerCount: 2
Fore
SplineSet
408 322 m 1,0,1
 456 379 456 379 500.5 410 c 128,-1,2
 545 441 545 441 604 441 c 0,3,4
 680 441 680 441 725.5 390 c 128,-1,5
 771 339 771 339 771 261.5 c 128,-1,6
 771 184 771 184 724 133 c 128,-1,7
 677 82 677 82 600 82 c 0,8,9
 537.621621622 82 537.621621622 82 491 116.5 c 0,10,11
 458.7680798 140.351620948 458.7680798 140.351620948 408 193 c 1,12,13
 357.2319202 140.351620948 357.2319202 140.351620948 328.6159601 119.175810474 c 0,14,15
 278.378378378 82 278.378378378 82 208.689189189 82 c 128,-1,16
 139 82 139 82 92 133 c 128,-1,17
 45 184 45 184 45 261.5 c 128,-1,18
 45 339 45 339 90.5 390 c 128,-1,19
 136 441 136 441 212 441 c 0,20,21
 271 441 271 441 315.5 410 c 128,-1,22
 360 379 360 379 408 322 c 1,0,1
350 259 m 1,23,24
 263 351 263 351 212 351 c 0,25,26
 178 351 178 351 157 326 c 128,-1,27
 136 301 136 301 136 263.5 c 128,-1,28
 136 226 136 226 157.5 200.5 c 128,-1,29
 179 175 179 175 215 175 c 0,30,31
 275 175 275 175 350 259 c 1,23,24
466 259 m 1,32,33
 541 175 541 175 601 175 c 0,34,35
 637 175 637 175 658.5 200.5 c 128,-1,36
 680 226 680 226 680 263.5 c 128,-1,37
 680 301 680 301 659 326 c 128,-1,38
 638 351 638 351 604 351 c 0,39,40
 553 351 553 351 466 259 c 1,32,33
EndSplineSet
EndChar

StartChar: plusminus
Encoding: 177 177 194
Width: 472
Flags: HMW
HStem: 136 94<1 471 1 471> 427 98<1 180 1 180 292 471>
VStem: 180 112<286 427 286 427 525 671>
LayerCount: 2
Fore
SplineSet
180 671 m 1,0,-1
 292 671 l 1,1,-1
 292 525 l 1,2,-1
 471 525 l 1,3,-1
 471 427 l 1,4,-1
 292 427 l 1,5,-1
 292 286 l 1,6,-1
 180 286 l 1,7,-1
 180 427 l 1,8,-1
 1 427 l 1,9,-1
 1 525 l 1,10,-1
 180 525 l 1,11,-1
 180 671 l 1,0,-1
1 230 m 1,12,-1
 471 230 l 1,13,-1
 471 136 l 1,14,-1
 1 136 l 1,15,-1
 1 230 l 1,12,-1
EndSplineSet
EndChar

StartChar: lessequal
Encoding: 8804 8804 195
Width: 543
Flags: HMW
HStem: -52 98<39 511 39 511>
VStem: 39 119<394 405 394 460 394 460>
LayerCount: 2
Fore
SplineSet
39 334 m 1,0,-1
 39 460 l 1,1,-1
 510 678 l 1,2,-1
 510 564 l 1,3,-1
 158 405 l 1,4,-1
 158 394 l 1,5,-1
 510 231 l 1,6,-1
 510 117 l 1,7,-1
 39 334 l 1,0,-1
39 46 m 1,8,-1
 511 46 l 1,9,-1
 511 -52 l 1,10,-1
 39 -52 l 1,11,-1
 39 46 l 1,8,-1
EndSplineSet
EndChar

StartChar: greaterequal
Encoding: 8805 8805 196
Width: 557
Flags: HMW
HStem: -52 98<39 511 39 511>
VStem: 392 119<394 405 405 405>
LayerCount: 2
Fore
SplineSet
511 460 m 1,0,-1
 511 334 l 1,1,-1
 40 117 l 1,2,-1
 40 231 l 1,3,-1
 392 394 l 1,4,-1
 392 405 l 1,5,-1
 40 564 l 1,6,-1
 40 678 l 1,7,-1
 511 460 l 1,0,-1
39 46 m 1,8,-1
 511 46 l 1,9,-1
 511 -52 l 1,10,-1
 39 -52 l 1,11,-1
 39 46 l 1,8,-1
EndSplineSet
EndChar

StartChar: yen
Encoding: 165 165 197
Width: 502
Flags: HMW
HStem: 0 212<-2 313 -2 188> 124 88<-2 188 -2 188 314 502> 272 88<-2 132 -2 184 -2 132 371 502> 679 20G<-69 60 60 60 452 579 579 579>
VStem: 188 125<0 124 0 124 0 266>
LayerCount: 2
Fore
SplineSet
-2 212 m 1,0,-1
 188 212 l 1,1,-1
 188 266 l 1,2,-1
 184 272 l 1,3,-1
 -2 272 l 1,4,-1
 -2 360 l 1,5,-1
 132 360 l 1,6,-1
 -69 699 l 1,7,-1
 60 699 l 1,8,-1
 249 378 l 1,9,-1
 256 378 l 1,10,-1
 452 699 l 1,11,-1
 579 699 l 1,12,-1
 371 360 l 1,13,-1
 502 360 l 1,14,-1
 502 272 l 1,15,-1
 317 272 l 1,16,-1
 314 266 l 1,17,-1
 314 212 l 1,18,-1
 502 212 l 1,19,-1
 502 124 l 1,20,-1
 313 124 l 1,21,-1
 313 0 l 1,22,-1
 188 0 l 1,23,-1
 188 124 l 1,24,-1
 -2 124 l 1,25,-1
 -2 212 l 1,0,-1
EndSplineSet
EndChar

StartChar: mu
Encoding: 181 181 198
AltUni2: 0003bc.ffffffff.0
Width: 602
Flags: HMW
HStem: -194 21G<34 34 34 146> -8 101<229.5 271.5> 0 21G<412 524 412 412>
VStem: 34 112<-194 9 189 240 240 532> 412 112<0 97 97 97 244 532 0 532>
LayerCount: 2
Fore
SplineSet
34 -194 m 1,0,-1
 34 532 l 1,1,-1
 146 532 l 1,2,-1
 146 240 l 2,3,4
 146 93 146 93 268 93 c 0,5,6
 326 93 326 93 369 131.5 c 128,-1,7
 412 170 412 170 412 244 c 2,8,-1
 412 532 l 1,9,-1
 524 532 l 1,10,-1
 524 0 l 1,11,-1
 412 0 l 1,12,-1
 412 97 l 1,13,14
 385 48 385 48 337.5 20 c 128,-1,15
 290 -8 290 -8 238 -8 c 0,16,17
 186 -8 186 -8 146 9 c 1,18,-1
 146 -194 l 1,19,-1
 34 -194 l 1,0,-1
EndSplineSet
EndChar

StartChar: partialdiff
Encoding: 8706 8706 199
Width: 643
Flags: HMW
HStem: -8 109<247 327.5 247 389> 346 99<246 309 219.5 310.5> 613 100<228 332.5>
VStem: 48 111 439 118<376 382>
LayerCount: 2
Fore
SplineSet
143 569 m 1,0,-1
 81 646 l 1,1,2
 171 713 171 713 274 713 c 0,3,4
 391.475609756 713 391.475609756 713 470.5 633 c 0,5,6
 511 592 511 592 534 522 c 128,-1,7
 557 452 557 452 557 367.5 c 128,-1,8
 557 283 557 283 543 219.5 c 128,-1,9
 529 156 529 156 499 103.5 c 128,-1,10
 469 51 469 51 415 21.5 c 128,-1,11
 361 -8 361 -8 288 -8 c 0,12,13
 185 -8 185 -8 116.5 63 c 128,-1,14
 48 134 48 134 48 236 c 128,-1,15
 48 338 48 338 117 391.5 c 128,-1,16
 186 445 186 445 266 445 c 0,17,18
 325 445 325 445 371 424 c 128,-1,19
 417 403 417 403 439 376 c 1,20,21
 439 476.888888889 439 476.888888889 399 548 c 0,22,23
 362.4375 613 362.4375 613 262 613 c 0,24,25
 232 613 232 613 202 602 c 128,-1,26
 172 591 172 591 157.5 580 c 2,27,-1
 143 569 l 1,0,-1
435 246 m 1,28,-1
 437 272 l 1,29,30
 371 346 371 346 278 346 c 0,31,32
 228 346 228 346 193.486111111 313.951388889 c 128,-1,33
 158.972222222 281.902777778 158.972222222 281.902777778 158.972222222 226.472834967 c 128,-1,34
 158.972222222 171.042892157 158.972222222 171.042892157 193.486111111 136.021446078 c 128,-1,35
 228 101 228 101 287.5 101 c 128,-1,36
 347 101 347 101 387 141 c 128,-1,37
 427 181 427 181 435 246 c 1,28,-1
EndSplineSet
EndChar

StartChar: summation
Encoding: 8721 8721 200
Width: 693
Flags: HMW
HStem: -212 113<198 651 198 651> 675 113<217 631 217 217>
VStem: 25 626<-212 -123 -123 -123>
LayerCount: 2
Fore
SplineSet
651 -212 m 1,0,-1
 25 -212 l 1,1,-1
 25 -123 l 1,2,-1
 328 294 l 1,3,-1
 38 699 l 1,4,-1
 38 788 l 1,5,-1
 631 788 l 1,6,-1
 631 675 l 1,7,-1
 217 675 l 1,8,-1
 484 295 l 1,9,-1
 198 -99 l 1,10,-1
 651 -99 l 1,11,-1
 651 -212 l 1,0,-1
EndSplineSet
EndChar

StartChar: product
Encoding: 8719 8719 201
Width: 833
Flags: HMW
HStem: -212 21G<102 226 102 102 595 719 595 595> 675 113<226 595 226 226>
VStem: 102 124<-212 675 -212 788 -212 788> 595 124<-212 675 675 675>
LayerCount: 2
Fore
SplineSet
719 -212 m 1,0,-1
 595 -212 l 1,1,-1
 595 675 l 1,2,-1
 226 675 l 1,3,-1
 226 -212 l 1,4,-1
 102 -212 l 1,5,-1
 102 788 l 1,6,-1
 719 788 l 1,7,-1
 719 -212 l 1,0,-1
EndSplineSet
EndChar

StartChar: pi
Encoding: 960 960 202
Width: 755
Flags: HMW
HStem: 0 21G<145 256 145 145 480 592 480 480> 432 100<192 199 199 215 327 480 327 327 592 708 592 592>
VStem: 19 97<358.5 381 352.5 417.5> 215 112<432 432> 480 112<0 432 0 432>
LayerCount: 2
Fore
SplineSet
124 322 m 1,0,-1
 40 287 l 1,1,2
 19 329 19 329 19 373 c 0,3,4
 19 443 19 443 63.5 487.5 c 128,-1,5
 108 532 108 532 192 532 c 2,6,-1
 708 532 l 1,7,-1
 708 432 l 1,8,-1
 592 432 l 1,9,-1
 592 0 l 1,10,-1
 480 0 l 1,11,-1
 480 432 l 1,12,-1
 327 432 l 1,13,14
 323 333 323 333 302.5 200.5 c 128,-1,15
 282 68 282 68 256 0 c 1,16,-1
 145 0 l 1,17,18
 172 81 172 81 192.5 209.5 c 128,-1,19
 213 338 213 338 215 432 c 1,20,-1
 199 432 l 2,21,22
 161 432 161 432 138.5 412 c 128,-1,23
 116 392 116 392 116 366 c 0,24,25
 116 340 116 340 124 322 c 1,0,-1
EndSplineSet
EndChar

StartChar: integral
Encoding: 8747 8747 203
Width: 436
Flags: HMW
HStem: -170 98<108 146.5 100 190.5> 775 93<313 357 275 361.5>
VStem: 173 98<518 641 510 677.5> 189 97<60.5 185.5 26 201.5>
LayerCount: 2
Fore
SplineSet
406 855 m 1,0,-1
 393 765 l 1,1,2
 373 775 373 775 353.5 775 c 128,-1,3
 334 775 334 775 319.5 769 c 128,-1,4
 305 763 305 763 296 749 c 128,-1,5
 287 735 287 735 281.5 721.5 c 128,-1,6
 276 708 276 708 274 682.5 c 0,7,8
 271 644.25 271 644.25 271 578.125 c 128,-1,9
 271 512 271 512 278.5 349.5 c 128,-1,10
 286 187 286 187 286 113 c 128,-1,11
 286 39 286 39 279 -5.5 c 128,-1,12
 272 -50 272 -50 255 -89 c 0,13,14
 219.692307692 -170 219.692307692 -170 123 -170 c 0,15,16
 77 -170 77 -170 47 -153 c 1,17,-1
 63 -60 l 1,18,19
 87 -72 87 -72 111.5 -72 c 128,-1,20
 136 -72 136 -72 153 -59 c 128,-1,21
 170 -46 170 -46 177.5 -18 c 0,22,23
 189 24.9333333333 189 24.9333333333 189 113.966666667 c 128,-1,24
 189 203 189 203 181 361 c 128,-1,25
 173 519 173 519 173 591 c 128,-1,26
 173 663 173 663 180.5 708 c 128,-1,27
 188 753 188 753 206.5 791 c 0,28,29
 243.986842105 868 243.986842105 868 345 868 c 0,30,31
 382 868 382 868 406 855 c 1,0,-1
EndSplineSet
EndChar

StartChar: logicalnot
Encoding: 172 172 204
Width: 833
Flags: HMW
HStem: 357 88<93 680 93 762>
VStem: 680 82<88 357 357 357>
LayerCount: 2
Fore
SplineSet
93 445 m 1,0,-1
 762 445 l 1,1,-1
 762 88 l 1,2,-1
 680 88 l 1,3,-1
 680 357 l 1,4,-1
 93 357 l 1,5,-1
 93 445 l 1,0,-1
EndSplineSet
EndChar

StartChar: Omega
Encoding: 937 937 205
AltUni2: 002126.ffffffff.0
Width: 833
Flags: HMW
HStem: 0 111<13 161 13 347 13 161 663 811> 608 108<342 482>
VStem: 44 121<312.5 424 295.5 458> 659 121<312.5 424>
LayerCount: 2
Fore
SplineSet
412 716 m 128,-1,1
 568 716 568 716 674 612.5 c 128,-1,2
 780 509 780 509 780 361.5 c 0,3,4
 780 214 780 214 663 111 c 1,5,-1
 811 111 l 1,6,-1
 811 0 l 1,7,-1
 477 0 l 1,8,-1
 477 110 l 1,9,10
 558 132 558 132 608.5 199.5 c 128,-1,11
 659 267 659 267 659 354 c 0,12,13
 659 460 659 460 587.5 534 c 128,-1,14
 516 608 516 608 412 608 c 128,-1,15
 308 608 308 608 236.5 534 c 128,-1,16
 165 460 165 460 165 354 c 0,17,18
 165 267 165 267 215.5 199.5 c 128,-1,19
 266 132 266 132 347 110 c 1,20,-1
 347 0 l 1,21,-1
 13 0 l 1,22,-1
 13 111 l 1,23,-1
 161 111 l 1,24,25
 44 214 44 214 44 361.5 c 0,26,27
 44 509 44 509 150 612.5 c 128,-1,0
 256 716 256 716 412 716 c 128,-1,1
EndSplineSet
EndChar

StartChar: oslash
Encoding: 248 248 206
Width: 663
Flags: HMW
HStem: -8 100<326 378.5 326 411> 0 21G<262 262> 440 100<281.5 336>
VStem: 50 112<236.5 317.5 236.5 342> 498 112<214.5 292.5>
LayerCount: 2
Fore
SplineSet
330 -8 m 0,0,1
 296 -8 296 -8 262 0 c 1,2,-1
 213 -105 l 1,3,-1
 113 -105 l 1,4,-1
 178 33 l 1,5,6
 118 70 118 70 84 131.5 c 128,-1,7
 50 193 50 193 50 266 c 0,8,9
 50 381 50 381 130 460.5 c 128,-1,10
 210 540 210 540 330 540 c 0,11,12
 371 540 371 540 410 529 c 1,13,-1
 453 622 l 1,14,-1
 553 622 l 1,15,-1
 492 492 l 1,16,17
 547 454 547 454 578.5 395 c 128,-1,18
 610 336 610 336 610 266 c 0,19,20
 610 151 610 151 530 71.5 c 128,-1,21
 450 -8 450 -8 330 -8 c 0,0,1
209.5 391.5 m 128,-1,23
 162 343 162 343 162 260.5 c 128,-1,24
 162 178 162 178 222 128 c 1,25,-1
 366 436 l 1,26,27
 351 440 351 440 330 440 c 0,28,22
 257 440 257 440 209.5 391.5 c 128,-1,23
330 92 m 0,29,30
 403 92 403 92 450.5 140.5 c 128,-1,31
 498 189 498 189 498 267.5 c 128,-1,32
 498 346 498 346 447 395 c 1,33,-1
 306 93 l 1,34,35
 314 92 314 92 330 92 c 0,29,30
EndSplineSet
EndChar

StartChar: radical
Encoding: 8730 8730 207
Width: 833
Flags: HMW
HStem: 311 99<94 277 94 195> 737 20G<669 782 782 782>
VStem: 94 688<311 757 410 757>
LayerCount: 2
Fore
SplineSet
94 311 m 1,0,-1
 94 410 l 1,1,-1
 277 410 l 1,2,-1
 416 -25 l 1,3,-1
 669 757 l 1,4,-1
 782 757 l 1,5,-1
 483 -156 l 1,6,-1
 347 -156 l 1,7,-1
 195 311 l 1,8,-1
 94 311 l 1,0,-1
EndSplineSet
EndChar

StartChar: approxequal
Encoding: 8776 8776 208
Width: 576
Flags: HMW
HStem: 190 112<375.5 398 375.5 439.5> 270 112<174 197> 414 112<375.5 398 375.5 439.5> 494 112<174 197>
VStem: 29 106<194 255.5> 437 106<316.5 378>
LayerCount: 2
Fore
SplineSet
543 602 m 1,0,1
 543 512 543 512 502.5 463 c 128,-1,2
 462 414 462 414 398 414 c 0,3,4
 360 414 360 414 331.5 426 c 128,-1,5
 303 438 303 438 243 475 c 1,6,7
 210 494 210 494 188 494 c 0,8,9
 166 494 166 494 153 477 c 128,-1,10
 140 460 140 460 135 418 c 1,11,-1
 29 418 l 1,12,13
 29 508 29 508 69.5 557 c 128,-1,14
 110 606 110 606 174 606 c 0,15,16
 211 606 211 606 240 594 c 128,-1,17
 269 582 269 582 314.5 554 c 0,18,19
 360 526 360 526 383 526 c 128,-1,20
 406 526 406 526 419 543 c 128,-1,21
 432 560 432 560 437 602 c 1,22,-1
 543 602 l 1,0,1
543 378 m 1,23,24
 543 288 543 288 502.5 239 c 128,-1,25
 462 190 462 190 398 190 c 0,26,27
 360 190 360 190 331.5 202 c 128,-1,28
 303 214 303 214 243 251 c 1,29,30
 210 270 210 270 188 270 c 0,31,32
 166 270 166 270 153 253 c 128,-1,33
 140 236 140 236 135 194 c 1,34,-1
 29 194 l 1,35,36
 29 284 29 284 69.5 333 c 128,-1,37
 110 382 110 382 174 382 c 0,38,39
 211 382 211 382 240 370 c 128,-1,40
 269 358 269 358 314.5 330 c 0,41,42
 360 302 360 302 383 302 c 128,-1,43
 406 302 406 302 419 319 c 128,-1,44
 432 336 432 336 437 378 c 1,45,-1
 543 378 l 1,23,24
EndSplineSet
EndChar

StartChar: Delta
Encoding: 916 916 209
AltUni2: 002206.ffffffff.0
Width: 776
Flags: HMW
HStem: 0 110 679 20G<328 442 442 442>
VStem: 20 730<0 0>
LayerCount: 2
Fore
SplineSet
442 699 m 1,0,-1
 750 0 l 1,1,-1
 20 0 l 1,2,-1
 328 699 l 1,3,-1
 442 699 l 1,0,-1
196 111 m 1,4,-1
 574 109 l 1,5,-1
 385 535 l 1,6,-1
 196 111 l 1,4,-1
EndSplineSet
EndChar

StartChar: ellipsis
Encoding: 8230 8230 210
Width: 627
Flags: HMW
HStem: -8 149<83.5 124.5 292.5 333.5 501.5 542.5>
VStem: 30 149<46.5 87.5 46.5 87.5> 239 149<46.5 87.5 46.5 87.5> 448 149<46.5 87.5 46.5 87.5>
CounterMasks: 1 70
LayerCount: 2
Fore
SplineSet
30 67 m 128,-1,1
 30 98 30 98 51.5 119.5 c 128,-1,2
 73 141 73 141 104 141 c 128,-1,3
 135 141 135 141 157 119.5 c 128,-1,4
 179 98 179 98 179 67 c 128,-1,5
 179 36 179 36 157 14 c 128,-1,6
 135 -8 135 -8 104 -8 c 128,-1,7
 73 -8 73 -8 51.5 14 c 128,-1,0
 30 36 30 36 30 67 c 128,-1,1
239 67 m 128,-1,9
 239 98 239 98 260.5 119.5 c 128,-1,10
 282 141 282 141 313 141 c 128,-1,11
 344 141 344 141 366 119.5 c 128,-1,12
 388 98 388 98 388 67 c 128,-1,13
 388 36 388 36 366 14 c 128,-1,14
 344 -8 344 -8 313 -8 c 128,-1,15
 282 -8 282 -8 260.5 14 c 128,-1,8
 239 36 239 36 239 67 c 128,-1,9
448 67 m 128,-1,17
 448 98 448 98 469.5 119.5 c 128,-1,18
 491 141 491 141 522 141 c 128,-1,19
 553 141 553 141 575 119.5 c 128,-1,20
 597 98 597 98 597 67 c 128,-1,21
 597 36 597 36 575 14 c 128,-1,22
 553 -8 553 -8 522 -8 c 128,-1,23
 491 -8 491 -8 469.5 14 c 128,-1,16
 448 36 448 36 448 67 c 128,-1,17
EndSplineSet
EndChar

StartChar: quotedblright
Encoding: 8221 8221 211
Width: 357
Flags: HMW
HStem: 530 169<76 103 23 156 76 175 228 255>
VStem: 23 285<530 699>
LayerCount: 2
Fore
SplineSet
156 699 m 1,0,-1
 103 530 l 1,1,-1
 23 530 l 1,2,-1
 76 699 l 1,3,-1
 156 699 l 1,0,-1
308 699 m 1,4,-1
 255 530 l 1,5,-1
 175 530 l 1,6,-1
 228 699 l 1,7,-1
 308 699 l 1,4,-1
EndSplineSet
EndChar

StartChar: quoteleft
Encoding: 8216 8216 212
Width: 198
Flags: HMW
HStem: 530 169<76 103 23 156>
VStem: 23 133
LayerCount: 2
Fore
SplineSet
156 699 m 1,0,-1
 103 530 l 1,1,-1
 23 530 l 1,2,-1
 76 699 l 1,3,-1
 156 699 l 1,0,-1
EndSplineSet
EndChar

StartChar: quoteright
Encoding: 8217 8217 213
Width: 192
Flags: HMW
HStem: 530 169<76 103 23 156>
VStem: 23 133
LayerCount: 2
Fore
SplineSet
156 699 m 1,0,-1
 103 530 l 1,1,-1
 23 530 l 1,2,-1
 76 699 l 1,3,-1
 156 699 l 1,0,-1
EndSplineSet
EndChar

StartChar: divide
Encoding: 247 247 214
Width: 625
Flags: HMW
HStem: 98 149<290.5 331.5> 307 88<76 548 76 548> 453 149<290.5 331.5>
VStem: 237 149<152.5 193.5 152.5 193.5 507.5 548.5>
LayerCount: 2
Fore
SplineSet
237 173 m 128,-1,1
 237 204 237 204 258.5 225.5 c 128,-1,2
 280 247 280 247 311 247 c 128,-1,3
 342 247 342 247 364 225.5 c 128,-1,4
 386 204 386 204 386 173 c 128,-1,5
 386 142 386 142 364 120 c 128,-1,6
 342 98 342 98 311 98 c 128,-1,7
 280 98 280 98 258.5 120 c 128,-1,0
 237 142 237 142 237 173 c 128,-1,1
237 528 m 128,-1,9
 237 559 237 559 258.5 580.5 c 128,-1,10
 280 602 280 602 311 602 c 128,-1,11
 342 602 342 602 364 580.5 c 128,-1,12
 386 559 386 559 386 528 c 128,-1,13
 386 497 386 497 364 475 c 128,-1,14
 342 453 342 453 311 453 c 128,-1,15
 280 453 280 453 258.5 475 c 128,-1,8
 237 497 237 497 237 528 c 128,-1,9
76 395 m 1,16,-1
 548 395 l 1,17,-1
 548 307 l 1,18,-1
 76 307 l 1,19,-1
 76 395 l 1,16,-1
EndSplineSet
EndChar

StartChar: lozenge
Encoding: 9674 9674 215
Width: 833
Flags: HMW
HStem: 33 435<234 702 234 702>
VStem: 234 468<33 468 33 468>
LayerCount: 2
Fore
SplineSet
234 33 m 1,0,-1
 234 468 l 1,1,-1
 702 468 l 1,2,-1
 702 33 l 1,3,-1
 234 33 l 1,0,-1
EndSplineSet
EndChar

StartChar: fraction
Encoding: 8260 8260 216
Width: 378
Flags: HMW
HStem: 0 21G<-128 1 -128 -128> 679 20G<384 513 513 513>
VStem: -128 641
LayerCount: 2
Fore
SplineSet
513 699 m 1,0,-1
 1 0 l 1,1,-1
 -128 0 l 1,2,-1
 384 699 l 1,3,-1
 513 699 l 1,0,-1
EndSplineSet
EndChar

StartChar: guilsinglleft
Encoding: 8249 8249 217
Width: 366
Flags: HMW
HStem: 64 352<165 273 165 273>
VStem: 46 227<64 240>
LayerCount: 2
Fore
SplineSet
273 416 m 1,0,-1
 158 240 l 1,1,-1
 273 64 l 1,2,-1
 165 64 l 1,3,-1
 46 240 l 1,4,-1
 165 416 l 1,5,-1
 273 416 l 1,0,-1
EndSplineSet
EndChar

StartChar: guilsinglright
Encoding: 8250 8250 218
Width: 331
Flags: HMW
HStem: 64 352<46 154 46 154>
VStem: 46 227<64 240 240 416>
LayerCount: 2
Fore
SplineSet
161 240 m 1,0,-1
 46 416 l 1,1,-1
 154 416 l 1,2,-1
 273 240 l 1,3,-1
 154 64 l 1,4,-1
 46 64 l 1,5,-1
 161 240 l 1,0,-1
EndSplineSet
EndChar

StartChar: periodcentered
Encoding: 183 183 219
Width: 688
Flags: HMW
HStem: 244 149<312.5 353.5>
VStem: 259 149<298.5 339.5 298.5 339.5>
LayerCount: 2
Fore
SplineSet
259 319 m 128,-1,1
 259 350 259 350 280.5 371.5 c 128,-1,2
 302 393 302 393 333 393 c 128,-1,3
 364 393 364 393 386 371.5 c 128,-1,4
 408 350 408 350 408 319 c 128,-1,5
 408 288 408 288 386 266 c 128,-1,6
 364 244 364 244 333 244 c 128,-1,7
 302 244 302 244 280.5 266 c 128,-1,0
 259 288 259 288 259 319 c 128,-1,1
EndSplineSet
EndChar

StartChar: quotesinglbase
Encoding: 8218 8218 220
Width: 213
Flags: HMW
HStem: -80 169<93 120 40 173>
VStem: 40 133
LayerCount: 2
Fore
SplineSet
173 89 m 1,0,-1
 120 -80 l 1,1,-1
 40 -80 l 1,2,-1
 93 89 l 1,3,-1
 173 89 l 1,0,-1
EndSplineSet
EndChar

StartChar: quotedblbase
Encoding: 8222 8222 221
Width: 361
Flags: HMW
HStem: -80 169<93 120 40 173 171 171 171 173 224 251>
VStem: 40 264<-80 89>
LayerCount: 2
Fore
SplineSet
173 89 m 1,0,-1
 120 -80 l 1,1,-1
 40 -80 l 1,2,-1
 93 89 l 1,3,-1
 173 89 l 1,0,-1
304 89 m 1,4,-1
 251 -80 l 1,5,-1
 171 -80 l 1,6,-1
 224 89 l 1,7,-1
 304 89 l 1,4,-1
EndSplineSet
EndChar

StartChar: perthousand
Encoding: 8240 8240 222
Width: 1206
Flags: HMW
HStem: -8 85<624.5 656.5 624.5 681 1007.5 1039.5> 0 21G<115 244 115 115> 219 92<622.5 654.5 1005.5 1037.5> 394 87<225.5 257.5 225.5 284> 623 90<223.5 255.5> 679 20G<627 756 756 756>
VStem: 90 93<532 572 532 596.5> 298 94<532 572> 487 95<128 168 128 194.5> 697 92<128 168> 870 95<128 168 128 194.5> 1080 92<128 168>
LayerCount: 2
Fore
SplineSet
392 554 m 128,-1,1
 392 488 392 488 348.5 441 c 128,-1,2
 305 394 305 394 240.5 394 c 0,3,4
 176 394 176 394 133 440.5 c 128,-1,5
 90 487 90 487 90 553 c 128,-1,6
 90 619 90 619 133.5 666 c 128,-1,7
 177 713 177 713 241.5 713 c 0,8,9
 306 713 306 713 349 666.5 c 128,-1,0
 392 620 392 620 392 554 c 128,-1,1
756 699 m 1,10,-1
 244 0 l 1,11,-1
 115 0 l 1,12,-1
 627 699 l 1,13,-1
 756 699 l 1,10,-1
298 552 m 128,-1,15
 298 582 298 582 281 602.5 c 128,-1,16
 264 623 264 623 239.5 623 c 0,17,18
 215 623 215 623 199 602.5 c 128,-1,19
 183 582 183 582 183 552 c 128,-1,20
 183 522 183 522 200 501.5 c 128,-1,21
 217 481 217 481 241.5 481 c 0,22,23
 266 481 266 481 282 501.5 c 128,-1,14
 298 522 298 522 298 552 c 128,-1,15
789 152 m 128,-1,25
 789 86 789 86 745.5 39 c 128,-1,26
 702 -8 702 -8 637.5 -8 c 0,27,28
 573 -8 573 -8 530 38.5 c 128,-1,29
 487 85 487 85 487 151 c 128,-1,30
 487 217 487 217 530.5 264 c 128,-1,31
 574 311 574 311 638.5 311 c 0,32,33
 703 311 703 311 746 264.5 c 128,-1,24
 789 218 789 218 789 152 c 128,-1,25
697 148 m 128,-1,35
 697 178 697 178 680 198.5 c 128,-1,36
 663 219 663 219 638.5 219 c 0,37,38
 614 219 614 219 598 198.5 c 128,-1,39
 582 178 582 178 582 148 c 128,-1,40
 582 118 582 118 599 97.5 c 128,-1,41
 616 77 616 77 640.5 77 c 0,42,43
 665 77 665 77 681 97.5 c 128,-1,34
 697 118 697 118 697 148 c 128,-1,35
1172 152 m 128,-1,45
 1172 86 1172 86 1128.5 39 c 128,-1,46
 1085 -8 1085 -8 1020.5 -8 c 0,47,48
 956 -8 956 -8 913 38.5 c 128,-1,49
 870 85 870 85 870 151 c 128,-1,50
 870 217 870 217 913.5 264 c 128,-1,51
 957 311 957 311 1021.5 311 c 0,52,53
 1086 311 1086 311 1129 264.5 c 128,-1,44
 1172 218 1172 218 1172 152 c 128,-1,45
1080 148 m 128,-1,55
 1080 178 1080 178 1063 198.5 c 128,-1,56
 1046 219 1046 219 1021.5 219 c 0,57,58
 997 219 997 219 981 198.5 c 128,-1,59
 965 178 965 178 965 148 c 128,-1,60
 965 118 965 118 982 97.5 c 128,-1,61
 999 77 999 77 1023.5 77 c 0,62,63
 1048 77 1048 77 1064 97.5 c 128,-1,54
 1080 118 1080 118 1080 148 c 128,-1,55
EndSplineSet
EndChar

StartChar: _241
Encoding: 65539 -1 223
Width: 833
Flags: HMW
HStem: 760 156<237 460 237 460 358 485 358 582>
VStem: 237 345<760 760>
LayerCount: 2
Fore
SplineSet
408 843 m 1,0,-1
 331 760 l 1,1,-1
 237 760 l 1,2,-1
 358 916 l 1,3,-1
 460 916 l 1,4,-1
 582 760 l 1,5,-1
 485 760 l 1,6,-1
 408 843 l 1,0,-1
EndSplineSet
EndChar

StartChar: Edieresis
Encoding: 203 203 224
Width: 673
Flags: HMW
HStem: 0 111<218 603 218 603> 298 105<218 553 218 553> 588 111<218 591 218 218> 744 123<244 278>
VStem: 100 118<111 298 403 588> 200 123<789 823 789 823> 385 123<790 824 790 824>
LayerCount: 2
Fore
SplineSet
591 699 m 1,0,-1
 591 588 l 1,1,-1
 218 588 l 1,2,-1
 218 403 l 1,3,-1
 553 403 l 1,4,-1
 553 298 l 1,5,-1
 218 298 l 1,6,-1
 218 111 l 1,7,-1
 603 111 l 1,8,-1
 603 0 l 1,9,-1
 100 0 l 1,10,-1
 100 699 l 1,11,-1
 591 699 l 1,0,-1
200 806 m 128,-1,13
 200 832 200 832 218 849.5 c 128,-1,14
 236 867 236 867 261.5 867 c 128,-1,15
 287 867 287 867 305 849.5 c 128,-1,16
 323 832 323 832 323 806 c 128,-1,17
 323 780 323 780 304.5 762 c 128,-1,18
 286 744 286 744 260.5 744 c 128,-1,19
 235 744 235 744 217.5 762 c 128,-1,12
 200 780 200 780 200 806 c 128,-1,13
403 763 m 128,-1,21
 385 781 385 781 385 806.5 c 128,-1,22
 385 832 385 832 403 850 c 128,-1,23
 421 868 421 868 446.5 868 c 128,-1,24
 472 868 472 868 490 850.5 c 128,-1,25
 508 833 508 833 508 807.5 c 128,-1,26
 508 782 508 782 490 763.5 c 128,-1,27
 472 745 472 745 446.5 745 c 128,-1,20
 421 745 421 745 403 763 c 128,-1,21
EndSplineSet
EndChar

StartChar: Icircumflex
Encoding: 206 206 225
Width: 318
Flags: HMW
HStem: 0 21G<100 218 100 100> 679 20G<100 218 218 218> 757 156<-17 207 -17 207 105 328 105 244>
VStem: 100 118<0 699 0 699>
LayerCount: 2
Fore
SplineSet
244 757 m 1,0,-1
 157 835 l 1,1,-1
 70 757 l 1,2,-1
 -17 757 l 1,3,-1
 105 913 l 1,4,-1
 207 913 l 1,5,-1
 328 757 l 1,6,-1
 244 757 l 1,0,-1
100 699 m 1,7,-1
 218 699 l 1,8,-1
 218 0 l 1,9,-1
 100 0 l 1,10,-1
 100 699 l 1,7,-1
EndSplineSet
EndChar

StartChar: breve
Encoding: 728 728 226
Width: 833
Flags: HMW
HStem: 578 85<375.5 426.5 375.5 449>
VStem: 230 342<726 726>
LayerCount: 2
Fore
SplineSet
572 726 m 1,0,1
 567 656 567 656 520.5 617 c 128,-1,2
 474 578 474 578 401 578 c 128,-1,3
 328 578 328 578 281.5 617 c 128,-1,4
 235 656 235 656 230 726 c 1,5,-1
 313 726 l 1,6,7
 333 663 333 663 401 663 c 128,-1,8
 469 663 469 663 489 726 c 1,9,-1
 572 726 l 1,0,1
EndSplineSet
EndChar

StartChar: hungarumlaut
Encoding: 733 733 227
Width: 506
Flags: HMW
HStem: 726 20G<158 158 352 352>
VStem: 52 418<601 697>
LayerCount: 2
Fore
SplineSet
154 601 m 1,0,-1
 52 601 l 1,1,-1
 158 746 l 1,2,-1
 276 697 l 1,3,-1
 154 601 l 1,0,-1
348 601 m 1,4,-1
 246 601 l 1,5,-1
 352 746 l 1,6,-1
 470 697 l 1,7,-1
 348 601 l 1,4,-1
EndSplineSet
EndChar

StartChar: ogonek
Encoding: 731 731 228
Width: 215
Flags: HMW
HStem: -212 66<104 121 104 129.5>
VStem: 18 68<-125 -112.5>
LayerCount: 2
Fore
SplineSet
71 -8 m 1,0,-1
 134 -8 l 1,1,-1
 109 -49 l 2,2,3
 86 -87 86 -87 86 -116.5 c 0,4,5
 86 -146 86 -146 111 -146 c 0,6,7
 136 -146 136 -146 149 -122 c 1,8,-1
 197 -156 l 1,9,10
 163 -212 163 -212 106 -212 c 0,11,12
 70 -212 70 -212 44 -188 c 128,-1,13
 18 -164 18 -164 18 -124 c 0,14,15
 18 -84 18 -84 50 -38 c 2,16,-1
 71 -8 l 1,0,-1
EndSplineSet
EndChar

StartChar: endash
Encoding: 8211 8211 229
Width: 503
Flags: HMW
HStem: 226 67<53 427 53 427>
VStem: 53 374<226 293 226 293>
LayerCount: 2
Fore
SplineSet
53 226 m 1,0,-1
 53 293 l 1,1,-1
 427 293 l 1,2,-1
 427 226 l 1,3,-1
 53 226 l 1,0,-1
EndSplineSet
EndChar

StartChar: _250
Encoding: 65540 -1 230
Width: 833
Flags: HMW
HStem: 628 145<438 544 438 442>
VStem: 320 224<628 724>
LayerCount: 2
Fore
SplineSet
544 628 m 1,0,-1
 442 628 l 1,1,-1
 320 724 l 1,2,-1
 438 773 l 1,3,-1
 544 628 l 1,0,-1
EndSplineSet
EndChar

StartChar: macron
Encoding: 175 175 231
Width: 424
Flags: HMW
HStem: 600 87<59 366 59 366>
VStem: 59 307<600 687 600 687>
LayerCount: 2
Fore
SplineSet
366 687 m 1,0,-1
 366 600 l 1,1,-1
 59 600 l 1,2,-1
 59 687 l 1,3,-1
 366 687 l 1,0,-1
EndSplineSet
EndChar

StartChar: apple
Encoding: 65541 -1 232
Width: 0
Flags: HMW
HStem: -251 217<231 310.5 276 283>
VStem: 228 131<-112 -81 -112 -81>
LayerCount: 2
Fore
SplineSet
231 -251 m 1,0,-1
 264 -159 l 1,1,2
 228 -142 228 -142 228 -100 c 0,3,4
 228 -72 228 -72 247.5 -53 c 128,-1,5
 267 -34 267 -34 293.5 -34 c 0,6,7
 320 -34 320 -34 339.5 -53 c 128,-1,8
 359 -72 359 -72 359 -97.5 c 0,9,10
 359 -123 359 -123 335 -164 c 2,11,-1
 283 -251 l 1,12,-1
 231 -251 l 1,0,-1
EndSplineSet
EndChar

StartChar: LF
Encoding: 65542 -1 233
Width: 0
Flags: HMW
HStem: -251 217<231 310.5 276 283>
VStem: 228 131<-112 -81 -112 -81>
LayerCount: 2
Fore
SplineSet
231 -251 m 1,0,-1
 264 -159 l 1,1,2
 228 -142 228 -142 228 -100 c 0,3,4
 228 -72 228 -72 247.5 -53 c 128,-1,5
 267 -34 267 -34 293.5 -34 c 0,6,7
 320 -34 320 -34 339.5 -53 c 128,-1,8
 359 -72 359 -72 359 -97.5 c 0,9,10
 359 -123 359 -123 335 -164 c 2,11,-1
 283 -251 l 1,12,-1
 231 -251 l 1,0,-1
EndSplineSet
EndChar

StartChar: HT
Encoding: 65543 -1 234
Width: 0
Flags: HMW
HStem: -251 217<231 310.5 276 283>
VStem: 228 131<-112 -81 -112 -81>
LayerCount: 2
Fore
SplineSet
231 -251 m 1,0,-1
 264 -159 l 1,1,2
 228 -142 228 -142 228 -100 c 0,3,4
 228 -72 228 -72 247.5 -53 c 128,-1,5
 267 -34 267 -34 293.5 -34 c 0,6,7
 320 -34 320 -34 339.5 -53 c 128,-1,8
 359 -72 359 -72 359 -97.5 c 0,9,10
 359 -123 359 -123 335 -164 c 2,11,-1
 283 -251 l 1,12,-1
 231 -251 l 1,0,-1
EndSplineSet
EndChar

StartChar: _257
Encoding: 65544 -1 235
Width: 674
Flags: HMW
HStem: 742 156<157 401 157 401 279 522 279 418>
VStem: 157 365<742 742>
LayerCount: 2
Fore
SplineSet
418 742 m 1,0,-1
 341 815 l 1,1,-1
 264 742 l 1,2,-1
 157 742 l 1,3,-1
 279 898 l 1,4,-1
 401 898 l 1,5,-1
 522 742 l 1,6,-1
 418 742 l 1,0,-1
EndSplineSet
EndChar

StartChar: _258
Encoding: 65545 -1 236
Width: 394
Flags: HMW
HStem: 757 156<24 248 24 248 146 369 146 275>
VStem: 24 345<757 757>
LayerCount: 2
Fore
SplineSet
275 757 m 1,0,-1
 198 840 l 1,1,-1
 121 757 l 1,2,-1
 24 757 l 1,3,-1
 146 913 l 1,4,-1
 248 913 l 1,5,-1
 369 757 l 1,6,-1
 275 757 l 1,0,-1
EndSplineSet
EndChar

StartChar: oe
Encoding: 339 339 237
Width: 1077
Flags: HMW
HStem: -8 96<735 802.5 735 804.5> -8 100<281.5 376.5> 217 88<610 915 610 1027 610 915> 440 100<281.5 376.5 249 377> 444 96<732 808>
VStem: 50 112<214.5 317.5 214.5 342> 498 112<217 273 217 273> 915 112<217 352.5>
LayerCount: 2
Fore
SplineSet
1027 217 m 1,0,-1
 610 217 l 1,1,2
 614 159 614 159 663 123.5 c 128,-1,3
 712 88 712 88 775 88 c 0,4,5
 875 88 875 88 927 151 c 1,6,-1
 991 81 l 1,7,8
 905 -8 905 -8 767 -8 c 0,9,10
 702 -8 702 -8 645 18.5 c 128,-1,11
 588 45 588 45 551 95 c 1,12,13
 469 -8 469 -8 330 -8 c 0,14,15
 210 -8 210 -8 130 71.5 c 128,-1,16
 50 151 50 151 50 266 c 128,-1,17
 50 381 50 381 130 460.5 c 128,-1,18
 210 540 210 540 330 540 c 0,19,20
 468 540 468 540 551 436 c 1,21,22
 589 486 589 486 646 513 c 128,-1,23
 703 540 703 540 765 540 c 0,24,25
 875 540 875 540 951 474.5 c 128,-1,26
 1027 409 1027 409 1027 294 c 2,27,-1
 1027 217 l 1,0,-1
330 92 m 128,-1,29
 403 92 403 92 450 140 c 128,-1,30
 497 188 497 188 498 265 c 1,31,-1
 498 273 l 1,32,33
 495 347 495 347 448 393.5 c 128,-1,34
 401 440 401 440 329 440 c 0,35,36
 257 440 257 440 209.5 391.5 c 128,-1,37
 162 343 162 343 162 266 c 128,-1,38
 162 189 162 189 209.5 140.5 c 128,-1,28
 257 92 257 92 330 92 c 128,-1,29
610 305 m 1,39,-1
 915 305 l 1,40,41
 915 372 915 372 873 408 c 128,-1,42
 831 444 831 444 769.5 444 c 0,43,44
 708 444 708 444 659 406.5 c 128,-1,45
 610 369 610 369 610 305 c 1,39,-1
EndSplineSet
EndChar

StartChar: currency
Encoding: 164 164 238
Width: 720
Flags: HMW
HStem: -8 21G<106 106 601 601> 43 106<324 382> 484 107<323.5 382.5 323.5 399.5>
VStem: 73 118<286 347> 515 118<286 347 286 366.5>
LayerCount: 2
Fore
SplineSet
36 62 m 1,0,-1
 126 152 l 1,1,2
 73 224 73 224 73 316 c 0,3,4
 73 408 73 408 124 478 c 1,5,-1
 36 566 l 1,6,-1
 107 636 l 1,7,-1
 197 547 l 1,8,9
 265 591 265 591 352 591 c 0,10,11
 439 591 439 591 510 546 c 1,12,-1
 600 636 l 1,13,-1
 671 566 l 1,14,-1
 582 477 l 1,15,16
 633 405 633 405 633 315.5 c 0,17,18
 633 226 633 226 579 153 c 1,19,-1
 671 62 l 1,20,-1
 601 -8 l 1,21,-1
 506 85 l 1,22,23
 439 43 439 43 353 43 c 128,-1,24
 267 43 267 43 200 85 c 1,25,-1
 106 -8 l 1,26,-1
 36 62 l 1,0,-1
353 149 m 128,-1,28
 423 149 423 149 469 196 c 128,-1,29
 515 243 515 243 515 317 c 128,-1,30
 515 391 515 391 469 437.5 c 128,-1,31
 423 484 423 484 353 484 c 128,-1,32
 283 484 283 484 237 437.5 c 128,-1,33
 191 391 191 391 191 317 c 128,-1,34
 191 243 191 243 237 196 c 128,-1,27
 283 149 283 149 353 149 c 128,-1,28
EndSplineSet
EndChar

StartChar: ae
Encoding: 230 230 239
Width: 1028
Flags: HMW
HStem: -8 96<683.5 747.5 683.5 749.5> 230 86<850 850 850 962> 444 96<680.5 751.5> 447 93<315.5 370.5>
VStem: 96 112<140 196.5 140 218.5> 455 112<207 230 207 230 207 230> 850 112<230 316>
LayerCount: 2
Fore
SplineSet
962 230 m 1,0,-1
 567 230 l 1,1,-1
 567 207 l 1,2,3
 576 152 576 152 619.5 120 c 128,-1,4
 663 88 663 88 720 88 c 0,5,6
 810 88 810 88 862 151 c 1,7,-1
 926 81 l 1,8,9
 840 -8 840 -8 711.5 -8 c 128,-1,10
 583 -8 583 -8 509 86 c 1,11,12
 430 -8 430 -8 298 -8 c 0,13,14
 214 -8 214 -8 155 39.5 c 128,-1,15
 96 87 96 87 96 165 c 128,-1,16
 96 243 96 243 153.5 280 c 128,-1,17
 211 317 211 317 311 317 c 2,18,-1
 456 317 l 1,19,-1
 456 341 l 2,20,21
 456 447 456 447 338 447 c 0,22,23
 264 447 264 447 184 393 c 1,24,-1
 134 463 l 1,25,26
 231 540 231 540 353.5 540 c 128,-1,27
 476 540 476 540 530 468 c 1,28,29
 604 540 604 540 711.5 540 c 128,-1,30
 819 540 819 540 890.5 474.5 c 128,-1,31
 962 409 962 409 962 294 c 2,32,-1
 962 230 l 1,0,-1
455 198 m 2,33,-1
 455 230 l 1,34,-1
 329 230 l 2,35,36
 236 230 236 230 217 201.5 c 0,37,38
 208 188 208 188 208 167 c 0,39,40
 208 128 208 128 238 107.5 c 128,-1,41
 268 87 268 87 321.5 87 c 128,-1,42
 375 87 375 87 415 117 c 128,-1,43
 455 147 455 147 455 198 c 2,33,-1
716 444 m 128,-1,45
 660 444 660 444 617.5 412.5 c 128,-1,46
 575 381 575 381 567 326 c 1,47,-1
 567 317 l 1,48,-1
 850 316 l 1,49,50
 846 379 846 379 809 411.5 c 128,-1,44
 772 444 772 444 716 444 c 128,-1,45
EndSplineSet
EndChar

StartChar: ordmasculine
Encoding: 186 186 240
Width: 271
Flags: HMW
HStem: 456 48<117 163 117 178.5> 669 47<117 163>
VStem: 7 53<561.5 610.5 561.5 622> 220 53<561.5 610.5>
LayerCount: 2
Fore
SplineSet
140 504 m 128,-1,1
 175 504 175 504 197.5 527 c 128,-1,2
 220 550 220 550 220 586.5 c 0,3,4
 220 623 220 623 197.5 646 c 128,-1,5
 175 669 175 669 140 669 c 128,-1,6
 105 669 105 669 82.5 646 c 128,-1,7
 60 623 60 623 60 586.5 c 0,8,9
 60 550 60 550 82.5 527 c 128,-1,0
 105 504 105 504 140 504 c 128,-1,1
140 456 m 128,-1,11
 83 456 83 456 45 493.5 c 128,-1,12
 7 531 7 531 7 586 c 128,-1,13
 7 641 7 641 45 678.5 c 128,-1,14
 83 716 83 716 140 716 c 128,-1,15
 197 716 197 716 235 678.5 c 128,-1,16
 273 641 273 641 273 586 c 128,-1,17
 273 531 273 531 235 493.5 c 128,-1,10
 197 456 197 456 140 456 c 128,-1,11
EndSplineSet
EndChar

StartChar: cent
Encoding: 162 162 241
Width: 584
Flags: HMW
HStem: -6 21G<299 299 363 363> 517 20G<299 299> 519 20G<363 363>
VStem: 59 112<227 310.5 227 341.5> 299 64<-122 -6 -122 -6 100 430 430 430 539 656>
LayerCount: 2
Fore
SplineSet
299 -122 m 1,0,-1
 299 -6 l 1,1,2
 198 5 198 5 128.5 78.5 c 128,-1,3
 59 152 59 152 59 264 c 128,-1,4
 59 376 59 376 128 449.5 c 128,-1,5
 197 523 197 523 299 537 c 1,6,-1
 299 656 l 1,7,-1
 363 656 l 1,8,-1
 363 539 l 1,9,10
 476 530 476 530 549 457 c 1,11,-1
 483 376 l 1,12,13
 422 428 422 428 363 434 c 1,14,-1
 363 95 l 1,15,16
 429 102 429 102 488 162 c 1,17,-1
 554 90 l 1,18,19
 471 5 471 5 363 -6 c 1,20,-1
 363 -122 l 1,21,-1
 299 -122 l 1,0,-1
207.5 373.5 m 128,-1,23
 171 330 171 330 171 268.5 c 128,-1,24
 171 207 171 207 206.5 161 c 128,-1,25
 242 115 242 115 299 100 c 1,26,-1
 299 430 l 1,27,22
 244 417 244 417 207.5 373.5 c 128,-1,23
EndSplineSet
EndChar

StartChar: OE
Encoding: 338 338 242
Width: 1149
Flags: HMW
HStem: 0 103<362.5 576 474 576 474 1079> 0 111<694 1079 694 1079> 298 105<694 1029 694 1029> 588 111<694 1067 694 694> 596 103<463 474 474 576>
VStem: 107 128<282.5 417.5 282.5 450> 576 118<111 298 403 588>
LayerCount: 2
Fore
SplineSet
1067 699 m 1,0,-1
 1067 588 l 1,1,-1
 694 588 l 1,2,-1
 694 403 l 1,3,-1
 1029 403 l 1,4,-1
 1029 298 l 1,5,-1
 694 298 l 1,6,-1
 694 111 l 1,7,-1
 1079 111 l 1,8,-1
 1079 0 l 1,9,-1
 463 0 l 2,10,11
 312 0 312 0 209.5 100 c 128,-1,12
 107 200 107 200 107 349.5 c 0,13,14
 107 499 107 499 209.5 599 c 128,-1,15
 312 699 312 699 463 699 c 2,16,-1
 1067 699 l 1,0,-1
235 350 m 128,-1,18
 235 248 235 248 304.5 175.5 c 128,-1,19
 374 103 374 103 474 103 c 2,20,-1
 576 103 l 1,21,-1
 576 596 l 1,22,-1
 474 596 l 2,23,24
 373 596 373 596 304 524 c 128,-1,17
 235 452 235 452 235 350 c 128,-1,18
EndSplineSet
EndChar

StartChar: Euro
Encoding: 8364 8364 243
Width: 700
Flags: HMW
HStem: 4 116<334 408 334 428> 224 86<-39 51 -39 70 -39 51 207 437 207 207> 393 86<-39 65 -39 49 199 437> 596 120<336 413>
VStem: 48 129<351.5 364 349.5 365.5>
LayerCount: 2
Fore
SplineSet
-39 393 m 1,0,-1
 -39 479 l 1,1,-1
 65 479 l 1,2,3
 98 586 98 586 182 651 c 128,-1,4
 266 716 266 716 373 716 c 0,5,6
 532 716 532 716 625 601 c 1,7,-1
 554 511 l 1,8,9
 510 558 510 558 470.5 577 c 128,-1,10
 431 596 431 596 373 596 c 0,11,12
 315 596 315 596 268.5 565.5 c 128,-1,13
 222 535 222 535 199 479 c 1,14,-1
 437 479 l 1,15,-1
 437 393 l 1,16,-1
 178 393 l 1,17,18
 177 381 177 381 177 356.75 c 0,19,20
 177 332.5 177 332.5 180 310 c 1,21,-1
 437 310 l 1,22,-1
 437 224 l 1,23,-1
 207 224 l 1,24,25
 261 120 261 120 370 120 c 0,26,27
 424 120 424 120 462.5 140.5 c 128,-1,28
 501 161 501 161 544 205 c 1,29,-1
 615 119 l 1,30,31
 522 4 522 4 370 4 c 0,32,33
 266 4 266 4 185.5 63.5 c 128,-1,34
 105 123 105 123 70 224 c 1,35,-1
 -39 224 l 1,36,-1
 -39 310 l 1,37,-1
 51 310 l 1,38,39
 48 334 48 334 48 358 c 0,40,41
 48 382 48 382 49 393 c 1,42,-1
 -39 393 l 1,0,-1
EndSplineSet
EndChar

StartChar: fl
Encoding: 64258 64258 244
Width: 717
Flags: HMW
HStem: -105 99<638.5 663> 0 21G<123 235 123 123> 439 93<36 123 36 123 235 341> 728 99<317 414>
VStem: 123 112<0 439 0 439 532 576 576 583> 491 112<133 560 560 566>
LayerCount: 2
Fore
SplineSet
698 0 m 1,0,1
 700.142857143 -45 700.142857143 -45 708 -100 c 1,2,3
 676 -105 676 -105 640 -105 c 128,-1,4
 604 -105 604 -105 571 -87.5 c 128,-1,5
 538 -70 538 -70 521 -36 c 0,6,7
 491 24 491 24 491 133 c 2,8,-1
 491 560 l 2,9,10
 491 728 491 728 368 728 c 0,11,12
 298 728 298 728 266.5 686 c 128,-1,13
 235 644 235 644 235 583 c 2,14,-1
 235 532 l 1,15,-1
 341 532 l 1,16,-1
 341 439 l 1,17,-1
 235 439 l 1,18,-1
 235 0 l 1,19,-1
 123 0 l 1,20,-1
 123 439 l 1,21,-1
 36 439 l 1,22,-1
 36 532 l 1,23,-1
 123 532 l 1,24,-1
 123 576 l 2,25,26
 123 684 123 684 190 755.5 c 128,-1,27
 257 827 257 827 372 827 c 128,-1,28
 487 827 487 827 545 757 c 128,-1,29
 603 687 603 687 603 566 c 2,30,-1
 603 80 l 2,31,32
 603 -6 603 -6 667 -6 c 0,33,34
 683 -6 683 -6 698 0 c 1,0,1
EndSplineSet
Ligature2: "'liga' Standard Ligatures lookup 0 subtable" f l
EndChar

StartChar: Jcircumflex
Encoding: 308 308 245
Width: 578
Flags: HMW
HStem: -6 114<239 292 239 332> 593 106<153 493 153 375> 811 156<140 384 140 384 262 505 262 401>
VStem: 375 118<232 238 238 593 593 593>
LayerCount: 2
Fore
SplineSet
153 593 m 1,0,-1
 153 699 l 1,1,-1
 493 699 l 1,2,-1
 493 238 l 2,3,4
 493 116 493 116 431 55 c 128,-1,5
 369 -6 369 -6 272 -6 c 0,6,7
 150 -6 150 -6 64 80 c 1,8,-1
 131 173 l 1,9,10
 199 108 199 108 264 108 c 0,11,12
 310 108 310 108 342.5 139 c 128,-1,13
 375 170 375 170 375 232 c 2,14,-1
 375 593 l 1,15,-1
 153 593 l 1,0,-1
401 811 m 1,16,-1
 324 884 l 1,17,-1
 247 811 l 1,18,-1
 140 811 l 1,19,-1
 262 967 l 1,20,-1
 384 967 l 1,21,-1
 505 811 l 1,22,-1
 401 811 l 1,16,-1
EndSplineSet
EndChar

StartChar: jcircumflex
Encoding: 309 309 246
Width: 366
Flags: HMW
HStem: -212 104<68 97.5 68 129.5> 616 141<181 219> 812 156<21 265 21 265 143 386 143 282>
VStem: 129 141<669 707.5 669 707.5> 144 112<-25 532>
LayerCount: 2
Fore
SplineSet
129 688 m 128,-1,1
 129 717 129 717 150 737 c 128,-1,2
 171 757 171 757 200.5 757 c 0,3,4
 230 757 230 757 250 737 c 128,-1,5
 270 717 270 717 270 688 c 128,-1,6
 270 659 270 659 249 637.5 c 128,-1,7
 228 616 228 616 199.5 616 c 0,8,9
 171 616 171 616 150 637.5 c 128,-1,0
 129 659 129 659 129 688 c 128,-1,1
144 -25 m 2,10,-1
 144 532 l 1,11,-1
 256 532 l 1,12,-1
 256 -29 l 2,13,14
 256 -113 256 -113 205.5 -162.5 c 128,-1,15
 155 -212 155 -212 83.5 -212 c 0,16,17
 12 -212 12 -212 -47 -159 c 1,18,-1
 5 -75 l 1,19,20
 39 -108 39 -108 73.5 -108 c 0,21,22
 108 -108 108 -108 126 -86 c 128,-1,23
 144 -64 144 -64 144 -25 c 2,10,-1
282 812 m 1,24,-1
 205 885 l 1,25,-1
 128 812 l 1,26,-1
 21 812 l 1,27,-1
 143 968 l 1,28,-1
 265 968 l 1,29,-1
 386 812 l 1,30,-1
 282 812 l 1,24,-1
EndSplineSet
EndChar

StartChar: ldot
Encoding: 320 320 247
Width: 461
Flags: HMW
HStem: 0 21G<90 202 90 90> 244 149<317.5 358.5> 722 20G<90 202 202 202>
VStem: 90 112<0 742> 264 149<298.5 339.5 298.5 339.5>
LayerCount: 2
Fore
SplineSet
202 0 m 1,0,-1
 90 0 l 1,1,-1
 90 742 l 1,2,-1
 202 742 l 1,3,-1
 202 0 l 1,0,-1
264 319 m 128,-1,5
 264 350 264 350 285.5 371.5 c 128,-1,6
 307 393 307 393 338 393 c 128,-1,7
 369 393 369 393 391 371.5 c 128,-1,8
 413 350 413 350 413 319 c 128,-1,9
 413 288 413 288 391 266 c 128,-1,10
 369 244 369 244 338 244 c 128,-1,11
 307 244 307 244 285.5 266 c 128,-1,4
 264 288 264 288 264 319 c 128,-1,5
EndSplineSet
EndChar

StartChar: Nacute
Encoding: 323 323 248
Width: 862
Flags: HMW
HStem: 0 21G<110 228 110 110 624 752 624 624> 679 20G<110 228 228 228 634 752 752 752>
VStem: 110 118<0 510 0 699> 634 118<177 699 0 699>
LayerCount: 2
Fore
SplineSet
634 177 m 1,0,-1
 634 699 l 1,1,-1
 752 699 l 1,2,-1
 752 0 l 1,3,-1
 624 0 l 1,4,-1
 228 510 l 1,5,-1
 228 0 l 1,6,-1
 110 0 l 1,7,-1
 110 699 l 1,8,-1
 228 699 l 1,9,-1
 634 177 l 1,0,-1
471 787 m 1,10,-1
 369 787 l 1,11,-1
 475 932 l 1,12,-1
 593 883 l 1,13,-1
 471 787 l 1,10,-1
EndSplineSet
EndChar

StartChar: nacute
Encoding: 324 324 249
Width: 656
Flags: HMW
HStem: 0 21G<90 202 90 90 468 468 468 580> 439 101<342.5 384.5>
VStem: 90 112<0 288 435 532> 468 112<0 292 292 326 0 343>
LayerCount: 2
Fore
SplineSet
202 288 m 2,0,-1
 202 0 l 1,1,-1
 90 0 l 1,2,-1
 90 532 l 1,3,-1
 202 532 l 1,4,-1
 202 435 l 1,5,6
 229 484 229 484 276.5 512 c 128,-1,7
 324 540 324 540 379 540 c 0,8,9
 469 540 469 540 524.5 485 c 128,-1,10
 580 430 580 430 580 326 c 2,11,-1
 580 0 l 1,12,-1
 468 0 l 1,13,-1
 468 292 l 2,14,15
 468 439 468 439 346 439 c 0,16,17
 288 439 288 439 245 400.5 c 128,-1,18
 202 362 202 362 202 288 c 2,0,-1
365 628 m 1,19,-1
 263 628 l 1,20,-1
 369 773 l 1,21,-1
 487 724 l 1,22,-1
 365 628 l 1,19,-1
EndSplineSet
EndChar

StartChar: ccedilla
Encoding: 231 231 250
Width: 584
Flags: HMW
HStem: -212 21G<278.5 329.5> -212 69<278.5 293.5 274 329.5> -63 157<274 374.5> -4 21G<284 284> 436 104<299 373.5>
VStem: 59 112<219.5 319.5 219.5 349.5> 321 87<-114 -94.5 -140.5 -94>
LayerCount: 2
Fore
SplineSet
554 90 m 1,0,1
 468 3 468 3 354 -7 c 1,2,-1
 338 -38 l 1,3,4
 408 -47 408 -47 408 -117 c 0,5,6
 408 -155 408 -155 377 -183.5 c 128,-1,7
 346 -212 346 -212 298.5 -212 c 0,8,9
 251 -212 251 -212 215 -190 c 1,10,-1
 241 -133 l 1,11,12
 260 -143 260 -143 279.5 -143 c 0,13,14
 299 -143 299 -143 310 -131.5 c 128,-1,15
 321 -120 321 -120 321 -104 c 128,-1,16
 321 -88 321 -88 309.5 -75.5 c 128,-1,17
 298 -63 298 -63 281 -63 c 0,18,19
 264 -63 264 -63 251 -68 c 1,20,-1
 284 -4 l 1,21,22
 188 11 188 11 123.5 83.5 c 128,-1,23
 59 156 59 156 59 271.5 c 0,24,25
 59 387 59 387 142.5 463.5 c 128,-1,26
 226 540 226 540 346 540 c 0,27,28
 466 540 466 540 549 457 c 1,29,-1
 483 376 l 1,30,31
 414 436 414 436 344 436 c 0,32,33
 274 436 274 436 222.5 389.5 c 128,-1,34
 171 343 171 343 171 269.5 c 0,35,36
 171 196 171 196 221.5 145 c 128,-1,37
 272 94 272 94 347 94 c 0,38,39
 422 94 422 94 488 162 c 1,40,-1
 554 90 l 1,0,1
EndSplineSet
EndChar

StartChar: kcedilla
Encoding: 311 311 251
Width: 617
Flags: HMW
HStem: -212 21G<271.5 322.5> -212 69<271.5 286.5 267 322.5> -63 63<280 285> 0 21G<90 202 90 90 280 351 351 351 441 577 441 441> 722 20G<90 202 202 202>
VStem: 90 112<0 151 306 742> 314 87<-114 -94.5 -140.5 -94>
LayerCount: 2
Fore
SplineSet
360 321 m 1,0,-1
 577 0 l 1,1,-1
 441 0 l 1,2,-1
 283 233 l 1,3,-1
 202 151 l 1,4,-1
 202 0 l 1,5,-1
 90 0 l 1,6,-1
 90 742 l 1,7,-1
 202 742 l 1,8,-1
 202 306 l 1,9,-1
 418 532 l 1,10,-1
 562 532 l 1,11,-1
 360 321 l 1,0,-1
351 0 m 1,12,-1
 331 -38 l 1,13,14
 401 -47 401 -47 401 -117 c 0,15,16
 401 -155 401 -155 370 -183.5 c 128,-1,17
 339 -212 339 -212 291.5 -212 c 0,18,19
 244 -212 244 -212 208 -190 c 1,20,-1
 234 -133 l 1,21,22
 253 -143 253 -143 272.5 -143 c 0,23,24
 292 -143 292 -143 303 -131.5 c 128,-1,25
 314 -120 314 -120 314 -104 c 128,-1,26
 314 -88 314 -88 302.5 -75.5 c 128,-1,27
 291 -63 291 -63 273.5 -63 c 0,28,29
 256 -63 256 -63 244 -68 c 1,30,-1
 280 0 l 1,31,-1
 351 0 l 1,12,-1
EndSplineSet
EndChar

StartChar: kgreenlandic
Encoding: 312 312 252
Width: 617
Flags: HMW
HStem: 0 21G<90 202 90 90 441 577 441 441>
VStem: 90 112<0 151 306 532>
LayerCount: 2
Fore
SplineSet
360 321 m 1,0,-1
 577 0 l 1,1,-1
 441 0 l 1,2,-1
 283 233 l 1,3,-1
 202 151 l 1,4,-1
 202 0 l 1,5,-1
 90 0 l 1,6,-1
 90 532 l 1,7,-1
 202 532 l 1,8,-1
 202 306 l 1,9,-1
 418 532 l 1,10,-1
 562 532 l 1,11,-1
 360 321 l 1,0,-1
EndSplineSet
EndChar

StartChar: Racute
Encoding: 340 340 253
Width: 764
Flags: HMW
HStem: 0 21G<110 228 110 110 550 700 550 550> 235 107<228 352 228 375 352 375 375 383> 592 107<228 370 370 378 228 228>
VStem: 110 118<0 235 0 342 342 592> 547 121<430 519>
LayerCount: 2
Fore
SplineSet
668 472 m 0,0,1
 668 299 668 299 517 254 c 1,2,-1
 700 0 l 1,3,-1
 550 0 l 1,4,-1
 383 235 l 1,5,-1
 228 235 l 1,6,-1
 228 0 l 1,7,-1
 110 0 l 1,8,-1
 110 699 l 1,9,-1
 370 699 l 2,10,11
 530 699 530 699 599 645 c 128,-1,12
 668 591 668 591 668 472 c 0,0,1
511 373 m 128,-1,14
 547 404 547 404 547 472.5 c 128,-1,15
 547 541 547 541 510 566.5 c 128,-1,16
 473 592 473 592 378 592 c 2,17,-1
 228 592 l 1,18,-1
 228 342 l 1,19,-1
 375 342 l 2,20,13
 475 342 475 342 511 373 c 128,-1,14
372 787 m 1,21,-1
 270 787 l 1,22,-1
 376 932 l 1,23,-1
 494 883 l 1,24,-1
 372 787 l 1,21,-1
EndSplineSet
EndChar

StartChar: Rcommaaccent
Encoding: 342 342 254
Width: 764
Flags: HMW
HStem: -250 195<261 437 326 357> 0 21G<110 228 110 110 550 700 550 550> 235 107<228 352 228 375 352 375 375 383> 592 107<228 370 370 378 228 228>
VStem: 110 118<0 235 0 342 342 592> 547 121<430 519>
LayerCount: 2
Fore
SplineSet
668 472 m 0,0,1
 668 299 668 299 517 254 c 1,2,-1
 700 0 l 1,3,-1
 550 0 l 1,4,-1
 383 235 l 1,5,-1
 228 235 l 1,6,-1
 228 0 l 1,7,-1
 110 0 l 1,8,-1
 110 699 l 1,9,-1
 370 699 l 2,10,11
 530 699 530 699 599 645 c 128,-1,12
 668 591 668 591 668 472 c 0,0,1
511 373 m 128,-1,14
 547 404 547 404 547 472.5 c 128,-1,15
 547 541 547 541 510 566.5 c 128,-1,16
 473 592 473 592 378 592 c 2,17,-1
 228 592 l 1,18,-1
 228 342 l 1,19,-1
 375 342 l 2,20,13
 475 342 475 342 511 373 c 128,-1,14
261 -250 m 1,21,-1
 326 -55 l 1,22,-1
 437 -55 l 1,23,-1
 357 -250 l 1,24,-1
 261 -250 l 1,21,-1
EndSplineSet
EndChar

StartChar: rcommaaccent
Encoding: 343 343 255
Width: 424
Flags: HMW
HStem: -250 195<41 217 106 137> 0 21G<90 202 90 90> 427 105 427 113<374 375>
VStem: 90 112<0 228 425 532>
LayerCount: 2
Fore
SplineSet
41 -250 m 1,0,-1
 106 -55 l 1,1,-1
 217 -55 l 1,2,-1
 137 -250 l 1,3,-1
 41 -250 l 1,0,-1
374 540 m 1,4,-1
 375 427 l 1,5,6
 371.947368421 427.070175439 371.947368421 427.070175439 368.948907356 427.070175439 c 0,7,8
 286.49122807 427.070175439 286.49122807 427.070175439 244.245614035 373.035087719 c 0,9,10
 202 319 202 319 202 228 c 2,11,-1
 202 0 l 1,12,-1
 90 0 l 1,13,-1
 90 532 l 1,14,-1
 202 532 l 1,15,-1
 202 425 l 1,16,17
 229 475 229 475 275.5 507 c 128,-1,18
 322 539 322 539 374 540 c 1,4,-1
EndSplineSet
EndChar

StartChar: Rcaron
Encoding: 344 344 256
Width: 764
Flags: HMW
HStem: 0 21G<110 228 110 110 550 700 550 550> 235 107<228 352 228 375 352 375 375 383> 592 107<228 370 370 378 228 228> 757 156<184 408 184 306>
VStem: 110 118<0 235 0 342 342 592> 547 121<430 519>
LayerCount: 2
Fore
SplineSet
668 472 m 0,0,1
 668 299 668 299 517 254 c 1,2,-1
 700 0 l 1,3,-1
 550 0 l 1,4,-1
 383 235 l 1,5,-1
 228 235 l 1,6,-1
 228 0 l 1,7,-1
 110 0 l 1,8,-1
 110 699 l 1,9,-1
 370 699 l 2,10,11
 530 699 530 699 599 645 c 128,-1,12
 668 591 668 591 668 472 c 0,0,1
511 373 m 128,-1,14
 547 404 547 404 547 472.5 c 128,-1,15
 547 541 547 541 510 566.5 c 128,-1,16
 473 592 473 592 378 592 c 2,17,-1
 228 592 l 1,18,-1
 228 342 l 1,19,-1
 375 342 l 2,20,13
 475 342 475 342 511 373 c 128,-1,14
358 830 m 1,21,-1
 435 913 l 1,22,-1
 529 913 l 1,23,-1
 408 757 l 1,24,-1
 306 757 l 1,25,-1
 184 913 l 1,26,-1
 281 913 l 1,27,-1
 358 830 l 1,21,-1
EndSplineSet
EndChar

StartChar: rcaron
Encoding: 345 345 257
Width: 424
Flags: HMW
HStem: 0 21G<90 202 90 90> 427 105 427 113<374 375> 586 156<49 273 49 171>
VStem: 90 112<0 228 425 532>
LayerCount: 2
Fore
SplineSet
374 540 m 1,0,-1
 375 427 l 1,1,2
 371.947368421 427.070175439 371.947368421 427.070175439 368.948907356 427.070175439 c 0,3,4
 286.49122807 427.070175439 286.49122807 427.070175439 244.245614035 373.035087719 c 0,5,6
 202 319 202 319 202 228 c 2,7,-1
 202 0 l 1,8,-1
 90 0 l 1,9,-1
 90 532 l 1,10,-1
 202 532 l 1,11,-1
 202 425 l 1,12,13
 229 475 229 475 275.5 507 c 128,-1,14
 322 539 322 539 374 540 c 1,0,-1
223 659 m 1,15,-1
 300 742 l 1,16,-1
 394 742 l 1,17,-1
 273 586 l 1,18,-1
 171 586 l 1,19,-1
 49 742 l 1,20,-1
 146 742 l 1,21,-1
 223 659 l 1,15,-1
EndSplineSet
EndChar

StartChar: ordfeminine
Encoding: 170 170 258
Width: 265
Flags: HMW
HStem: 462 44<100.5 120.5> 579 36<112 121 121 179> 673 43<114.5 140>
VStem: 13 52<530.5 557 530.5 567.5> 179 52<558 579 579 579 615 624 624 625>
LayerCount: 2
Fore
SplineSet
231 466 m 1,0,-1
 184 466 l 1,1,-1
 184 499 l 1,2,3
 153 462 153 462 108.5 462 c 128,-1,4
 64 462 64 462 38.5 484 c 128,-1,5
 13 506 13 506 13 542 c 0,6,7
 13 615 13 615 112 615 c 2,8,-1
 179 615 l 1,9,-1
 179 624 l 2,10,11
 179 673 179 673 125 673 c 0,12,13
 92 673 92 673 54 648 c 1,14,-1
 30 681 l 1,15,16
 76 716 76 716 125.5 716 c 0,17,18
 231 716 231 716 231 625 c 2,19,-1
 231 466 l 1,0,-1
179 558 m 2,20,-1
 179 579 l 1,21,-1
 121 579 l 2,22,23
 65 579 65 579 65 543 c 0,24,25
 65 525 65 525 79 515.5 c 128,-1,26
 93 506 93 506 117.5 506 c 128,-1,27
 142 506 142 506 160.5 520.5 c 128,-1,28
 179 535 179 535 179 558 c 2,20,-1
EndSplineSet
EndChar

StartChar: onesuperior
Encoding: 185 185 259
Width: 278
Flags: HMW
HStem: 638 61<43 125 43 191>
VStem: 125 66<290 638 638 638>
LayerCount: 2
Fore
SplineSet
43 699 m 1,0,-1
 191 699 l 1,1,-1
 191 290 l 1,2,-1
 125 290 l 1,3,-1
 125 638 l 1,4,-1
 43 638 l 1,5,-1
 43 699 l 1,0,-1
EndSplineSet
EndChar

StartChar: hbar
Encoding: 295 295 260
Width: 656
Flags: HMW
HStem: 0 21G<90 202 90 90 468 580 468 468> 439 101<342.5 384.5> 574 87<44 90 44 90 202 351> 574 167<44 202 44 202 90 351 90 202>
VStem: 90 112<0 288 435 574 661 741> 468 112<0 292 292 326 0 343>
LayerCount: 2
Fore
SplineSet
351 661 m 1,0,-1
 351 574 l 1,1,-1
 202 574 l 1,2,-1
 202 435 l 1,3,4
 226 484 226 484 274.5 512 c 128,-1,5
 323 540 323 540 379 540 c 0,6,7
 469 540 469 540 524.5 485 c 128,-1,8
 580 430 580 430 580 326 c 2,9,-1
 580 0 l 1,10,-1
 468 0 l 1,11,-1
 468 292 l 2,12,13
 468 439 468 439 346 439 c 0,14,15
 288 439 288 439 245 400.5 c 128,-1,16
 202 362 202 362 202 288 c 2,17,-1
 202 0 l 1,18,-1
 90 0 l 1,19,-1
 90 574 l 1,20,-1
 44 574 l 1,21,-1
 44 661 l 1,22,-1
 90 661 l 1,23,-1
 90 741 l 1,24,-1
 202 741 l 1,25,-1
 202 661 l 1,26,-1
 351 661 l 1,0,-1
EndSplineSet
EndChar

StartChar: Itilde
Encoding: 296 296 261
Width: 338
Flags: HMW
HStem: 0 21G<110 228 110 110> 679 20G<110 228 228 228> 754 136<277 279> 757 136<57 59 -18 106>
VStem: -18 77<757 801.5> 110 118<0 699 0 699> 277 77<845.5 890>
LayerCount: 2
Fore
SplineSet
110 699 m 1,0,-1
 228 699 l 1,1,-1
 228 0 l 1,2,-1
 110 0 l 1,3,-1
 110 699 l 1,0,-1
354 890 m 1,4,5
 354 825 354 825 325 789.5 c 128,-1,6
 296 754 296 754 249 754 c 0,7,8
 222 754 222 754 201 763 c 128,-1,9
 180 772 180 772 146 792 c 128,-1,10
 112 812 112 812 96.5 812 c 0,11,12
 66.3333333333 812 66.3333333333 812 59 757 c 1,13,-1
 -18 757 l 1,14,15
 -18 822 -18 822 11 857.5 c 128,-1,16
 40 893 40 893 87 893 c 0,17,18
 114 893 114 893 134.5 884.5 c 128,-1,19
 155 876 155 876 188.5 855.5 c 128,-1,20
 222 835 222 835 238.5 835 c 128,-1,21
 255 835 255 835 264 847.5 c 128,-1,22
 273 860 273 860 277 890 c 1,23,-1
 354 890 l 1,4,5
EndSplineSet
EndChar

StartChar: itilde
Encoding: 297 297 262
Width: 292
Flags: HMW
HStem: 0 21G<90 202 90 90> 597 69<199.5 213.5 199.5 239.5> 597 117<238 239.5> 600 116<49.5 51 -15 91.5> 647 69<75 89>
VStem: -15 66<600 638> 90 112<0 532 0 532> 238 66<675.5 714>
LayerCount: 2
Fore
SplineSet
304 714 m 1,0,1
 304 658 304 658 279 627.5 c 128,-1,2
 254 597 254 597 214 597 c 0,3,4
 190 597 190 597 172 604.5 c 128,-1,5
 154 612 154 612 118 635 c 1,6,7
 97 647 97 647 84 647 c 0,8,9
 56 647 56 647 51 600 c 1,10,-1
 -15 600 l 1,11,12
 -15 655 -15 655 10 685.5 c 128,-1,13
 35 716 35 716 75 716 c 0,14,15
 98 716 98 716 116 708.5 c 128,-1,16
 134 701 134 701 171 678 c 1,17,18
 193 666 193 666 204 666 c 0,19,20
 233 666 233 666 238 714 c 1,21,-1
 304 714 l 1,0,1
90 532 m 1,22,-1
 202 532 l 1,23,-1
 202 0 l 1,24,-1
 90 0 l 1,25,-1
 90 532 l 1,22,-1
EndSplineSet
EndChar

StartChar: ij
Encoding: 307 307 263
Width: 695
Flags: HMW
HStem: -212 104<397 426.5 397 458.5> 0 21G<109 221 109 109> 616 141<147 185 510 548>
VStem: 95 141<669 707.5 669 707.5> 109 112<0 532> 458 141<669 707.5 669 707.5> 473 112<-25 532>
LayerCount: 2
Fore
SplineSet
221 0 m 1,0,-1
 109 0 l 1,1,-1
 109 532 l 1,2,-1
 221 532 l 1,3,-1
 221 0 l 1,0,-1
95 688 m 128,-1,5
 95 717 95 717 116 737 c 128,-1,6
 137 757 137 757 166.5 757 c 0,7,8
 196 757 196 757 216 737 c 128,-1,9
 236 717 236 717 236 688 c 128,-1,10
 236 659 236 659 215 637.5 c 128,-1,11
 194 616 194 616 165.5 616 c 0,12,13
 137 616 137 616 116 637.5 c 128,-1,4
 95 659 95 659 95 688 c 128,-1,5
458 688 m 128,-1,15
 458 717 458 717 479 737 c 128,-1,16
 500 757 500 757 529.5 757 c 0,17,18
 559 757 559 757 579 737 c 128,-1,19
 599 717 599 717 599 688 c 128,-1,20
 599 659 599 659 578 637.5 c 128,-1,21
 557 616 557 616 528.5 616 c 0,22,23
 500 616 500 616 479 637.5 c 128,-1,14
 458 659 458 659 458 688 c 128,-1,15
473 -25 m 2,24,-1
 473 532 l 1,25,-1
 585 532 l 1,26,-1
 585 -29 l 2,27,28
 585 -113 585 -113 534.5 -162.5 c 128,-1,29
 484 -212 484 -212 412.5 -212 c 0,30,31
 341 -212 341 -212 282 -159 c 1,32,-1
 334 -75 l 1,33,34
 368 -108 368 -108 402.5 -108 c 0,35,36
 437 -108 437 -108 455 -86 c 128,-1,37
 473 -64 473 -64 473 -25 c 2,24,-1
EndSplineSet
EndChar

